<svg xmlns="http://www.w3.org/2000/svg" viewBox="0 0 175.815 29.955" preserveAspectRatio="none"><defs><style>g{display:none}g:target{display:inline}</style></defs><g id="off"><path d="M175.298 4.537c-.87-1.196.412-2.459-.809-3.25a27.409 27.409 0 0 0-.576-.03c-1.564-.066-3.251-.069-4.958-.158a30.694 30.694 0 0 1-5.044-.6c-.21-.015-.43-.441-.644-.455l-12.323-.04c-.978-.047-15.966.302-16.946.24-1.342-.06-2.668.064-4.004.078s-2.732.212-4.069.309c-1 .072-1.983.2-2.942.28-.697.057-1.38.14-2.06.193-1.014.071-2.02.128-3.002.195-1.487.102-2.949.204-4.397.259-.797.015-1.596.01-2.404.004-1.164-.01-2.34-.03-3.563-.076-.978-.035-1.985-.06-3.02-.1a41.254 41.254 0 0 1-2.73-.109 54.807 54.807 0 0 0-4.794-.189c-.73.023-1.455.026-2.159.01C93.334 1.046 61.874 1 60.3 1.1c-.569.025-1.122.03-1.642.015-.392-.02-.797-.033-1.21-.037q-2.207.068-4.306.142c-1.21.021-2.397.048-3.546.064-.787.011-1.57.028-2.35.055-.874.032-1.731.089-2.595.128a5.91 5.91 0 0 0-.52.022 16.883 16.883 0 0 1-2.221.053q-.942.032-1.868.086c-.725.016-1.46.011-2.196.01l-4.79-.063c-.883.012-1.747.022-2.614.068-.867.047-1.787.125-2.657.184-.718.068-1.46.109-2.21.122-1.615.004-14.89.057-16.468.16a43.392 43.392 0 0 1-4.425.037 3.086 3.086 0 0 0-.558.05 4.893 4.893 0 0 1-1.34.127 1.75 1.75 0 0 0-1.001.126.172.172 0 0 0-.043.043 2.319 2.319 0 0 0-.42.842A5.947 5.947 0 0 1 .966 5.56 14.996 14.996 0 0 0 .28 7.195l-.033.094 1.258.636-1.479.125a.943.943 0 0 1-.017.154q-.006.27-.009.534l2.799.936L.3 9.582l.043.287c.05.317.455.64.46.944a6.312 6.312 0 0 1-.335 1.82 1.767 1.767 0 0 0 .488 1.881 2.636 2.636 0 0 1 .55.577 9.228 9.228 0 0 1 .659 1.98 19.337 19.337 0 0 1 .096 2.743c-.004.224-.044.447-.04.67a7.496 7.496 0 0 0 .04 1.123c.03.28.282.565.282.845a3.657 3.657 0 0 1-.605 2.162 3.017 3.017 0 0 0-.539 1.094c-.162.846-.33 1.703-.503 2.58-.088.448.529.663 1.852.738.203.013.392.045.588.058a10.466 10.466 0 0 0 2.245.03 18.73 18.73 0 0 1 1.802-.23c1.096-.048 2.199-.042 3.274-.043.552 0 12.704.126 13.218.202q2.313.36 4.736.624 1.996.163 4.117.22c1.181.03 2.38.062 3.58.068a41.088 41.088 0 0 0 1.969-.067 39.99 39.99 0 0 1 1.658-.084c.943-.007 1.891.009 2.836.046q1.514.075 3.053.082a70.547 70.547 0 0 0 3.084-.055c1.876-.084 3.814-.056 5.73-.059a43.78 43.78 0 0 0 4.41-.189 20.699 20.699 0 0 1 2.327-.151c2.13.024 34.265.076 36.39.154 1.545.056 3.085.164 4.621.268a34.698 34.698 0 0 0 4.787-.112c.577-.05 1.163-.09 1.755-.118 1.433-.054 2.876-.086 4.309-.134a30.18 30.18 0 0 0 1.59-.12c1.044-.094 2.08-.198 3.125-.29a2.903 2.903 0 0 1 .51.022c1.696.177 3.37.386 5.085.526 1.425.105 2.874.177 4.34.21a49.7 49.7 0 0 0 2.701-.034q2.035-.07 4.079-.182c.38-.047 14.75-.102 15.11-.165 1.046-.108 13.76-.218 14.82-.304 1.505-.122 3.03-.211 4.54-.326a7.031 7.031 0 0 0 3.085-.668 1.39 1.39 0 0 1 .478-.073.379.379 0 0 1 .24.115 2.317 2.317 0 0 1 .14.383 1.284 1.284 0 0 0 .996-.12 1.227 1.227 0 0 0 .455-.414c.065-.178.13-.794.172-.974a5.676 5.676 0 0 1-.228-2.417l-2.075.01c.692-.005 1.38-1.01 2.075-.299 1.37-.707-.021-2.615 1.34-3.307a8.176 8.176 0 0 1-1.631-2.278 8.92 8.92 0 0 1-.772-2.644 14.387 14.387 0 0 1-.08-2.924 25.078 25.078 0 0 1 .4-3.007c.188-.992.42-1.96.663-2.878s.499-1.786.734-2.59a.844.844 0 0 0 .168-.251z" fill="#294d44"/><path d="M168.215 22.68a.558.558 0 0 1-.396-.091c-.153-.162.15-.346.4-.413a27.345 27.345 0 0 1 4.917-.85l.779-.06a7.009 7.009 0 0 0-.428-3.769c-1.504-4.98-.636-10.166.238-15.228-4.667-.094-35.004-.186-39.674-.232-1.701.384-3.588.558-4.892 1.433a3.398 3.398 0 0 1-.844.498 3.196 3.196 0 0 1-1.222.058l-1.971-.161c-5.442 4.724-12.463 8.422-19.359 12.02a12.118 12.118 0 0 1-3.644 1.41 13.964 13.964 0 0 1-4.538-.26c-14.513-2.463-58.97-5.11-73.36-7.941-3.483-.685-18.656-1.383-22.192-1.9.036.468.076.935.107 1.402q1.899-.055 3.8-.028a2.965 2.965 0 0 1-1.442 1.866 12.72 12.72 0 0 0-1.78 1c-.146.127-.27.27-.413.399a116.338 116.338 0 0 1-.373 14.582 1.87 1.87 0 0 0 .494 1.781A3.455 3.455 0 0 0 4 28.724a49.639 49.639 0 0 0 7.888.499c.79-.728 13.25-1.453 14.06-2.168a.858.858 0 0 1 .394-.231.876.876 0 0 1 .795.376c.549.657 1.026 1.5 2.046 1.653.26.039.611.09.697.244 6.593-.152 13.192-.149 19.788-.14 8.028.009 46.055.019 54.083.028l4.715.006a6.129 6.129 0 0 0-.896-1.052c-.446-.419-1.001-.863-.943-1.395l2.608 1.035a12.186 12.186 0 0 0 1.515.525c.372.095.76.157 1.12.274a4.104 4.104 0 0 1 1.173.618l1.853.002c11.17.014 48.012.027 59.17.407a17.916 17.916 0 0 0 .402-6.306l-1.785-.34c.011-.006.02-.013.03-.02a80.297 80.297 0 0 0-4.498-.059z" fill="#2e5945"/><path d="M4.494 10.434a2.965 2.965 0 0 0 1.442-1.866q-1.9-.028-3.8.028c.07 1.078.539 1.759.579 2.838.142-.13-.147.127 0 0a12.72 12.72 0 0 1 1.779-1zm24.689 18.419c-1.02-.153-1.497-.996-2.046-1.653a.876.876 0 0 0-.795-.376.858.858 0 0 0-.393.231c-.81.715-1.18 1.049-1.97 1.777 1.825-.007 3.23.327 5.049.281.284-.007.568-.01.852-.016-.086-.154-.436-.205-.697-.244zm81.567-.749a12.186 12.186 0 0 1-1.515-.525l-2.608-1.035c-.058.532.497.976.943 1.395a2.88 2.88 0 0 1 .646.68c1.526.002 3.3.376 4.827.377a4.104 4.104 0 0 0-1.173-.618c-.36-.117-.748-.18-1.12-.274zm63.165-6.839c-.261.022-.522.04-.779.061a27.345 27.345 0 0 0-4.918.85c-.25.067-.552.251-.4.413a.558.558 0 0 0 .397.091c1.5-.024 3 0 4.499.06a2.473 2.473 0 0 0 1.2-1.475zM127.127 2.01a39.342 39.342 0 0 1-2.005 1.855l1.97.16a3.196 3.196 0 0 0 1.223-.057 3.398 3.398 0 0 0 .844-.498c1.304-.875 3.191-1.049 4.892-1.433q-3.463-.034-6.924-.027z" fill="#2c5148"/><path d="M97.58 17.034a13.964 13.964 0 0 0 4.54.261 12.118 12.118 0 0 0 3.643-1.41c6.896-3.598 13.917-7.296 19.359-12.02l-1.913-.156c-2.952-.24-5.906-.482-8.843-.81a168.13 168.13 0 0 1-3.764-.47 60.495 60.495 0 0 1-6.617.11c-2.31-.132-4.58-.54-6.891-.658-2.968-.153-35.937.171-38.903.338q-.977.055-1.955.088l-.013.012c-.434.474-.172 1.19-.683 1.62a1.802 1.802 0 0 1-1.848.022 3.21 3.21 0 0 1-1.13-1.234l-.22-.355c-2.166.003-4.335-.041-6.504-.096a9.298 9.298 0 0 1-.253.142l-2.422 1.316a4.85 4.85 0 0 1 .852-1.506 130.151 130.151 0 0 0-17.65.338c-3.052.335-17.912.876-20.815.102-1.299-.346-2.98-.877-3.847-.08l-.078.291c.165 1.437.293 2.876.404 4.315 3.536.517 18.709 1.215 22.192 1.9 14.39 2.83 58.847 5.478 73.36 7.94z" fill="#336150"/><path d="M52.538 2.87c.008 0 .016-.066.024-.053a3.097 3.097 0 0 0 1.13 1.19 1.81 1.81 0 0 0 1.848.045c.39-.329.332-1.183.475-1.183zm-8.5-.64l-.023-.002a4.85 4.85 0 0 0-.852 1.506l2.033-1.105a3.856 3.856 0 0 1-1.158-.4z" fill="#2c5148"/><path d="M111.103 2.402l-.501.026c1.252.17 2.506.33 3.764.471 2.937.328 5.89.57 8.843.81l1.913.156a39.342 39.342 0 0 0 2.005-1.855c-5.347.014-10.69.121-16.024.392z" fill="#325c52"/></g><g id="hover"><path d="M175.298 4.537c-.87-1.196.412-2.459-.809-3.25a27.409 27.409 0 0 0-.576-.03c-1.564-.066-3.251-.069-4.958-.158a30.694 30.694 0 0 1-5.044-.6c-.21-.015-.43-.441-.644-.455l-12.323-.04c-.978-.047-15.966.302-16.946.24-1.342-.06-2.668.064-4.004.078s-2.732.212-4.069.309c-1 .072-1.983.2-2.942.28-.697.057-1.38.14-2.06.193-1.014.071-2.02.128-3.002.195-1.487.102-2.949.204-4.397.259-.797.015-1.596.01-2.404.004-1.164-.01-2.34-.03-3.563-.076-.978-.035-1.985-.06-3.02-.1a41.254 41.254 0 0 1-2.73-.109 54.807 54.807 0 0 0-4.794-.189c-.73.023-1.455.026-2.159.01C93.334 1.046 61.874 1 60.3 1.1c-.569.025-1.122.03-1.642.015-.392-.02-.797-.033-1.21-.037q-2.207.068-4.306.142c-1.21.021-2.397.048-3.546.064-.787.011-1.57.028-2.35.055-.874.032-1.731.089-2.595.128a5.91 5.91 0 0 0-.52.022 16.883 16.883 0 0 1-2.221.053q-.942.032-1.868.086c-.725.016-1.46.011-2.196.01l-4.79-.063c-.883.012-1.747.022-2.614.068-.867.047-1.787.125-2.657.184-.718.068-1.46.109-2.21.122-1.615.004-14.89.057-16.468.16a43.392 43.392 0 0 1-4.425.037 3.086 3.086 0 0 0-.558.05 4.893 4.893 0 0 1-1.34.127 1.75 1.75 0 0 0-1.001.126.172.172 0 0 0-.043.043 2.319 2.319 0 0 0-.42.842A5.947 5.947 0 0 1 .966 5.56 14.996 14.996 0 0 0 .28 7.195l-.033.094 1.258.636-1.479.125a.943.943 0 0 1-.017.154q-.006.27-.009.534l2.799.936L.3 9.582l.043.287c.05.317.455.64.46.944a6.312 6.312 0 0 1-.335 1.82 1.767 1.767 0 0 0 .488 1.881 2.636 2.636 0 0 1 .55.577 9.228 9.228 0 0 1 .659 1.98 19.337 19.337 0 0 1 .096 2.743c-.004.224-.044.447-.04.67a7.496 7.496 0 0 0 .04 1.123c.03.28.282.565.282.845a3.657 3.657 0 0 1-.605 2.162 3.017 3.017 0 0 0-.539 1.094c-.162.846-.33 1.703-.503 2.58-.088.448.529.663 1.852.738.203.013.392.045.588.058a10.466 10.466 0 0 0 2.245.03 18.73 18.73 0 0 1 1.802-.23c1.096-.048 2.199-.042 3.274-.043.552 0 12.704.126 13.218.202q2.313.36 4.736.624 1.996.163 4.117.22c1.181.03 2.38.062 3.58.068a41.088 41.088 0 0 0 1.969-.067 39.99 39.99 0 0 1 1.658-.084c.943-.007 1.891.009 2.836.046q1.514.075 3.053.082a70.547 70.547 0 0 0 3.084-.055c1.876-.084 3.814-.056 5.73-.059a43.78 43.78 0 0 0 4.41-.189 20.699 20.699 0 0 1 2.327-.151c2.13.024 34.265.076 36.39.154 1.545.056 3.085.164 4.621.268a34.698 34.698 0 0 0 4.787-.112c.577-.05 1.163-.09 1.755-.118 1.433-.054 2.876-.086 4.309-.134a30.18 30.18 0 0 0 1.59-.12c1.044-.094 2.08-.198 3.125-.29a2.903 2.903 0 0 1 .51.022c1.696.177 3.37.386 5.085.526 1.425.105 2.874.177 4.34.21a49.7 49.7 0 0 0 2.701-.034q2.035-.07 4.079-.182c.38-.047 14.75-.102 15.11-.165 1.046-.108 13.76-.218 14.82-.304 1.505-.122 3.03-.211 4.54-.326a7.031 7.031 0 0 0 3.085-.668 1.39 1.39 0 0 1 .478-.073.379.379 0 0 1 .24.115 2.317 2.317 0 0 1 .14.383 1.284 1.284 0 0 0 .996-.12 1.227 1.227 0 0 0 .455-.414c.065-.178.13-.794.172-.974a5.676 5.676 0 0 1-.228-2.417l-2.075.01c.692-.005 1.38-1.01 2.075-.299 1.37-.707-.021-2.615 1.34-3.307a8.176 8.176 0 0 1-1.631-2.278 8.92 8.92 0 0 1-.772-2.644 14.387 14.387 0 0 1-.08-2.924 25.078 25.078 0 0 1 .4-3.007c.188-.992.42-1.96.663-2.878s.499-1.786.734-2.59a.844.844 0 0 0 .168-.251z" fill="#005c37"/><path d="M168.215 22.68a.558.558 0 0 1-.396-.091c-.153-.162.15-.346.4-.413a27.345 27.345 0 0 1 4.917-.85l.779-.06a7.009 7.009 0 0 0-.428-3.769c-1.504-4.98-.636-10.166.238-15.228-4.667-.094-35.004-.186-39.674-.232-1.701.384-3.588.558-4.892 1.433a3.398 3.398 0 0 1-.844.498 3.196 3.196 0 0 1-1.222.058l-1.971-.161c-5.442 4.724-12.463 8.422-19.359 12.02a12.118 12.118 0 0 1-3.644 1.41 13.964 13.964 0 0 1-4.538-.26c-14.513-2.463-58.97-5.11-73.36-7.941-3.483-.685-18.656-1.383-22.192-1.9.036.468.076.935.107 1.402q1.899-.055 3.8-.028a2.965 2.965 0 0 1-1.442 1.866 12.72 12.72 0 0 0-1.78 1c-.146.127-.27.27-.413.399a116.338 116.338 0 0 1-.373 14.582 1.87 1.87 0 0 0 .494 1.781A3.455 3.455 0 0 0 4 28.724a49.639 49.639 0 0 0 7.888.499c.79-.728 13.25-1.453 14.06-2.168a.858.858 0 0 1 .394-.231.876.876 0 0 1 .795.376c.549.657 1.026 1.5 2.046 1.653.26.039.611.09.697.244 6.593-.152 13.192-.149 19.788-.14 8.028.009 46.055.019 54.083.028l4.715.006a6.129 6.129 0 0 0-.896-1.052c-.446-.419-1.001-.863-.943-1.395l2.608 1.035a12.186 12.186 0 0 0 1.515.525c.372.095.76.157 1.12.274a4.104 4.104 0 0 1 1.173.618l1.853.002c11.17.014 48.012.027 59.17.407a17.916 17.916 0 0 0 .402-6.306l-1.785-.34c.011-.006.02-.013.03-.02a80.297 80.297 0 0 0-4.498-.059z" fill="#005b32"/><path d="M4.494 10.434a2.965 2.965 0 0 0 1.442-1.866q-1.9-.028-3.8.028c.07 1.078.539 1.759.579 2.838.142-.13-.147.127 0 0a12.72 12.72 0 0 1 1.779-1zm24.689 18.419c-1.02-.153-1.497-.996-2.046-1.653a.876.876 0 0 0-.795-.376.858.858 0 0 0-.393.231c-.81.715-1.18 1.049-1.97 1.777 1.825-.007 3.23.327 5.049.281.284-.007.568-.01.852-.016-.086-.154-.436-.205-.697-.244zm81.567-.749a12.186 12.186 0 0 1-1.515-.525l-2.608-1.035c-.058.532.497.976.943 1.395a2.88 2.88 0 0 1 .646.68c1.526.002 3.3.376 4.827.377a4.104 4.104 0 0 0-1.173-.618c-.36-.117-.748-.18-1.12-.274zm63.165-6.839c-.261.022-.522.04-.779.061a27.345 27.345 0 0 0-4.918.85c-.25.067-.552.251-.4.413a.558.558 0 0 0 .397.091c1.5-.024 3 0 4.499.06a2.473 2.473 0 0 0 1.2-1.475zM127.127 2.01a39.342 39.342 0 0 1-2.005 1.855l1.97.16a3.196 3.196 0 0 0 1.223-.057 3.398 3.398 0 0 0 .844-.498c1.304-.875 3.191-1.049 4.892-1.433q-3.463-.034-6.924-.027z" fill="#005c37"/><path d="M97.58 17.034a13.964 13.964 0 0 0 4.54.261 12.118 12.118 0 0 0 3.643-1.41c6.896-3.598 13.917-7.296 19.359-12.02l-1.913-.156c-2.952-.24-5.906-.482-8.843-.81a168.13 168.13 0 0 1-3.764-.47 60.495 60.495 0 0 1-6.617.11c-2.31-.132-4.58-.54-6.891-.658-2.968-.153-35.937.171-38.903.338q-.977.055-1.955.088l-.013.012c-.434.474-.172 1.19-.683 1.62a1.802 1.802 0 0 1-1.848.022 3.21 3.21 0 0 1-1.13-1.234l-.22-.355c-2.166.003-4.335-.041-6.504-.096a9.298 9.298 0 0 1-.253.142l-2.422 1.316a4.85 4.85 0 0 1 .852-1.506 130.151 130.151 0 0 0-17.65.338c-3.052.335-17.912.876-20.815.102-1.299-.346-2.98-.877-3.847-.08l-.078.291c.165 1.437.293 2.876.404 4.315 3.536.517 18.709 1.215 22.192 1.9 14.39 2.83 58.847 5.478 73.36 7.94z" fill="#00663a"/><path d="M52.538 2.87c.008 0 .016-.066.024-.053a3.097 3.097 0 0 0 1.13 1.19 1.81 1.81 0 0 0 1.848.045c.39-.329.332-1.183.475-1.183zm-8.5-.64l-.023-.002a4.85 4.85 0 0 0-.852 1.506l2.033-1.105a3.856 3.856 0 0 1-1.158-.4zm67.065.172l-.501.026c1.252.17 2.506.33 3.764.471 2.937.328 5.89.57 8.843.81l1.913.156a39.342 39.342 0 0 0 2.005-1.855c-5.347.014-10.69.121-16.024.392z" fill="#005c37"/></g><g id="disabled"><path d="M175.298 4.537c-.87-1.196.412-2.459-.809-3.25a27.409 27.409 0 0 0-.576-.03c-1.564-.066-3.251-.069-4.958-.158a30.694 30.694 0 0 1-5.044-.6c-.21-.015-.43-.441-.644-.455l-12.323-.04c-.978-.047-15.966.302-16.946.24-1.342-.06-2.668.064-4.004.078s-2.732.212-4.069.309c-1 .072-1.983.2-2.942.28-.697.057-1.38.14-2.06.193-1.014.071-2.02.128-3.002.195-1.487.102-2.949.204-4.397.259-.797.015-1.596.01-2.404.004-1.164-.01-2.34-.03-3.563-.076-.978-.035-1.985-.06-3.02-.1a41.254 41.254 0 0 1-2.73-.109 54.807 54.807 0 0 0-4.794-.189c-.73.023-1.455.026-2.159.01C93.334 1.046 61.874 1 60.3 1.1c-.569.025-1.122.03-1.642.015-.392-.02-.797-.033-1.21-.037q-2.207.068-4.306.142c-1.21.021-2.397.048-3.546.064-.787.011-1.57.028-2.35.055-.874.032-1.731.089-2.595.128a5.91 5.91 0 0 0-.52.022 16.883 16.883 0 0 1-2.221.053q-.942.032-1.868.086c-.725.016-1.46.011-2.196.01l-4.79-.063c-.883.012-1.747.022-2.614.068-.867.047-1.787.125-2.657.184-.718.068-1.46.109-2.21.122-1.615.004-14.89.057-16.468.16a43.392 43.392 0 0 1-4.425.037 3.086 3.086 0 0 0-.558.05 4.893 4.893 0 0 1-1.34.127 1.75 1.75 0 0 0-1.001.126.172.172 0 0 0-.043.043 2.319 2.319 0 0 0-.42.842A5.947 5.947 0 0 1 .966 5.56 14.996 14.996 0 0 0 .28 7.195l-.033.094 1.258.636-1.479.125a.943.943 0 0 1-.017.154q-.006.27-.009.534l2.799.936L.3 9.582l.043.287c.05.317.455.64.46.944a6.312 6.312 0 0 1-.335 1.82 1.767 1.767 0 0 0 .488 1.881 2.636 2.636 0 0 1 .55.577 9.228 9.228 0 0 1 .659 1.98 19.337 19.337 0 0 1 .096 2.743c-.004.224-.044.447-.04.67a7.496 7.496 0 0 0 .04 1.123c.03.28.282.565.282.845a3.657 3.657 0 0 1-.605 2.162 3.017 3.017 0 0 0-.539 1.094c-.162.846-.33 1.703-.503 2.58-.088.448.529.663 1.852.738.203.013.392.045.588.058a10.466 10.466 0 0 0 2.245.03 18.73 18.73 0 0 1 1.802-.23c1.096-.048 2.199-.042 3.274-.043.552 0 12.704.126 13.218.202q2.313.36 4.736.624 1.996.163 4.117.22c1.181.03 2.38.062 3.58.068a41.088 41.088 0 0 0 1.969-.067 39.99 39.99 0 0 1 1.658-.084c.943-.007 1.891.009 2.836.046q1.514.075 3.053.082a70.547 70.547 0 0 0 3.084-.055c1.876-.084 3.814-.056 5.73-.059a43.78 43.78 0 0 0 4.41-.189 20.699 20.699 0 0 1 2.327-.151c2.13.024 34.265.076 36.39.154 1.545.056 3.085.164 4.621.268a34.698 34.698 0 0 0 4.787-.112c.577-.05 1.163-.09 1.755-.118 1.433-.054 2.876-.086 4.309-.134a30.18 30.18 0 0 0 1.59-.12c1.044-.094 2.08-.198 3.125-.29a2.903 2.903 0 0 1 .51.022c1.696.177 3.37.386 5.085.526 1.425.105 2.874.177 4.34.21a49.7 49.7 0 0 0 2.701-.034q2.035-.07 4.079-.182c.38-.047 14.75-.102 15.11-.165 1.046-.108 13.76-.218 14.82-.304 1.505-.122 3.03-.211 4.54-.326a7.031 7.031 0 0 0 3.085-.668 1.39 1.39 0 0 1 .478-.073.379.379 0 0 1 .24.115 2.317 2.317 0 0 1 .14.383 1.284 1.284 0 0 0 .996-.12 1.227 1.227 0 0 0 .455-.414c.065-.178.13-.794.172-.974a5.676 5.676 0 0 1-.228-2.417l-2.075.01c.692-.005 1.38-1.01 2.075-.299 1.37-.707-.021-2.615 1.34-3.307a8.176 8.176 0 0 1-1.631-2.278 8.92 8.92 0 0 1-.772-2.644 14.387 14.387 0 0 1-.08-2.924 25.078 25.078 0 0 1 .4-3.007c.188-.992.42-1.96.663-2.878s.499-1.786.734-2.59a.844.844 0 0 0 .168-.251z" fill="#A9ACAA"/><path d="M168.215 22.68a.558.558 0 0 1-.396-.091c-.153-.162.15-.346.4-.413a27.345 27.345 0 0 1 4.917-.85l.779-.06a7.009 7.009 0 0 0-.428-3.769c-1.504-4.98-.636-10.166.238-15.228-4.667-.094-35.004-.186-39.674-.232-1.701.384-3.588.558-4.892 1.433a3.398 3.398 0 0 1-.844.498 3.196 3.196 0 0 1-1.222.058l-1.971-.161c-5.442 4.724-12.463 8.422-19.359 12.02a12.118 12.118 0 0 1-3.644 1.41 13.964 13.964 0 0 1-4.538-.26c-14.513-2.463-58.97-5.11-73.36-7.941-3.483-.685-18.656-1.383-22.192-1.9.036.468.076.935.107 1.402q1.899-.055 3.8-.028a2.965 2.965 0 0 1-1.442 1.866 12.72 12.72 0 0 0-1.78 1c-.146.127-.27.27-.413.399a116.338 116.338 0 0 1-.373 14.582 1.87 1.87 0 0 0 .494 1.781A3.455 3.455 0 0 0 4 28.724a49.639 49.639 0 0 0 7.888.499c.79-.728 13.25-1.453 14.06-2.168a.858.858 0 0 1 .394-.231.876.876 0 0 1 .795.376c.549.657 1.026 1.5 2.046 1.653.26.039.611.09.697.244 6.593-.152 13.192-.149 19.788-.14 8.028.009 46.055.019 54.083.028l4.715.006a6.129 6.129 0 0 0-.896-1.052c-.446-.419-1.001-.863-.943-1.395l2.608 1.035a12.186 12.186 0 0 0 1.515.525c.372.095.76.157 1.12.274a4.104 4.104 0 0 1 1.173.618l1.853.002c11.17.014 48.012.027 59.17.407a17.916 17.916 0 0 0 .402-6.306l-1.785-.34c.011-.006.02-.013.03-.02a80.297 80.297 0 0 0-4.498-.059z" fill="#AFAFAF"/><path d="M4.494 10.434a2.965 2.965 0 0 0 1.442-1.866q-1.9-.028-3.8.028c.07 1.078.539 1.759.579 2.838.142-.13-.147.127 0 0a12.72 12.72 0 0 1 1.779-1zm24.689 18.419c-1.02-.153-1.497-.996-2.046-1.653a.876.876 0 0 0-.795-.376.858.858 0 0 0-.393.231c-.81.715-1.18 1.049-1.97 1.777 1.825-.007 3.23.327 5.049.281.284-.007.568-.01.852-.016-.086-.154-.436-.205-.697-.244zm81.567-.749a12.186 12.186 0 0 1-1.515-.525l-2.608-1.035c-.058.532.497.976.943 1.395a2.88 2.88 0 0 1 .646.68c1.526.002 3.3.376 4.827.377a4.104 4.104 0 0 0-1.173-.618c-.36-.117-.748-.18-1.12-.274zm63.165-6.839c-.261.022-.522.04-.779.061a27.345 27.345 0 0 0-4.918.85c-.25.067-.552.251-.4.413a.558.558 0 0 0 .397.091c1.5-.024 3 0 4.499.06a2.473 2.473 0 0 0 1.2-1.475zM127.127 2.01a39.342 39.342 0 0 1-2.005 1.855l1.97.16a3.196 3.196 0 0 0 1.223-.057 3.398 3.398 0 0 0 .844-.498c1.304-.875 3.191-1.049 4.892-1.433q-3.463-.034-6.924-.027z" fill="#ffffff" fill-opacity="0.3"/><path d="M97.58 17.034a13.964 13.964 0 0 0 4.54.261 12.118 12.118 0 0 0 3.643-1.41c6.896-3.598 13.917-7.296 19.359-12.02l-1.913-.156c-2.952-.24-5.906-.482-8.843-.81a168.13 168.13 0 0 1-3.764-.47 60.495 60.495 0 0 1-6.617.11c-2.31-.132-4.58-.54-6.891-.658-2.968-.153-35.937.171-38.903.338q-.977.055-1.955.088l-.013.012c-.434.474-.172 1.19-.683 1.62a1.802 1.802 0 0 1-1.848.022 3.21 3.21 0 0 1-1.13-1.234l-.22-.355c-2.166.003-4.335-.041-6.504-.096a9.298 9.298 0 0 1-.253.142l-2.422 1.316a4.85 4.85 0 0 1 .852-1.506 130.151 130.151 0 0 0-17.65.338c-3.052.335-17.912.876-20.815.102-1.299-.346-2.98-.877-3.847-.08l-.078.291c.165 1.437.293 2.876.404 4.315 3.536.517 18.709 1.215 22.192 1.9 14.39 2.83 58.847 5.478 73.36 7.94z" fill="#ffffff" fill-opacity="0.2"/><path d="M52.538 2.87c.008 0 .016-.066.024-.053a3.097 3.097 0 0 0 1.13 1.19 1.81 1.81 0 0 0 1.848.045c.39-.329.332-1.183.475-1.183zm-8.5-.64l-.023-.002a4.85 4.85 0 0 0-.852 1.506l2.033-1.105a3.856 3.856 0 0 1-1.158-.4zm67.065.172l-.501.026c1.252.17 2.506.33 3.764.471 2.937.328 5.89.57 8.843.81l1.913.156a39.342 39.342 0 0 0 2.005-1.855c-5.347.014-10.69.121-16.024.392z" fill="#ffffff" fill-opacity="0.2"/></g></svg>