<svg xmlns="http://www.w3.org/2000/svg" viewBox="0 0 145 38" preserveAspectRatio="none"><defs><style>.g{display:none}.g:target{display:inline}</style></defs><g class="g" id="off"><path fill="#162C33" d="M144.72 26.66a10.36 10.36 0 0 1-3.2-6.22c-.17-1.23-.2-2.46-.1-3.7.09-1.27.26-2.54.52-3.8a68.96 68.96 0 0 1 1.86-6.9c.1-.09.17-.18.23-.28-1.15-1.51.56-3.11-1.08-4.1h-.76c-2.08-.08-4.4-.1-6.62-.2-2.26-.1-4.5-.38-6.68-.83-.28 0-.57-.55-.87-.57h-.87c-1.35-.06-2.66.33-3.97.25-1.79-.08-3.56.08-5.35.1-1.79 0-3.59.27-5.42.38-1.33.1-2.65.26-3.92.36-.94.07-1.85.17-2.76.24l-4 .25c-1.97.12-3.94.25-5.85.32h-3.21c-1.55 0-3.12 0-4.76-.1l-4.03-.12c-1.2 0-2.43 0-3.65-.14a77.15 77.15 0 0 0-6.4-.24H70.9a64.2 64.2 0 0 0-6.07 0h-3.8l-5.74.18-4.73.08-3.13.07c-1.18 0-2.32.12-3.46.16h-.69c-.97.09-1.95.11-2.93.07l-2.49.1h-2.93l-6.38-.07c-1.18 0-2.33 0-3.49.08l-3.54.23c-1.16.07-1.95.14-2.93.15-2.16 0-4.31.07-6.4.2-1.96.09-3.91.09-5.86 0-.25-.01-.5 0-.75.05l-.44.07a4.24 4.24 0 0 0-2.31.13c-.14.02-.26.06-.37.12-.26.33-.45.69-.56 1.06a7.2 7.2 0 0 1-.61 2.98C.94 7.7.64 8.4.39 9.1v.11l1.68.8-2.07.17v.86l3.06.97v.2L.4 12.1v.36c0 .4.61.8.61 1.15a7.61 7.61 0 0 1-.45 2.3c-.31.83-.07 1.72.64 2.38.29.21.54.45.73.72.44.82.77 1.67 1 2.54.13 1.14.17 2.3.13 3.45v2a216.2 216.2 0 0 1-.3 3.75c0 .1-.1.22-.18.32-.35.42-.59.89-.72 1.38-.2 1.07-.4 2.15-.66 3.24-.12.56.7.84 2.48.93l.71.1c.98.1 1.96.1 2.93 0 .35-.05.72-.08 1.09-.12 2.43.2 4.87.28 7.32.26l.3-.25h.13c2.06.3 4.16.56 6.3.78 1.78.14 3.62.23 5.5.28 1.58 0 3.18.08 4.77.08.88 0 1.76 0 2.63-.08.86-.08 1.46-.08 2.2-.1 1.27 0 2.53 0 3.79.05 1.26.06 2.7.1 4.07.1 1.36.02 2.74 0 4.11-.06 2.5-.1 5.09-.07 7.65-.07 1.96 0 3.91-.07 5.86-.24 1.03-.13 2.06-.2 3.1-.2 2.84 0 5.69.1 8.53.2 2.06.06 4.11.2 6.16.33 2.13.1 4.27.05 6.39-.14.78-.06 1.55-.11 2.34-.15l5.74-.17c.72 0 1.47-.08 2.13-.15l4.17-.37c.23-.02.45-.02.68 0 2.27.22 4.5.48 6.78.67 1.9.14 3.83.22 5.86.26h3.6c1.82-.05 3.62-.14 5.43-.23l1.47-.2c1.46-.14 2.8-.28 4.2-.38h.48c4.06.06 8.1.16 12.15.28.11-.43.19-.87.27-1.3.15-.1.27-.22.36-.35.08-.24.17-1 .23-1.24-.12-.26-.2-.53-.23-.8 0-.9.08-1.79 0-2.69 1.8-.9.07-3.22 1.84-4.07z"/><path fill="#072D39" d="M141.18 6.8c-1.12-1.39.52-2.85-1.03-3.77h-.73c-2-.08-4.15-.08-6.33-.18-2.16-.07-4.32-.3-6.43-.7-.27 0-.55-.51-.82-.53h-.83c-1.25 0-2.5.34-3.76.27-1.71-.07-3.4.07-5.1.1-1.7.02-3.49.24-5.2.36-1.28.08-2.54.23-3.76.32-.89.07-1.75.16-2.63.22l-3.83.22c-1.9.12-3.77.24-5.62.3h-3.06c-1.5 0-2.98 0-4.47-.09l-3.86-.11c-1.16.02-2.33-.03-3.48-.13a76.88 76.88 0 0 0-6.13-.22H71.3a63.9 63.9 0 0 0-5.81 0h-3.6l-5.49.16-4.47.07-2.98.07c-1.11 0-2.2.1-3.3.15h-.67c-.92.06-1.84.06-2.76.01l-2.38.1h-2.87l-6.29-.1h-3.35c-1.12 0-2.28.14-3.4.21-1.11.07-1.86.13-2.81.14-2.06 0-4.11.07-6.12.19a60.9 60.9 0 0 1-5.65 0 4.35 4.35 0 0 0-.71 0c-.56.12-1.14.17-1.72.15a2.44 2.44 0 0 0-1.28.15c-.33.34-.56.74-.67 1.16.07.9-.05 1.79-.37 2.65a16.6 16.6 0 0 0-.88 1.9v.1l1.61.74-1.92.16a1 1 0 0 1 0 .18v.61l3.57 1.1-3.23-.15v.34c0 .37.58.74.6 1.1-.04.69-.18 1.38-.43 2.05-.34.8-.09 1.7.67 2.32.27.2.5.42.7.67.37.75.65 1.53.83 2.33.12 1.05.16 2.12.12 3.18v.78c-.04.43-.04.86 0 1.3 0 .32.36.65.36.98.04.88-.23 1.75-.78 2.51a3.4 3.4 0 0 0-.68 1.27l-.64 3c-.12.52.67.76 2.37.85l.74.07c.95.1 1.91.1 2.86 0 .76-.12 1.52-.2 2.3-.26h4.13c.67.03 1.33.1 1.98.23 1.99.28 4 .52 6.05.72 1.7.12 3.45.2 5.26.25 1.49 0 2.98.07 4.57.08.84.02 1.68 0 2.52-.08.7-.06 1.4-.1 2.11-.09H43c1.2 0 2.6.1 3.9.1h3.94c2.4-.1 4.87-.08 7.3-.08 1.89.02 3.77-.06 5.64-.22.99-.1 1.98-.16 2.98-.17 2.72 0 5.45.1 8.16.17 1.97.07 3.93.19 5.96.32 2.03.08 4.08.04 6.1-.13.73 0 1.5-.1 2.24-.14l5.5-.22c.69-.02 1.36-.06 2.03-.14l4-.34h.65c2.16.21 4.3.46 6.5.62 1.81.13 3.66.21 5.53.24h3.46c1.73 0 3.47-.13 5.21-.2l1.5-.2c1.33-.12 2.66-.25 4.01-.34 1.92-.14 3.88-.25 5.8-.38a9.74 9.74 0 0 0 3.94-.78c.2-.06.4-.09.61-.08.13 0 .24.05.32.12l.18.45c.42.1.89.05 1.26-.14.24-.12.44-.29.58-.48.1-.2.17-.92.23-1.16a6.02 6.02 0 0 1-.3-2.81h-2.7c.88 0 1.76-1.16 2.65-.35 1.75-.82 0-3.03 1.72-3.84a9.58 9.58 0 0 1-2.09-2.65 9.66 9.66 0 0 1-.98-3.07c-.16-1.12-.2-2.26-.1-3.39.08-1.17.25-2.33.5-3.48.24-1.16.54-2.33.85-3.35.31-1.02.64-2.08.94-3a.93.93 0 0 0 .16-.28z"/><path fill="#184849" d="M132.14 27.81c-.2.04-.4 0-.57-.1-.19-.19.2-.4.51-.48 2.05-.5 4.15-.83 6.29-.98l1-.07a7.47 7.47 0 0 0-.56-4.38c-1.92-5.8-.8-11.81.3-17.69-5.96-.1-11.91-.22-17.87-.26-2.12.44-4.56.63-6.18 1.66-.32.23-.68.43-1.07.58-.49.1-1 .13-1.5.07l-2.51-.19c-6.94 5.48-15.9 9.78-24.71 13.94a16.43 16.43 0 0 1-4.65 1.63c-1.93.2-3.9.09-5.79-.3a2322.22 2322.22 0 0 1-55.36-9.22c-4.47-.8-8.94-1.6-13.4-2.2 0 .54.1 1.07.13 1.62l4.74.01c-.24.88-.9 1.66-1.85 2.17-.8.34-1.55.73-2.26 1.16-.2.16-.35.32-.53.47.23 5.65.08 11.3-.47 16.93-.2.72.04 1.47.64 2.03.58.35 1.28.56 2 .62 3.33.43 6.7.63 10.08.58 1.01-.85 2.02-1.68 3.05-2.52.13-.13.3-.22.5-.27.42-.08.8.19 1.02.44.7.77 1.31 1.75 2.6 1.92.34-.02.67.09.9.28 8.41-.18 16.84-.18 25.32-.16h36.7a7.5 7.5 0 0 0-1.15-1.17c-.57-.48-1.28-1-1.2-1.62l3.33 1.16c.62.24 1.27.45 1.94.62.47.1.96.18 1.48.3.55.18 1.06.42 1.5.73h2.36c14.26 0 28.52 0 42.78.47.64-2.4.81-4.87.5-7.32l-2.28-.4c-1.86-.06-3.84-.08-5.76-.06z"/><path fill="#2C4851" d="M9.1 13.59c.94-.5 1.6-1.27 1.84-2.14H6.08c.09 1.26.69 2.05.75 3.3.71-.44 1.47-.83 2.27-1.16zm16.63 21.39c-1.3-.17-1.91-1.16-2.61-1.92-.2-.28-.6-.46-1.01-.44-.2.05-.38.14-.51.27-1.03.84-1.49 1.16-2.52 2.07 2.33 0 4.13.38 6.45.32h1.09c-.12-.2-.57-.25-.9-.3zm65.83-.87a16.6 16.6 0 0 1-1.94-.62l-3.34-1.16a2.6 2.6 0 0 0 1.2 1.63c.33.22.61.5.83.79 1.95 0 4.21.44 6.16.44a5.5 5.5 0 0 0-1.48-.72 12.1 12.1 0 0 0-1.43-.36zm47.86-7.94l-1 .06c-2.13.16-4.23.5-6.28 1-.31.07-.7.28-.5.47.14.09.32.13.5.1 1.92 0 3.83 0 5.75.07.77-.4 1.32-1 1.53-1.7zM112.45 3.8c-.82.74-1.67 1.45-2.56 2.16l2.52.19c.5.06 1 .03 1.49-.07.39-.15.75-.35 1.07-.58 1.71-1.03 4.15-1.22 6.33-1.66-2.95-.04-5.9-.05-8.85-.04z"/><path fill="#225F62" d="M74.74 21.25c1.89.39 3.86.5 5.8.3 1.66-.32 3.23-.87 4.64-1.63 8.8-4.18 17.77-8.48 24.7-13.94l-2.43-.18c-3.77-.28-7.54-.56-11.3-.94l-4.79-.56c-2.8.2-5.63.26-8.44.18-2.98-.15-5.86-.62-8.8-.76-3.8-.06-7.6.08-11.37.4l-2.5.1c-.55.54-.22 1.38-.88 1.88-.7.39-1.65.39-2.35 0a3.94 3.94 0 0 1-1.5-1.43l-.28-.4c-2.77 0-5.54 0-8.3-.12l-.26.14-3.11 1.52c.23-.63.6-1.22 1.09-1.76-7.52-.32-15.05-.17-22.54.43-3.9.4-7.97 1.03-11.68.12-1.65-.43-3.8-1.05-4.91-.12l-.1.34c.2 1.67.37 3.35.52 5 4.46.61 8.93 1.41 13.4 2.21 18.4 3.3 36.86 6.37 55.39 9.22z"/><path fill="#184849" d="M55.62 4.63a3.9 3.9 0 0 0 1.49 1.43c.7.4 1.65.4 2.35 0 .5-.38.42-1.44.61-1.44l-4.45.01zm-10.86-.56a5.51 5.51 0 0 0-1.09 1.75l2.52-1.34a5.34 5.34 0 0 1-1.5-.41h.07z"/><path fill="#2C4851" d="M92 4.26h-.64c1.6.2 3.2.39 4.81.55 3.76.38 7.45.66 11.3.94l2.43.19 2.57-2.16c-6.84.04-13.66.17-20.47.48z"/></g><g class="g" id="hover"><path fill="#162C33" d="M144.72 26.66a10.36 10.36 0 0 1-3.2-6.22c-.17-1.23-.2-2.46-.1-3.7.09-1.27.26-2.54.52-3.8a68.96 68.96 0 0 1 1.86-6.9c.1-.09.17-.18.23-.28-1.15-1.51.56-3.11-1.08-4.1h-.76c-2.08-.08-4.4-.1-6.62-.2-2.26-.1-4.5-.38-6.68-.83-.28 0-.57-.55-.87-.57h-.87c-1.35-.06-2.66.33-3.97.25-1.79-.08-3.56.08-5.35.1-1.79 0-3.59.27-5.42.38-1.33.1-2.65.26-3.92.36-.94.07-1.85.17-2.76.24l-4 .25c-1.97.12-3.94.25-5.85.32h-3.21c-1.55 0-3.12 0-4.76-.1l-4.03-.12c-1.2 0-2.43 0-3.65-.14a77.15 77.15 0 0 0-6.4-.24H70.9a64.2 64.2 0 0 0-6.07 0h-3.8l-5.74.18-4.73.08-3.13.07c-1.18 0-2.32.12-3.46.16h-.69c-.97.09-1.95.11-2.93.07l-2.49.1h-2.93l-6.38-.07c-1.18 0-2.33 0-3.49.08l-3.54.23c-1.16.07-1.95.14-2.93.15-2.16 0-4.31.07-6.4.2-1.96.09-3.91.09-5.86 0-.25-.01-.5 0-.75.05l-.44.07a4.24 4.24 0 0 0-2.31.13c-.14.02-.26.06-.37.12-.26.33-.45.69-.56 1.06a7.2 7.2 0 0 1-.61 2.98C.94 7.7.64 8.4.39 9.1v.11l1.68.8-2.07.17v.86l3.06.97v.2L.4 12.1v.36c0 .4.61.8.61 1.15a7.61 7.61 0 0 1-.45 2.3c-.31.83-.07 1.72.64 2.38.29.21.54.45.73.72.44.82.77 1.67 1 2.54.13 1.14.17 2.3.13 3.45v2a216.2 216.2 0 0 1-.3 3.75c0 .1-.1.22-.18.32-.35.42-.59.89-.72 1.38-.2 1.07-.4 2.15-.66 3.24-.12.56.7.84 2.48.93l.71.1c.98.1 1.96.1 2.93 0 .35-.05.72-.08 1.09-.12 2.43.2 4.87.28 7.32.26l.3-.25h.13c2.06.3 4.16.56 6.3.78 1.78.14 3.62.23 5.5.28 1.58 0 3.18.08 4.77.08.88 0 1.76 0 2.63-.08.86-.08 1.46-.08 2.2-.1 1.27 0 2.53 0 3.79.05 1.26.06 2.7.1 4.07.1 1.36.02 2.74 0 4.11-.06 2.5-.1 5.09-.07 7.65-.07 1.96 0 3.91-.07 5.86-.24 1.03-.13 2.06-.2 3.1-.2 2.84 0 5.69.1 8.53.2 2.06.06 4.11.2 6.16.33 2.13.1 4.27.05 6.39-.14.78-.06 1.55-.11 2.34-.15l5.74-.17c.72 0 1.47-.08 2.13-.15l4.17-.37c.23-.02.45-.02.68 0 2.27.22 4.5.48 6.78.67 1.9.14 3.83.22 5.86.26h3.6c1.82-.05 3.62-.14 5.43-.23l1.47-.2c1.46-.14 2.8-.28 4.2-.38h.48c4.06.06 8.1.16 12.15.28.11-.43.19-.87.27-1.3.15-.1.27-.22.36-.35.08-.24.17-1 .23-1.24-.12-.26-.2-.53-.23-.8 0-.9.08-1.79 0-2.69 1.8-.9.07-3.22 1.84-4.07z"/><path fill="#072D39" d="M141.18 6.8c-1.12-1.39.52-2.85-1.03-3.77h-.73c-2-.08-4.15-.08-6.33-.18-2.16-.07-4.32-.3-6.43-.7-.27 0-.55-.51-.82-.53h-.83c-1.25 0-2.5.34-3.76.27-1.71-.07-3.4.07-5.1.1-1.7.02-3.49.24-5.2.36-1.28.08-2.54.23-3.76.32-.89.07-1.75.16-2.63.22l-3.83.22c-1.9.12-3.77.24-5.62.3h-3.06c-1.5 0-2.98 0-4.47-.09l-3.86-.11c-1.16.02-2.33-.03-3.48-.13a76.88 76.88 0 0 0-6.13-.22H71.3a63.9 63.9 0 0 0-5.81 0h-3.6l-5.49.16-4.47.07-2.98.07c-1.11 0-2.2.1-3.3.15h-.67c-.92.06-1.84.06-2.76.01l-2.38.1h-2.87l-6.29-.1h-3.35c-1.12 0-2.28.14-3.4.21-1.11.07-1.86.13-2.81.14-2.06 0-4.11.07-6.12.19a60.9 60.9 0 0 1-5.65 0 4.35 4.35 0 0 0-.71 0c-.56.12-1.14.17-1.72.15a2.44 2.44 0 0 0-1.28.15c-.33.34-.56.74-.67 1.16.07.9-.05 1.79-.37 2.65a16.6 16.6 0 0 0-.88 1.9v.1l1.61.74-1.92.16a1 1 0 0 1 0 .18v.61l3.57 1.1-3.23-.15v.34c0 .37.58.74.6 1.1-.04.69-.18 1.38-.43 2.05-.34.8-.09 1.7.67 2.32.27.2.5.42.7.67.37.75.65 1.53.83 2.33.12 1.05.16 2.12.12 3.18v.78c-.04.43-.04.86 0 1.3 0 .32.36.65.36.98.04.88-.23 1.75-.78 2.51a3.4 3.4 0 0 0-.68 1.27l-.64 3c-.12.52.67.76 2.37.85l.74.07c.95.1 1.91.1 2.86 0 .76-.12 1.52-.2 2.3-.26h4.13c.67.03 1.33.1 1.98.23 1.99.28 4 .52 6.05.72 1.7.12 3.45.2 5.26.25 1.49 0 2.98.07 4.57.08.84.02 1.68 0 2.52-.08.7-.06 1.4-.1 2.11-.09H43c1.2 0 2.6.1 3.9.1h3.94c2.4-.1 4.87-.08 7.3-.08 1.89.02 3.77-.06 5.64-.22.99-.1 1.98-.16 2.98-.17 2.72 0 5.45.1 8.16.17 1.97.07 3.93.19 5.96.32 2.03.08 4.08.04 6.1-.13.73 0 1.5-.1 2.24-.14l5.5-.22c.69-.02 1.36-.06 2.03-.14l4-.34h.65c2.16.21 4.3.46 6.5.62 1.81.13 3.66.21 5.53.24h3.46c1.73 0 3.47-.13 5.21-.2l1.5-.2c1.33-.12 2.66-.25 4.01-.34 1.92-.14 3.88-.25 5.8-.38a9.74 9.74 0 0 0 3.94-.78c.2-.06.4-.09.61-.08.13 0 .24.05.32.12l.18.45c.42.1.89.05 1.26-.14.24-.12.44-.29.58-.48.1-.2.17-.92.23-1.16a6.02 6.02 0 0 1-.3-2.81h-2.7c.88 0 1.76-1.16 2.65-.35 1.75-.82 0-3.03 1.72-3.84a9.58 9.58 0 0 1-2.09-2.65 9.66 9.66 0 0 1-.98-3.07c-.16-1.12-.2-2.26-.1-3.39.08-1.17.25-2.33.5-3.48.24-1.16.54-2.33.85-3.35.31-1.02.64-2.08.94-3a.93.93 0 0 0 .16-.28z"/><path fill="#0C3534" d="M132.14 27.81c-.2.04-.4 0-.57-.1-.19-.19.2-.4.51-.48 2.05-.5 4.15-.83 6.29-.98l1-.07a7.47 7.47 0 0 0-.56-4.38c-1.92-5.8-.8-11.81.3-17.69-5.96-.1-11.91-.22-17.87-.26-2.12.44-4.56.63-6.18 1.66-.32.23-.68.43-1.07.58-.49.1-1 .13-1.5.07l-2.51-.19c-6.94 5.48-15.9 9.78-24.71 13.94a16.43 16.43 0 0 1-4.65 1.63c-1.93.2-3.9.09-5.79-.3a2322.22 2322.22 0 0 1-55.36-9.22c-4.47-.8-8.94-1.6-13.4-2.2 0 .54.1 1.07.13 1.62l4.74.01c-.24.88-.9 1.66-1.85 2.17-.8.34-1.55.73-2.26 1.16-.2.16-.35.32-.53.47.23 5.65.08 11.3-.47 16.93-.2.72.04 1.47.64 2.03.58.35 1.28.56 2 .62 3.33.43 6.7.63 10.08.58 1.01-.85 2.02-1.68 3.05-2.52.13-.13.3-.22.5-.27.42-.08.8.19 1.02.44.7.77 1.31 1.75 2.6 1.92.34-.02.67.09.9.28 8.41-.18 16.84-.18 25.32-.16h36.7a7.5 7.5 0 0 0-1.15-1.17c-.57-.48-1.28-1-1.2-1.62l3.33 1.16c.62.24 1.27.45 1.94.62.47.1.96.18 1.48.3.55.18 1.06.42 1.5.73h2.36c14.26 0 28.52 0 42.78.47.64-2.4.81-4.87.5-7.32l-2.28-.4c-1.86-.06-3.84-.08-5.76-.06z"/><path fill="#124444" d="M9.1 13.59c.94-.5 1.6-1.27 1.84-2.14H6.08c.09 1.26.69 2.05.75 3.3.71-.44 1.47-.83 2.27-1.16zm16.63 21.39c-1.3-.17-1.91-1.16-2.61-1.92-.2-.28-.6-.46-1.01-.44-.2.05-.38.14-.51.27-1.03.84-1.49 1.16-2.52 2.07 2.33 0 4.13.38 6.45.32h1.09c-.12-.2-.57-.25-.9-.3zm65.83-.87a16.6 16.6 0 0 1-1.94-.62l-3.34-1.16a2.6 2.6 0 0 0 1.2 1.63c.33.22.61.5.83.79 1.95 0 4.21.44 6.16.44a5.5 5.5 0 0 0-1.48-.72 12.1 12.1 0 0 0-1.43-.36zm47.86-7.94l-1 .06c-2.13.16-4.23.5-6.28 1-.31.07-.7.28-.5.47.14.09.32.13.5.1 1.92 0 3.83 0 5.75.07.77-.4 1.32-1 1.53-1.7zM112.45 3.8c-.82.74-1.67 1.45-2.56 2.16l2.52.19c.5.06 1 .03 1.49-.07.39-.15.75-.35 1.07-.58 1.71-1.03 4.15-1.22 6.33-1.66-2.95-.04-5.9-.05-8.85-.04zM74.74 21.25c1.89.39 3.86.5 5.8.3 1.66-.32 3.23-.87 4.64-1.63 8.8-4.18 17.77-8.48 24.7-13.94l-2.43-.18c-3.77-.28-7.54-.56-11.3-.94l-4.79-.56c-2.8.2-5.63.26-8.44.18-2.98-.15-5.86-.62-8.8-.76-3.8-.06-7.6.08-11.37.4l-2.5.1c-.55.54-.22 1.38-.88 1.88-.7.39-1.65.39-2.35 0a3.94 3.94 0 0 1-1.5-1.43l-.28-.4c-2.77 0-5.54 0-8.3-.12l-.26.14-3.11 1.52c.23-.63.6-1.22 1.09-1.76-7.52-.32-15.05-.17-22.54.43-3.9.4-7.97 1.03-11.68.12-1.65-.43-3.8-1.05-4.91-.12l-.1.34c.2 1.67.37 3.35.52 5 4.46.61 8.93 1.41 13.4 2.21 18.4 3.3 36.86 6.37 55.39 9.22z"/><path fill="#0C3534" d="M55.62 4.63a3.9 3.9 0 0 0 1.49 1.43c.7.4 1.65.4 2.35 0 .5-.38.42-1.44.61-1.44l-4.45.01zm-10.86-.56a5.51 5.51 0 0 0-1.09 1.75l2.52-1.34a5.34 5.34 0 0 1-1.5-.41h.07z"/><path fill="#124444" d="M92 4.26h-.64c1.6.2 3.2.39 4.81.55 3.76.38 7.45.66 11.3.94l2.43.19 2.57-2.16c-6.84.04-13.66.17-20.47.48z"/></g></svg>