<svg id="svg" version="1.1" xmlns="http://www.w3.org/2000/svg" xmlns:xlink="http://www.w3.org/1999/xlink" width="400" height="579.0605546123372" viewBox="0, 0, 400,579.0605546123372"><g id="svgg"><path id="path0" d="M17.004 112.311 L 16.295 113.096 17.079 112.387 C 17.511 111.997,17.864 111.644,17.864 111.602 C 17.864 111.416,17.664 111.580,17.004 112.311 M382.378 112.327 C 382.378 112.368,382.731 112.721,383.162 113.111 L 383.947 113.820 383.238 113.036 C 382.577 112.304,382.378 112.140,382.378 112.327 M182.682 114.112 C 182.983 114.169,183.417 114.167,183.648 114.107 C 183.879 114.046,183.633 113.999,183.102 114.002 C 182.571 114.004,182.382 114.054,182.682 114.112 M278.332 253.546 C 278.265 253.617,277.070 253.733,275.677 253.804 C 271.199 254.031,268.995 254.259,264.937 254.919 C 256.802 256.241,251.303 257.502,245.504 259.375 C 243.712 259.954,241.865 260.506,241.400 260.601 C 240.935 260.696,240.284 260.876,239.952 261.001 C 239.620 261.126,239.348 261.203,239.348 261.171 C 239.348 261.139,239.097 261.248,238.789 261.412 C 238.482 261.577,238.048 261.749,237.824 261.795 C 237.600 261.841,236.385 262.277,235.124 262.765 C 233.862 263.252,231.867 263.968,230.690 264.356 C 229.512 264.744,228.209 265.208,227.793 265.386 C 226.640 265.880,223.399 267.140,221.243 267.931 C 217.797 269.197,216.030 269.884,214.925 270.387 C 214.329 270.659,212.737 271.265,211.387 271.734 C 210.036 272.203,208.443 272.814,207.846 273.092 C 207.248 273.369,206.651 273.617,206.518 273.643 C 206.385 273.668,205.407 274.019,204.345 274.422 C 196.490 277.403,183.235 281.837,179.360 282.780 C 178.497 282.990,177.628 283.205,177.428 283.257 C 175.349 283.806,174.852 283.969,174.587 284.186 C 174.418 284.325,174.218 284.377,174.143 284.302 C 174.022 284.181,172.081 284.649,171.153 285.024 C 170.954 285.104,170.726 285.158,170.646 285.144 C 170.567 285.130,169.915 285.280,169.198 285.479 C 167.765 285.875,167.491 285.932,165.721 286.198 C 165.057 286.298,164.406 286.406,164.273 286.438 C 163.714 286.572,162.526 286.798,161.738 286.919 C 161.273 286.990,160.730 287.104,160.531 287.173 C 160.332 287.241,159.735 287.354,159.204 287.424 C 158.672 287.493,157.803 287.652,157.272 287.776 C 156.741 287.900,155.926 288.048,155.462 288.105 C 154.997 288.162,153.476 288.385,152.082 288.601 C 149.462 289.006,149.091 289.053,145.444 289.432 C 138.025 290.205,123.622 290.377,113.699 289.813 C 110.251 289.617,102.685 288.707,98.390 287.972 C 96.786 287.697,95.201 287.437,94.868 287.394 C 94.535 287.351,93.790 287.189,93.214 287.034 C 92.638 286.879,92.106 286.812,92.032 286.886 C 91.958 286.960,91.777 286.921,91.630 286.799 C 91.483 286.677,90.930 286.520,90.401 286.451 C 88.942 286.261,86.673 285.853,86.156 285.690 C 85.564 285.502,85.427 283.683,87.498 303.483 C 88.489 312.952,90.123 328.630,91.130 338.322 C 92.137 348.014,93.765 363.657,94.749 373.084 C 97.589 400.304,103.342 455.605,103.689 459.022 C 103.756 459.686,104.304 464.900,104.905 470.610 C 105.507 476.319,106.428 485.172,106.954 490.284 C 108.322 503.604,109.085 508.530,110.786 515.040 C 116.078 535.287,130.308 545.699,156.307 548.345 C 163.792 549.107,224.313 549.624,232.106 548.993 C 260.302 546.708,274.672 542.176,282.526 533.092 C 289.299 525.258,291.228 518.272,292.815 495.836 C 293.092 491.919,293.856 483.609,294.513 477.369 C 295.170 471.129,296.145 461.678,296.679 456.367 C 297.214 451.056,298.082 442.637,298.607 437.658 C 299.133 432.680,299.948 424.750,300.420 420.036 C 300.892 415.323,301.599 408.425,301.992 404.707 C 302.385 400.990,303.253 392.517,303.922 385.878 C 304.590 379.240,305.460 370.766,305.854 367.049 C 306.249 363.331,306.956 356.379,307.426 351.599 C 307.897 346.820,308.662 339.324,309.127 334.943 C 309.591 330.561,310.405 322.631,310.935 317.320 C 311.465 312.010,312.328 303.591,312.853 298.612 C 313.378 293.633,314.300 284.671,314.902 278.696 C 315.504 272.722,316.204 265.878,316.459 263.488 C 316.934 259.024,316.922 258.858,316.108 258.704 C 315.846 258.654,315.319 258.486,314.937 258.330 C 314.556 258.174,313.958 258.013,313.609 257.973 C 313.261 257.932,312.694 257.781,312.350 257.636 C 311.792 257.402,311.325 257.293,309.596 256.990 C 309.330 256.944,308.298 256.725,307.302 256.503 C 301.871 255.296,295.670 254.282,292.336 254.056 C 291.340 253.988,289.765 253.876,288.835 253.805 C 286.032 253.594,278.464 253.407,278.332 253.546 " stroke="none" fill="#fbfbfb" fill-rule="evenodd"></path><path id="path1" d="M171.394 0.067 C 171.328 0.126,169.209 0.243,166.687 0.327 C 164.164 0.411,160.416 0.586,158.358 0.717 C 156.301 0.848,153.639 1.018,152.444 1.095 C 148.231 1.365,138.845 2.183,131.925 2.883 C 128.075 3.273,124.036 3.653,122.951 3.728 C 119.547 3.963,110.347 5.219,104.285 6.277 C 102.758 6.543,100.422 6.929,99.095 7.135 C 95.449 7.698,93.506 8.119,88.352 9.459 C 85.763 10.133,82.939 10.839,82.076 11.028 C 80.743 11.321,77.885 12.251,71.817 14.369 C 53.906 20.619,44.989 28.837,43.548 40.424 C 42.830 46.196,44.121 52.231,46.743 55.359 C 47.057 55.735,47.314 56.179,47.314 56.347 C 47.314 56.790,51.592 61.388,52.854 62.301 C 53.444 62.728,54.482 63.529,55.160 64.081 C 56.749 65.376,63.705 69.140,65.419 69.632 C 65.751 69.728,67.381 70.354,69.040 71.023 C 73.728 72.914,74.173 73.080,75.075 73.271 C 75.540 73.369,77.215 73.870,78.797 74.384 C 82.224 75.497,86.531 76.629,89.197 77.118 C 90.260 77.312,92.649 77.804,94.508 78.211 C 99.115 79.218,103.536 80.067,105.854 80.388 C 106.916 80.536,109.469 80.917,111.527 81.237 C 121.875 82.842,131.231 83.905,141.219 84.611 C 144.339 84.831,148.141 85.103,149.668 85.215 C 151.195 85.327,153.748 85.485,155.341 85.565 C 156.934 85.646,158.835 85.760,159.565 85.820 C 160.296 85.879,162.631 85.987,164.756 86.061 C 166.880 86.134,169.433 86.250,170.428 86.318 C 183.310 87.198,217.258 86.676,234.037 85.340 C 234.834 85.277,238.419 85.007,242.004 84.740 C 245.588 84.474,249.934 84.140,251.660 83.997 C 255.037 83.719,266.858 82.286,270.610 81.700 C 271.871 81.503,274.206 81.175,275.800 80.970 C 279.667 80.475,280.883 80.203,282.317 79.514 C 283.552 78.921,287.266 75.952,287.266 75.558 C 287.266 75.438,287.740 74.656,288.319 73.820 C 292.160 68.275,292.012 59.764,287.990 54.871 C 287.526 54.306,286.901 53.525,286.602 53.135 C 283.517 49.116,276.560 47.525,267.954 48.870 C 260.814 49.985,248.760 51.316,243.814 51.535 C 242.022 51.615,240.229 51.724,239.831 51.779 C 224.705 53.848,178.999 54.026,151.479 52.123 C 147.628 51.856,142.849 51.538,140.857 51.414 C 134.376 51.013,124.649 49.864,116.234 48.505 C 114.508 48.226,112.281 47.906,111.285 47.793 C 109.548 47.597,101.998 46.124,100.237 45.638 C 98.910 45.271,98.248 44.507,98.258 43.350 C 98.272 41.468,99.210 40.880,103.078 40.329 C 103.941 40.205,106.982 39.671,109.837 39.141 C 117.231 37.768,121.273 37.159,125.407 36.796 C 126.204 36.726,128.268 36.508,129.994 36.312 C 131.720 36.116,133.621 35.907,134.218 35.846 C 134.816 35.786,135.848 35.681,136.512 35.613 C 139.345 35.323,145.945 34.757,149.185 34.526 C 151.110 34.389,153.392 34.223,154.255 34.159 C 182.762 32.017,229.869 32.974,255.401 36.213 C 256.397 36.340,258.570 36.551,260.229 36.684 C 264.066 36.989,271.469 38.205,283.887 40.569 C 297.088 43.081,302.855 44.773,305.753 46.984 C 306.166 47.298,306.579 47.556,306.672 47.556 C 306.970 47.556,308.777 49.335,309.490 50.332 C 311.579 53.249,312.396 55.446,313.710 61.678 C 314.186 63.935,315.003 67.617,315.526 69.861 C 316.048 72.105,316.476 74.173,316.476 74.457 C 316.476 74.742,317.230 78.283,318.151 82.327 C 319.073 86.371,319.948 90.441,320.096 91.370 C 320.244 92.299,320.517 93.712,320.703 94.508 C 322.501 102.200,322.471 102.991,320.288 105.390 C 319.209 106.576,319.015 106.613,304.647 108.378 C 300.332 108.908,295.926 109.454,294.856 109.592 C 293.786 109.730,291.179 109.949,289.062 110.079 C 286.946 110.209,284.834 110.372,284.369 110.441 C 283.647 110.549,281.398 110.751,270.972 111.647 C 268.694 111.843,263.687 112.223,261.436 112.371 C 260.308 112.446,258.841 112.555,258.177 112.614 C 257.514 112.673,255.775 112.788,254.315 112.869 C 252.855 112.951,249.215 113.155,246.228 113.323 C 243.241 113.490,238.678 113.653,236.089 113.683 C 233.500 113.713,228.666 113.826,225.347 113.932 C 216.309 114.223,188.343 114.231,176.826 113.946 C 156.072 113.433,145.984 112.851,122.631 110.816 C 118.183 110.428,113.621 110.046,112.492 109.967 C 109.641 109.768,99.237 108.548,90.887 107.435 C 87.037 106.922,83.126 106.438,82.197 106.359 C 81.267 106.280,78.008 105.792,74.955 105.273 C 59.842 102.708,52.231 101.475,49.493 101.149 C 42.291 100.291,33.257 101.775,27.731 104.722 C 24.340 106.531,23.591 106.963,22.601 107.678 C 12.242 115.160,7.748 123.299,4.477 140.495 C 3.518 145.535,2.539 150.296,1.422 155.341 C -1.558 168.809,0.072 180.867,6.136 190.223 C 6.695 191.086,7.322 192.064,7.528 192.396 C 8.823 194.481,15.750 201.569,16.492 201.569 C 16.624 201.569,17.286 201.989,17.962 202.502 C 19.394 203.588,22.479 205.432,22.864 205.432 C 23.010 205.432,23.818 205.740,24.661 206.117 C 28.000 207.612,31.533 208.600,35.124 209.043 C 36.053 209.158,38.334 209.540,40.193 209.891 C 45.931 210.976,54.815 212.444,56.970 212.662 C 58.099 212.776,61.901 213.310,65.419 213.847 C 68.938 214.384,73.446 215.050,75.438 215.327 C 77.429 215.603,79.414 215.879,79.848 215.941 C 80.282 216.002,81.905 216.163,83.455 216.299 C 85.006 216.435,86.986 216.649,87.856 216.774 C 88.727 216.900,91.394 217.230,93.784 217.509 C 96.174 217.788,99.324 218.162,100.785 218.341 C 104.300 218.771,115.691 219.808,122.028 220.275 C 124.816 220.481,129.053 220.806,131.442 220.997 C 133.832 221.189,138.286 221.511,141.340 221.712 C 144.393 221.914,147.761 222.137,148.823 222.207 C 152.301 222.439,159.840 222.796,164.393 222.945 C 166.850 223.026,168.990 223.132,169.151 223.182 C 169.620 223.327,192.226 223.657,201.690 223.657 C 219.736 223.657,241.818 223.043,254.074 222.199 C 255.003 222.135,257.610 221.971,259.867 221.835 C 262.124 221.698,267.339 221.324,271.454 221.003 C 275.570 220.683,280.567 220.301,282.559 220.156 C 286.791 219.846,300.412 218.542,303.561 218.145 C 304.756 217.995,306.881 217.870,308.283 217.867 L 310.833 217.864 313.132 218.997 C 316.488 220.653,318.447 223.029,319.399 226.601 L 319.926 228.579 319.150 235.654 C 317.028 255.012,316.700 258.220,316.795 258.738 C 316.852 259.046,316.695 261.219,316.447 263.566 C 316.199 265.913,315.504 272.722,314.902 278.696 C 314.300 284.671,313.378 293.633,312.853 298.612 C 312.328 303.591,311.465 312.010,310.935 317.320 C 310.405 322.631,309.591 330.561,309.127 334.943 C 308.662 339.324,307.897 346.820,307.426 351.599 C 306.956 356.379,306.249 363.331,305.854 367.049 C 305.460 370.766,304.590 379.240,303.922 385.878 C 303.253 392.517,302.385 400.990,301.992 404.707 C 301.599 408.425,300.892 415.323,300.420 420.036 C 299.948 424.750,299.133 432.680,298.607 437.658 C 298.082 442.637,297.214 451.056,296.679 456.367 C 296.145 461.678,295.170 471.129,294.513 477.369 C 293.856 483.609,293.092 491.919,292.815 495.836 C 291.228 518.272,289.299 525.258,282.526 533.092 C 274.672 542.176,260.302 546.708,232.106 548.993 C 224.313 549.624,163.792 549.107,156.307 548.345 C 130.308 545.699,116.078 535.287,110.786 515.040 C 109.085 508.530,108.322 503.604,106.954 490.284 C 106.428 485.172,105.507 476.319,104.905 470.610 C 104.304 464.900,103.756 459.686,103.689 459.022 C 103.342 455.605,97.589 400.304,94.749 373.084 C 88.530 313.479,85.749 286.362,85.737 285.214 C 85.732 284.683,85.496 282.185,85.214 279.662 C 84.933 277.139,84.607 274.206,84.490 273.144 C 84.374 272.082,84.165 270.234,84.027 269.038 C 83.888 267.842,83.666 265.397,83.535 263.606 C 83.403 261.815,83.135 258.884,82.940 257.091 C 82.744 255.299,82.415 252.257,82.207 250.332 C 81.777 246.348,81.297 244.038,80.503 242.124 C 80.201 241.394,79.815 240.431,79.646 239.984 C 78.939 238.112,76.220 235.031,73.863 233.430 C 65.561 227.793,52.123 233.037,49.151 243.073 C 48.571 245.031,48.654 246.842,49.833 257.936 C 50.426 263.512,51.075 269.813,51.277 271.937 C 51.478 274.062,52.297 281.937,53.097 289.439 C 53.897 296.940,54.832 305.902,55.176 309.354 C 55.520 312.806,55.843 315.957,55.895 316.355 C 56.196 318.663,58.185 337.641,58.412 340.374 C 58.561 342.167,59.373 349.988,60.217 357.755 C 61.060 365.522,61.869 373.289,62.014 375.015 C 62.159 376.741,62.977 384.617,63.831 392.517 C 64.685 400.416,65.500 408.238,65.642 409.897 C 65.784 411.557,66.599 419.378,67.454 427.278 C 68.308 435.178,69.131 443.108,69.281 444.900 C 69.431 446.693,69.761 449.952,70.013 452.142 C 70.266 454.333,70.749 458.733,71.087 461.919 C 71.425 465.106,71.806 468.582,71.934 469.644 C 72.376 473.315,72.636 475.928,72.764 477.972 C 72.907 480.272,73.446 485.464,74.829 497.888 C 75.347 502.535,75.883 507.586,76.020 509.113 C 76.843 518.260,77.108 520.683,77.628 523.798 C 77.946 525.701,78.547 528.416,78.965 529.833 C 79.383 531.249,79.860 532.951,80.027 533.615 C 80.706 536.323,83.820 542.872,85.837 545.834 C 86.550 546.882,87.290 548.037,87.481 548.402 C 87.672 548.766,88.028 549.282,88.272 549.547 C 88.516 549.813,89.298 550.736,90.009 551.599 C 91.210 553.056,94.933 556.964,95.644 557.514 C 95.816 557.646,96.705 558.406,97.619 559.201 C 98.533 559.997,99.793 560.975,100.419 561.374 C 101.045 561.773,102.071 562.480,102.699 562.945 C 103.326 563.410,104.347 564.074,104.967 564.421 C 105.588 564.768,107.290 565.722,108.751 566.541 C 110.211 567.359,111.671 568.097,111.994 568.180 C 112.317 568.263,113.610 568.811,114.866 569.398 C 117.118 570.451,120.729 571.808,121.907 572.046 C 122.239 572.113,123.380 572.435,124.442 572.763 C 127.656 573.754,132.735 574.936,135.546 575.346 C 149.223 577.341,160.550 578.361,175.256 578.919 C 183.936 579.249,232.198 579.359,237.417 579.060 C 244.294 578.667,253.084 577.620,259.022 576.487 C 259.620 576.373,260.923 576.149,261.919 575.989 C 266.952 575.183,276.957 572.040,281.657 569.789 C 283.177 569.061,284.708 568.358,285.059 568.227 C 286.042 567.859,290.337 565.369,290.659 564.981 C 290.817 564.790,291.059 564.635,291.197 564.635 C 291.509 564.635,293.405 563.432,295.474 561.921 C 301.000 557.884,306.631 552.436,309.849 548.013 C 310.408 547.246,311.140 546.321,311.476 545.959 C 311.811 545.597,312.276 544.898,312.508 544.406 C 312.739 543.915,313.171 543.186,313.466 542.788 C 314.280 541.691,316.198 538.449,316.490 537.677 C 316.632 537.302,317.107 536.288,317.544 535.425 C 320.001 530.583,322.874 520.946,323.482 515.510 C 323.615 514.315,323.883 511.762,324.076 509.837 C 324.428 506.334,326.288 488.979,326.482 487.387 C 326.538 486.922,326.759 484.587,326.973 482.197 C 327.442 476.938,328.079 470.656,329.042 461.798 C 329.439 458.147,329.925 453.585,330.123 451.660 C 330.321 449.734,330.529 447.833,330.586 447.435 C 330.643 447.037,330.755 445.733,330.836 444.538 C 331.019 441.807,331.386 437.876,331.692 435.365 C 331.821 434.303,332.256 430.338,332.658 426.554 C 333.288 420.628,333.603 417.708,334.221 412.070 C 334.286 411.473,334.445 409.554,334.574 407.806 C 334.702 406.059,335.516 398.129,336.382 390.184 C 337.248 382.239,338.061 374.273,338.190 372.480 C 338.318 370.688,338.812 365.691,339.288 361.376 C 339.764 357.061,340.422 350.978,340.750 347.858 C 341.078 344.737,341.394 341.859,341.453 341.460 C 341.512 341.062,341.627 339.704,341.709 338.443 C 341.836 336.499,342.747 327.648,344.119 315.027 C 344.300 313.368,344.679 309.565,344.963 306.578 C 345.820 297.543,347.659 279.893,348.459 273.024 C 348.652 271.364,348.925 268.322,349.064 266.264 C 349.204 264.206,349.372 262.197,349.437 261.798 C 349.502 261.400,350.152 255.534,350.880 248.763 C 351.608 241.992,352.257 236.017,352.321 235.486 C 352.386 234.955,352.547 232.999,352.679 231.141 C 353.707 216.703,355.054 213.405,360.994 210.785 C 361.837 210.413,367.476 209.053,368.174 209.053 C 368.727 209.053,373.717 207.421,375.377 206.697 C 378.238 205.450,378.964 205.115,380.084 204.526 C 380.748 204.177,382.025 203.369,382.922 202.730 C 383.818 202.092,384.643 201.569,384.755 201.569 C 385.393 201.569,391.900 194.641,392.893 192.904 C 393.167 192.425,393.855 191.355,394.424 190.525 C 399.996 182.382,401.566 168.357,398.442 154.617 C 397.223 149.254,396.450 145.439,396.266 143.874 C 395.893 140.698,393.563 131.468,392.124 127.459 C 391.569 125.915,388.480 119.784,387.722 118.723 C 387.372 118.234,386.605 117.154,386.019 116.323 C 384.900 114.740,380.307 110.080,379.861 110.076 C 379.718 110.075,379.113 109.685,378.515 109.210 C 376.124 107.308,372.556 105.750,365.842 103.677 C 360.489 102.024,359.282 101.410,357.031 99.195 C 355.027 97.223,353.018 93.001,352.502 89.680 C 352.378 88.884,351.564 84.158,350.691 79.179 C 349.819 74.200,348.925 68.932,348.705 67.471 C 348.484 66.011,347.925 62.752,347.463 60.229 C 345.857 51.462,345.697 50.551,345.447 48.757 C 345.009 45.625,344.044 42.241,341.950 36.489 C 340.864 33.508,337.766 28.908,335.200 26.465 C 333.465 24.814,330.373 22.292,329.579 21.882 C 329.155 21.662,328.124 21.008,327.289 20.428 C 325.716 19.335,320.452 16.801,317.079 15.513 C 313.900 14.299,304.786 11.373,303.651 11.202 C 303.070 11.114,301.237 10.686,299.578 10.250 C 294.592 8.939,289.497 7.789,286.301 7.251 C 284.641 6.972,282.468 6.589,281.473 6.399 C 276.111 5.376,267.197 4.016,264.092 3.747 C 263.096 3.661,259.783 3.327,256.729 3.004 C 253.675 2.682,248.624 2.204,245.504 1.943 C 238.869 1.388,235.317 1.142,223.899 0.446 C 219.883 0.201,171.632 -0.147,171.394 0.067 M54.023 134.466 C 56.240 134.700,60.653 135.357,63.850 135.929 C 64.647 136.072,67.471 136.715,70.127 137.358 C 72.782 138.002,75.932 138.698,77.127 138.905 C 84.780 140.235,101.436 142.606,105.250 142.908 C 106.645 143.019,110.718 143.442,114.303 143.848 C 120.167 144.512,129.296 145.384,137.236 146.039 C 143.656 146.568,162.295 147.486,176.946 147.994 C 184.212 148.245,216.686 148.338,219.156 148.114 C 219.906 148.046,222.800 147.928,225.588 147.852 C 233.744 147.629,258.421 146.419,260.109 146.159 C 260.374 146.118,261.515 146.019,262.643 145.938 C 263.772 145.857,267.085 145.570,270.006 145.300 C 275.064 144.833,277.902 144.539,288.352 143.403 C 290.875 143.128,294.025 142.794,295.353 142.659 C 298.073 142.384,300.319 142.076,308.630 140.838 C 311.817 140.364,315.564 139.818,316.958 139.626 C 322.398 138.875,324.795 138.489,331.080 137.349 C 341.245 135.505,343.338 135.161,347.254 134.686 C 358.480 133.326,364.862 139.981,366.459 154.715 C 368.261 171.337,362.584 177.630,343.995 179.616 C 342.734 179.751,338.334 180.339,334.218 180.924 C 323.144 182.497,320.007 182.918,317.200 183.210 C 315.806 183.355,310.211 183.960,304.768 184.555 C 289.655 186.206,283.201 186.832,278.576 187.094 C 276.252 187.225,273.211 187.436,271.817 187.561 C 269.162 187.800,268.764 187.830,260.591 188.407 C 251.466 189.051,247.781 189.259,234.762 189.864 C 205.347 191.231,167.414 190.486,135.609 187.916 C 131.459 187.580,126.379 187.208,124.321 187.089 C 120.253 186.854,112.659 186.100,101.147 184.789 C 93.891 183.962,91.664 183.723,86.663 183.237 C 85.269 183.102,82.118 182.727,79.662 182.405 C 77.206 182.082,71.340 181.318,66.626 180.707 C 40.675 177.342,38.218 176.772,35.399 173.473 C 33.254 170.963,32.976 170.032,32.501 163.790 C 32.332 161.562,33.009 155.589,33.914 151.330 C 37.115 136.277,40.924 133.083,54.023 134.466 " stroke="none" fill="#0c0c24" fill-rule="evenodd"></path></g></svg>