<?xml version="1.0" standalone="no"?>
<!DOCTYPE svg PUBLIC "-//W3C//DTD SVG 20010904//EN"
 "http://www.w3.org/TR/2001/REC-SVG-20010904/DTD/svg10.dtd">
<svg version="1.0" xmlns="http://www.w3.org/2000/svg"
 width="920.000000pt" height="607.000000pt" viewBox="0 0 920.000000 607.000000"
 preserveAspectRatio="xMidYMid meet">

<g transform="translate(0.000000,607.000000) scale(0.100000,-0.100000)"
fill="#000000" stroke="none">
<path d="M4950 4420 l0 -1250 125 0 125 0 0 1250 0 1250 -125 0 -125 0 0
-1250z"/>
<path d="M1455 5040 c-110 -15 -189 -40 -300 -95 -206 -100 -349 -243 -450
-450 -76 -154 -99 -253 -99 -430 0 -170 22 -271 89 -413 104 -220 257 -373
477 -477 141 -67 243 -89 413 -89 170 0 272 22 413 89 157 74 280 175 376 305
45 60 95 149 116 206 l10 24 -138 0 -137 0 -28 -45 c-92 -144 -247 -257 -424
-307 -98 -27 -265 -30 -363 -5 -206 53 -386 200 -481 392 -55 113 -73 189 -73
320 0 225 96 428 268 567 221 177 535 214 779 92 121 -61 237 -164 294 -261
l25 -43 139 0 139 0 -10 24 c-57 152 -189 317 -336 422 -86 62 -234 130 -334
154 -97 23 -276 33 -365 20z"/>
<path d="M3585 5043 c-405 -52 -721 -318 -842 -709 -25 -83 -27 -101 -27 -269
0 -168 2 -186 27 -269 106 -344 367 -596 706 -682 336 -86 679 7 926 251 131
129 207 255 262 432 25 82 27 101 27 268 0 168 -2 186 -27 269 -55 178 -130
301 -262 431 -105 103 -210 171 -345 222 -133 49 -316 73 -445 56z m201 -254
c249 -34 449 -179 560 -405 60 -123 77 -208 71 -354 -6 -127 -25 -199 -83
-310 -83 -158 -234 -288 -402 -345 -360 -122 -744 41 -903 380 -177 382 -1
830 390 989 55 22 111 36 201 50 49 7 90 6 166 -5z"/>
<path d="M6220 5040 c-302 -42 -583 -240 -730 -513 -81 -150 -113 -279 -113
-462 0 -183 32 -312 113 -462 315 -584 1100 -698 1565 -228 122 124 208 275
257 451 31 113 31 364 0 476 -119 435 -478 725 -916 742 -61 3 -140 1 -176 -4z
m316 -265 c33 -8 101 -36 153 -61 194 -96 340 -287 385 -506 78 -378 -163
-756 -544 -855 -87 -22 -263 -22 -350 1 -212 57 -385 198 -479 390 -53 110
-74 199 -74 321 0 122 21 211 74 321 151 309 502 473 835 389z"/>
<path d="M8415 4945 c-94 -17 -152 -38 -260 -90 -99 -49 -241 -156 -274 -207
l-21 -33 0 168 0 167 -126 0 -127 0 7 -92 c3 -50 6 -450 6 -890 l0 -798 125 0
125 0 0 458 c0 498 2 522 59 646 109 241 344 411 596 433 l75 6 0 123 0 124
-57 -1 c-32 0 -89 -7 -128 -14z"/>
<path d="M1245 2812 c-69 -32 -115 -106 -115 -182 1 -69 78 -163 145 -176 129
-24 239 62 239 186 0 135 -147 229 -269 172z"/>
<path d="M5125 2812 c-131 -63 -152 -222 -42 -319 87 -76 229 -49 290 55 26
44 24 128 -2 181 -44 85 -159 124 -246 83z"/>
<path d="M6432 2809 c-109 -54 -136 -208 -53 -303 73 -83 235 -70 298 25 107
162 -72 363 -245 278z"/>
<path d="M7725 2816 c-119 -52 -153 -211 -66 -310 49 -56 159 -73 231 -36 102
52 132 201 58 286 -59 67 -150 92 -223 60z"/>
<path d="M1170 2141 c-170 -25 -298 -101 -366 -216 -76 -131 -67 -355 20 -469
65 -85 187 -138 498 -216 330 -83 412 -125 458 -232 29 -68 32 -188 6 -266
-38 -113 -137 -194 -277 -227 -152 -35 -384 -12 -500 52 -120 65 -208 227
-209 386 l0 37 -45 0 -45 0 0 -52 c1 -195 105 -380 259 -458 110 -55 196 -72
366 -73 164 -1 235 12 334 60 175 85 269 286 232 498 -16 88 -48 150 -106 204
-77 71 -168 106 -454 177 -142 35 -283 74 -313 87 -120 53 -171 134 -171 272
-1 180 80 280 263 326 110 28 304 24 392 -8 150 -55 234 -165 263 -345 6 -37
7 -38 51 -38 l46 0 -7 63 c-25 222 -146 362 -360 417 -87 22 -254 33 -335 21z"/>
<path d="M1970 2065 l0 -45 285 0 285 0 0 -790 0 -790 45 0 45 0 0 790 0 790
285 0 285 0 0 45 0 45 -615 0 -615 0 0 -45z"/>
<path d="M3320 1276 l0 -836 45 0 45 0 0 380 0 380 348 0 c191 0 373 -4 406
-10 120 -19 179 -69 212 -177 10 -30 18 -127 24 -263 6 -118 15 -236 21 -262
l11 -48 49 0 49 0 -11 27 c-12 33 -28 247 -29 388 0 120 -19 201 -62 269 -35
53 -100 100 -163 117 l-40 11 55 21 c98 36 191 153 219 278 15 65 13 207 -4
272 -37 144 -112 220 -260 265 -40 13 -133 16 -482 19 l-433 4 0 -835z m794
734 c142 -17 221 -64 274 -164 25 -47 27 -60 27 -176 0 -114 -2 -130 -26 -180
-36 -77 -68 -112 -138 -149 -83 -44 -150 -50 -523 -51 l-318 0 0 365 0 365
308 0 c169 0 347 -5 396 -10z"/>
<path d="M4740 1275 l0 -835 560 0 560 0 0 45 0 45 -512 2 -513 3 -3 363 -2
362 490 0 490 0 0 45 0 45 -487 2 -488 3 0 330 0 330 508 3 507 2 0 45 0 45
-555 0 -555 0 0 -835z"/>
<path d="M6060 1275 l0 -835 560 0 560 0 0 45 0 45 -515 0 -515 0 0 365 0 365
485 0 485 0 0 45 0 45 -485 0 -485 0 0 335 0 335 505 0 505 0 0 45 0 45 -550
0 -550 0 0 -835z"/>
<path d="M7220 2065 l0 -45 283 -2 282 -3 3 -787 2 -788 45 0 45 0 0 790 0
790 280 0 280 0 0 45 0 45 -610 0 -610 0 0 -45z"/>
</g>
</svg>
