<svg width="25" height="25" viewBox="0 0 25 25" fill="none" xmlns="http://www.w3.org/2000/svg">
<path d="M12.0999 24.4C18.7273 24.4 24.0999 19.0274 24.0999 12.4C24.0999 5.77261 18.7273 0.400024 12.0999 0.400024C5.47244 0.400024 0.0998535 5.77261 0.0998535 12.4C0.0998535 19.0274 5.47244 24.4 12.0999 24.4Z" fill="#FF4500"/>
<path d="M20.0999 12.4C20.0999 11.4316 19.3139 10.6456 18.3455 10.6456C17.8683 10.6456 17.4472 10.8281 17.1385 11.1368C15.9455 10.2807 14.2893 9.7193 12.4648 9.64912L13.2648 5.90175L15.8613 6.44912C15.8893 7.10877 16.4367 7.64211 17.1104 7.64211C17.7981 7.64211 18.3595 7.0807 18.3595 6.39298C18.3595 5.70526 17.7981 5.14386 17.1104 5.14386C16.6192 5.14386 16.1981 5.42456 16.0016 5.84561L13.0964 5.22807C13.0121 5.21404 12.9279 5.22807 12.8578 5.27018C12.7876 5.31228 12.7455 5.38246 12.7174 5.46667L11.8332 9.64912C9.96653 9.70526 8.29635 10.2526 7.08933 11.1368C6.78056 10.8421 6.34547 10.6456 5.88232 10.6456C4.91389 10.6456 4.12793 11.4316 4.12793 12.4C4.12793 13.1158 4.54898 13.7193 5.16653 14C5.13846 14.1684 5.12442 14.3509 5.12442 14.5333C5.12442 17.2281 8.25425 19.4035 12.1279 19.4035C16.0016 19.4035 19.1314 17.2281 19.1314 14.5333C19.1314 14.3509 19.1174 14.1825 19.0893 14.014C19.6648 13.7333 20.0999 13.1158 20.0999 12.4ZM8.09986 13.6491C8.09986 12.9614 8.66126 12.4 9.34898 12.4C10.0367 12.4 10.5981 12.9614 10.5981 13.6491C10.5981 14.3368 10.0367 14.8982 9.34898 14.8982C8.66126 14.8982 8.09986 14.3368 8.09986 13.6491ZM15.0753 16.9474C14.2192 17.8035 12.5911 17.8597 12.1139 17.8597C11.6367 17.8597 9.9946 17.7895 9.15249 16.9474C9.02617 16.8211 9.02617 16.6105 9.15249 16.4842C9.27881 16.3579 9.48933 16.3579 9.61565 16.4842C10.149 17.0175 11.2999 17.214 12.1279 17.214C12.956 17.214 14.0928 17.0175 14.6402 16.4842C14.7665 16.3579 14.9771 16.3579 15.1034 16.4842C15.2016 16.6246 15.2016 16.8211 15.0753 16.9474ZM14.8507 14.8982C14.163 14.8982 13.6016 14.3368 13.6016 13.6491C13.6016 12.9614 14.163 12.4 14.8507 12.4C15.5385 12.4 16.0999 12.9614 16.0999 13.6491C16.0999 14.3368 15.5385 14.8982 14.8507 14.8982Z" fill="white"/>
</svg>
