<svg xmlns="http://www.w3.org/2000/svg" xmlns:xlink="http://www.w3.org/1999/xlink" viewBox="0 0 15727.56 15731.16"><defs><style>.a{stroke:#fff;stroke-miterlimit:10;fill:url(#a)}</style><linearGradient id="a" x1="6023.03" x2="-5131.57" y1="-5170" y2="5984.61" gradientUnits="userSpaceOnUse"><stop offset="0" stop-color="#12d6df"/><stop offset=".52" stop-color="#896ff0"/><stop offset="1" stop-color="#f70fff"/></linearGradient></defs><path d="M7715.67-3006.79c440.93,945.67,463.71,1029.94,317.7,1246.79-48.84,72.32-306.92,271-743.52,573.66-368.25,254.26-670.22,465.09-672,470.12,3.13,6.71,23.84,166.33,48.61,361.08,26.59,189.73,45.86,585.17,44.7,874.57l-6,526.81,688.71,388.67c375.64,212.6,724.52,429.68,773.21,481.19,191.48,216.09,180.43,316.14-140.29,1212.49-165,460.66-333.6,877.68-373.6,933.52-48.62,63.86-133.81,120.08-243.6,158.94-145.38,51.28-265.61,41.29-929.79-82.31-416.19-78.11-780.84-143.42-809.27-142.51-26.6-4.1-152.16,124.66-280.41,283.52-242.76,311.33-666.72,764.83-825.65,884.3-52.81,37-102.95,97.53-110.5,125.72-5.86,31.76,83.05,390.57,195.66,800.2,221.17,784.12,231.46,894.9,104.67,1127.29-59.9,110.48-102.26,134.41-898.89,505.84-779.63,363.51-845.76,390.17-987.56,377.91-83.36-10.67-196.2-48.77-255.32-87.25-62.48-45.26-295-349.44-554.07-728-246.11-359.72-467.21-656.89-487.11-664.13-18.28-3.81-221.26,12.27-442.84,41.37s-597,47.37-836,39.07l-426.39-11.67L-526,7380.74c-218.06,382.19-443.61,739-501.9,791-209.39,188.35-356.14,174.39-1148.25-108.38-916.54-319.64-1005.53-368.87-1114.56-602.71-91.66-196.59-91.66-196.59,112.1-1281.89l99.83-537.72-373.34-296.4c-206.49-159.56-498.83-423.5-649.85-588.24-149.5-161.46-278-295.34-284.59-300.59s-348.67,84.18-761.72,198.39c-851.4,236-885,243.36-1070.53,173.1-217.15-76.2-305.39-212.52-675.83-1042.44-320.16-713.11-338.9-762.25-318.1-912.21,9.08-86.78,55.94-207.7,104.24-263.24,43.43-57.45,337.25-276.81,646-491,308.59-214.1,598.67-415.4,641.33-447.63,70.18-53.41,73.31-108.58,24.16-514.77-29.93-250.22-49.28-645.45-39.44-881.19l10.13-429.66-690.31-392.11c-382.12-217.93-739.16-443.54-792.57-505.19-186.75-206-172.65-352.77,110-1144.82,319.5-916.46,368.88-1005.53,602.72-1114.56,196.58-91.66,196.58-91.66,1281.9,112.11l537.63,100,296.39-373.34c159.57-206.48,423.52-498.84,588.25-649.86,161.45-149.49,295.48-278,300.59-284.58s-84.19-348.66-198.39-761.72-212.57-792.12-216.15-844.16c-9.6-135.77,78.33-354.23,183-448.4,49.61-43.82,444.91-240.46,873.59-436.34,749-340.88,791.28-356.43,941.23-335.62,86.78,9.07,207.7,55.93,263.25,104.24,59,46.71,285,345.77,502.26,661.23,215.47,320.47,415.1,607,444.2,642.93,40.45,51.36,137.31,55.55,488.26,11.68,243.29-26.89,650.47-47.46,909.61-40.37l463.12,11.06,400.72-706.86c418.39-739.77,510.06-844.38,760.36-882.7,178-25.29,1815.09,564.95,1916.89,694.94,161.84,196.88,161.3,337.38,6.53,1164.7l-149,795.77,343.72,277.2c189.87,150.79,477.19,412.91,639.86,584.73s311,312.94,327.48,321.78c18.36,4,392.26-88,828.92-204.87l799-215.77A353.89,353.89,0,0,1,7028.8-4025a348.43,348.43,0,0,1,109.93,18.58c27.35,9.44,79.59,28.17,125.3,77.76a270.27,270.27,0,0,1,46.91,70.67Q7513.32-3432.41,7715.67-3006.79Z" class="a" transform="translate(7433.87 7433.4)"/><path d="M8382.57-762.22Z" transform="translate(7433.87 7433.4)"/></svg>