<?xml version="1.0" encoding="utf-8"?>
<!-- Generator: Adobe Illustrator 27.3.1, SVG Export Plug-In . SVG Version: 6.00 Build 0)  -->
<svg version="1.1" id="Ebene_1" xmlns="http://www.w3.org/2000/svg" xmlns:xlink="http://www.w3.org/1999/xlink" x="0px" y="0px"
	 viewBox="0 0 951.3 178" style="enable-background:new 0 0 951.3 178;" xml:space="preserve">
<style type="text/css">
	.st0{fill:url(#SVGID_1_);}
	.st1{enable-background:new    ;}
	.st2{fill:#FFFFFF;}
	.st3{fill:url(#SVGID_00000109733913136776822790000018441743286337752722_);}
	.st4{fill:url(#SVGID_00000022522891560626333290000003353958392854788244_);}
	.st5{fill:url(#SVGID_00000175310290890878054190000012288581779321609403_);}
	.st6{fill:url(#SVGID_00000003084386374614295450000010004698771105637311_);}
	.st7{opacity:0.86;}
	.st8{fill:url(#SVGID_00000037672310869008677240000007824612896602069918_);}
	.st9{opacity:0.68;fill:#FFFFFF;enable-background:new    ;}
</style>
<g>
	<g id="Ebene_1_00000146467863646094715040000014080950741602603679_">
		
			<linearGradient id="SVGID_1_" gradientUnits="userSpaceOnUse" x1="472.4759" y1="0.5901" x2="478.4159" y2="170.3001" gradientTransform="matrix(1 0 0 -1 0 180)">
			<stop  offset="0" style="stop-color:#340B4D"/>
			<stop  offset="0.99" style="stop-color:#340B4D"/>
		</linearGradient>
		<path class="st0" d="M862.3,0H89.9C43.7,0,4.4,35,0.3,81c-4.6,52.7,36.9,97,88.7,97h773.3c49.2,0,89-39.9,89-89S911.4,0,862.3,0z"
			/>
		<g class="st1">
			<path class="st2" d="M166.9,65.2h19.9c11.5,0,18.1,7.1,18.1,17.1c0,10.1-6.7,17-18.3,17h-9v16.4h-10.7V65.2z M184.8,90.7
				c6.1,0,9.1-3.4,9.1-8.4c0-5-3-8.4-9.1-8.4h-7.2v16.8H184.8z"/>
		</g>
		<g class="st1">
			<path class="st2" d="M209.5,96.8c0-11.7,7.1-19.6,18.6-19.6s18.6,7.8,18.6,19.6c0,11.6-7.1,19.5-18.6,19.5
				S209.5,108.5,209.5,96.8z M236.1,96.8c0-6.6-2.7-11.5-7.9-11.5c-5.3,0-8,4.9-8,11.5c0,6.6,2.7,11.5,8,11.5
				C233.3,108.2,236.1,103.4,236.1,96.8z"/>
			<path class="st2" d="M249.1,77.8h10.6l5.9,25.4h0.3l6.1-25.4h10.4l6.2,25.3h0.3l5.8-25.3h10.6l-10.3,37.8H284l-6.5-23.8H277
				l-6.5,23.8h-11.1L249.1,77.8z"/>
		</g>
		<g class="st1">
			<path class="st2" d="M309.1,96.9c0-11.7,7.2-19.6,18.3-19.6c10,0,17.8,6.4,17.8,19.2v2.9h-25.8v0c0,5.6,3.3,9.1,8.6,9.1
				c3.5,0,6.2-1.5,7.3-4.4l9.7,0.6c-1.5,7-7.8,11.6-17.1,11.6C316.3,116.3,309.1,108.9,309.1,96.9z M335.4,92.9
				c0-4.5-3.2-7.8-7.7-7.8c-4.7,0-7.9,3.4-8.2,7.8H335.4z"/>
		</g>
		<g class="st1">
			<path class="st2" d="M352.1,77.8h10.2v6.6h0.4c1.4-4.7,4.9-7.1,9.1-7.1c1.1,0,2.4,0.1,3.3,0.4v9.3c-1-0.3-3-0.6-4.4-0.6
				c-4.6,0-8,3.2-8,7.9v21.4h-10.5V77.8z"/>
		</g>
		<g class="st1">
			<path class="st2" d="M377.2,96.9c0-11.7,7.2-19.6,18.3-19.6c10,0,17.8,6.4,17.8,19.2v2.9h-25.8v0c0,5.6,3.3,9.1,8.6,9.1
				c3.5,0,6.2-1.5,7.3-4.4l9.7,0.6c-1.5,7-7.8,11.6-17.1,11.6C384.3,116.3,377.2,108.9,377.2,96.9z M403.4,92.9
				c0-4.5-3.2-7.8-7.7-7.8c-4.7,0-7.9,3.4-8.2,7.8H403.4z"/>
			<path class="st2" d="M418.8,96.7c0-13,7-19.5,15.3-19.5c6.3,0,9.4,3.8,10.8,6.8h0.3v-19h10.5v50.4h-10.3v-6.1h-0.4
				c-1.5,3.2-4.6,6.7-10.7,6.7C425.5,116.2,418.8,109.4,418.8,96.7z M445.4,96.7c0-6.7-2.9-11.1-8-11.1c-5.2,0-8,4.5-8,11.1
				c0,6.6,2.8,11.2,8,11.2C442.5,107.9,445.4,103.4,445.4,96.7z"/>
		</g>
		<g class="st1">
			<path class="st2" d="M480.5,65.2H491v19h0.3c1.4-3.1,4.4-6.8,10.8-6.8c8.3,0,15.3,6.5,15.3,19.5c0,12.7-6.7,19.5-15.3,19.5
				c-6.1,0-9.3-3.5-10.7-6.7h-0.5v6.1h-10.3V65.2z M498.8,107.9c5.1,0,8-4.6,8-11.2c0-6.6-2.8-11.1-8-11.1c-5.1,0-8,4.3-8,11.1
				C490.8,103.4,493.7,107.9,498.8,107.9z"/>
		</g>
		<g class="st1">
			<path class="st2" d="M523,128.7l2.4-7.8c3.7,1.1,6.3,1,7.7-2.6l0.6-1.6l-13.6-38.9h11l7.8,27.8h0.4l7.9-27.8h11.1l-14.7,41.9
				c-2.1,6.1-6.3,10.1-14.1,10.1C527,129.8,524.5,129.4,523,128.7z"/>
			<path class="st2" d="M580.1,65.2h10.7v41.6h21.6v8.8h-32.3V65.2z"/>
			<path class="st2" d="M618.9,67.6c0-2.9,2.6-5.3,5.7-5.3c3.1,0,5.7,2.4,5.7,5.3c0,2.9-2.6,5.3-5.7,5.3
				C621.4,72.9,618.9,70.5,618.9,67.6z M619.2,77.8h10.5v37.8h-10.5V77.8z"/>
			<path class="st2" d="M648.6,115.6h-10.5V77.8h10v6.7h0.4c1.7-4.4,5.8-7.2,11.4-7.2c7.9,0,13.1,5.4,13.1,14.2v24.1h-10.5V93.4
				c0-4.6-2.5-7.4-6.7-7.4c-4.2,0-7.1,2.9-7.2,7.7V115.6z"/>
			<path class="st2" d="M681.3,65.2h10.5v27h0.6l12.1-14.4h12l-14,16.4l14.8,21.5h-12.3l-10.3-15.2l-2.8,3.2v12h-10.5V65.2z"/>
			<path class="st2" d="M740.5,73.4c-5.2,0-8.1,2.4-8.1,5.6c-0.1,3.6,3.6,5.2,8,6.3l4.5,1.1c8.8,2,15.1,6.4,15.1,14.8
				c0,9.2-7.3,15.1-19.6,15.1c-12.2,0-20-5.6-20.3-16.5h10.3c0.3,5,4.3,7.6,9.9,7.6c5.4,0,8.9-2.5,8.9-6.2c0-3.4-3.1-5-8.6-6.3
				l-5.5-1.4c-8.5-2-13.8-6.3-13.7-13.7c0-9.2,8.1-15.3,19.1-15.3c11.2,0,18.6,6.2,18.8,15.2h-10.2
				C748.8,75.7,745.6,73.4,740.5,73.4z"/>
			<path class="st2" d="M787.1,85.7H780V104c0,2.9,1.5,3.7,3.5,3.7c1,0,2.1-0.2,2.6-0.3l1.7,7.8c-1.1,0.3-3,0.9-5.7,1
				c-7.6,0.3-12.7-3.3-12.6-10.8V85.7h-5.2v-7.9h5.2v-9.1H780v9.1h7.1V85.7z"/>
			<path class="st2" d="M792.2,105c0-8.4,6.7-11,14.2-11.6c6.6-0.6,9.2-1,9.2-3.4v-0.1c0-3.1-2-4.9-5.6-4.9c-3.8,0-6,1.8-6.7,4.4
				l-9.7-0.8c1.5-6.9,7.4-11.2,16.5-11.2c8.4,0,16.1,3.8,16.1,12.8v25.5h-9.9v-5.2h-0.3c-1.8,3.5-5.5,6-11.1,6
				C797.5,116.3,792.2,112.5,792.2,105z M815.6,102.1v-4c-1.3,0.8-5,1.4-7.3,1.7c-3.7,0.5-6.1,2-6.1,4.9c0,2.9,2.3,4.4,5.5,4.4
				C812.4,109.1,815.6,106.1,815.6,102.1z"/>
			<path class="st2" d="M832.7,96.8c0-11.6,7.1-19.6,18.6-19.6c9.9,0,16.5,5.7,16.9,14.5h-9.9c-0.6-3.8-3-6.3-6.9-6.3
				c-4.9,0-8.1,4.1-8.1,11.2c0,7.2,3.2,11.4,8.1,11.4c3.6,0,6.3-2.3,6.9-6.3h9.9c-0.5,8.7-6.8,14.6-16.9,14.6
				C839.7,116.3,832.7,108.3,832.7,96.8z"/>
			<path class="st2" d="M875,65.2h10.5v27h0.6l12.1-14.4h12l-14,16.4l14.8,21.5h-12.3l-10.3-15.2l-2.8,3.2v12H875V65.2z"/>
		</g>
		<g>
			
				<linearGradient id="SVGID_00000173860543765649823680000015564725410998525829_" gradientUnits="userSpaceOnUse" x1="122.6757" y1="124.7659" x2="73.8357" y2="57.2759" gradientTransform="matrix(1 0 0 -1 0 180)">
				<stop  offset="0" style="stop-color:#340B4E"/>
				<stop  offset="1" style="stop-color:#06051C"/>
			</linearGradient>
			<path style="fill:url(#SVGID_00000173860543765649823680000015564725410998525829_);" d="M111.9,128.4H84.2
				c-5.4,0-10.4-2.9-13.1-7.6l-13.9-24c-2.7-4.7-2.7-10.5,0-15.2l13.9-24c2.7-4.7,7.7-7.6,13.1-7.6h27.7c5.4,0,10.4,2.9,13.1,7.6
				l13.9,24c2.7,4.7,2.7,10.5,0,15.2l-13.9,24C122.4,125.5,117.4,128.4,111.9,128.4z"/>
			
				<linearGradient id="SVGID_00000016047546441226300220000008980903925464385693_" gradientUnits="userSpaceOnUse" x1="45.7075" y1="90.795" x2="150.4525" y2="90.795" gradientTransform="matrix(1 0 0 -1 0 180)">
				<stop  offset="0" style="stop-color:#EE17FE"/>
				<stop  offset="1" style="stop-color:#19D0E0"/>
			</linearGradient>
			<path style="fill:url(#SVGID_00000016047546441226300220000008980903925464385693_);" d="M116.7,41.8H79.5
				c-5.4,0-10.4,2.9-13.1,7.6L47.7,81.6c-2.7,4.7-2.7,10.5,0,15.2L66.3,129c2.7,4.7,7.7,7.6,13.1,7.6h37.2c5.4,0,10.4-2.9,13.1-7.6
				l18.6-32.2c2.7-4.7,2.7-10.5,0-15.2l-18.6-32.2C127.1,44.7,122.1,41.8,116.7,41.8z M111.9,128.4H84.2c-5.4,0-10.4-2.9-13.1-7.6
				l-13.9-24c-2.7-4.7-2.7-10.5,0-15.2l13.9-24c2.7-4.7,7.7-7.6,13.1-7.6h27.7c5.4,0,10.4,2.9,13.1,7.6l13.9,24
				c2.7,4.7,2.7,10.5,0,15.2l-13.9,24C122.4,125.5,117.4,128.4,111.9,128.4z"/>
			
				<linearGradient id="SVGID_00000065778071154924470870000014976527317555995311_" gradientUnits="userSpaceOnUse" x1="70.21" y1="90.85" x2="125.96" y2="90.85" gradientTransform="matrix(1 0 0 -1 0 180)">
				<stop  offset="0" style="stop-color:#EE17FE"/>
				<stop  offset="1" style="stop-color:#19D0E0"/>
			</linearGradient>
			<path style="fill:url(#SVGID_00000065778071154924470870000014976527317555995311_);" d="M125.6,88.7L98.7,76.8
				c-0.3-0.2-0.8-0.2-1.2,0L70.6,88.7c-0.2,0.1-0.4,0.3-0.4,0.4s0.1,0.3,0.4,0.4l26.9,11.9c0.3,0.2,0.8,0.2,1.2,0l26.9-11.9
				c0.2-0.1,0.4-0.3,0.4-0.4S125.8,88.8,125.6,88.7z"/>
			
				<linearGradient id="SVGID_00000157272352005330583520000009556350532637584535_" gradientUnits="userSpaceOnUse" x1="70.21" y1="79.74" x2="125.96" y2="79.74" gradientTransform="matrix(1 0 0 -1 0 180)">
				<stop  offset="0" style="stop-color:#EE17FE"/>
				<stop  offset="1" style="stop-color:#19D0E0"/>
			</linearGradient>
			<path style="fill:url(#SVGID_00000157272352005330583520000009556350532637584535_);" d="M125.6,99.8L98.7,87.9
				c-0.3-0.2-0.8-0.2-1.2,0L70.6,99.8c-0.2,0.1-0.4,0.3-0.4,0.4s0.1,0.3,0.4,0.4l26.9,11.9c0.3,0.2,0.8,0.2,1.2,0l26.9-11.9
				c0.2-0.1,0.4-0.3,0.4-0.4S125.8,99.9,125.6,99.8z"/>
			<g class="st7">
				
					<linearGradient id="SVGID_00000119119302921198022200000007539621668286716325_" gradientUnits="userSpaceOnUse" x1="98.085" y1="114.34" x2="98.085" y2="91.24" gradientTransform="matrix(1 0 0 -1 0 180)">
					<stop  offset="0" style="stop-color:#FFFFFF"/>
					<stop  offset="1" style="stop-color:#EE17FE"/>
				</linearGradient>
				<path style="fill:url(#SVGID_00000119119302921198022200000007539621668286716325_);" d="M125.6,77.6L98.7,65.7
					c-0.3-0.2-0.8-0.2-1.2,0L70.6,77.6c-0.2,0.1-0.4,0.3-0.4,0.4s0.1,0.3,0.4,0.4l26.9,11.9c0.3,0.2,0.8,0.2,1.2,0l26.9-11.9
					c0.2-0.1,0.4-0.3,0.4-0.4S125.8,77.7,125.6,77.6z"/>
				<path class="st9" d="M125.6,77.6L98.7,65.7c-0.3-0.2-0.8-0.2-1.2,0L70.6,77.6c-0.2,0.1-0.4,0.3-0.4,0.4s0.1,0.3,0.4,0.4
					l26.9,11.9c0.3,0.2,0.8,0.2,1.2,0l26.9-11.9c0.2-0.1,0.4-0.3,0.4-0.4S125.8,77.7,125.6,77.6z"/>
			</g>
		</g>
	</g>
</g>
</svg>
