<?xml version="1.0" encoding="iso-8859-1"?>
<!-- Generator: Adobe Illustrator 21.1.0, SVG Export Plug-In . SVG Version: 6.00 Build 0)  -->
<svg version="1.1" id="Artwork"
	 xmlns="http://www.w3.org/2000/svg" xmlns:xlink="http://www.w3.org/1999/xlink" x="0px" y="0px" width="28.35px" height="28.35px"
	 viewBox="0 0 28.35 28.35" enable-background="new 0 0 28.35 28.35" xml:space="preserve">
<path id="_x38_x_x5F_iOS11-iBooks-Icon_x5F_US-EN_x5F_00-0013-932_x5F_v1_x5F_w_x5F_CMYK_x5F_R1_1_" fill-rule="evenodd" clip-rule="evenodd" d="
	M28.3465,19.4793c0,0.3386,0.0001,0.6771-0.0019,1.0157c-0.0017,0.2852-0.005,0.5703-0.0127,0.8554
	c-0.0168,0.621-0.0534,1.2474-0.1637,1.8616c-0.112,0.6236-0.295,1.204-0.5834,1.7705c-0.2833,0.5565-0.6534,1.0657-1.095,1.5072
	c-0.4416,0.4416-0.9509,0.8117-1.5075,1.0951c-0.5663,0.2883-1.1463,0.4711-1.7696,0.5831c-0.6144,0.1104-1.241,0.147-1.8623,0.1638
	c-0.2851,0.0077-0.5702,0.011-0.8554,0.0127c-0.3386,0.0021-0.6771,0.0019-1.0157,0.0019H8.8671
	c-0.3386,0-0.6771,0.0002-1.0157-0.0019c-0.2852-0.0017-0.5703-0.005-0.8554-0.0127c-0.6212-0.0168-1.2479-0.0534-1.8623-0.1638
	c-0.6233-0.112-1.2033-0.2949-1.7696-0.5831c-0.5566-0.2833-1.0659-0.6535-1.5075-1.0951c-0.4415-0.4415-0.8116-0.9507-1.095-1.5072
	c-0.2884-0.5666-0.4714-1.1469-0.5834-1.7705c-0.1103-0.6141-0.1469-1.2406-0.1637-1.8616
	c-0.0077-0.2851-0.011-0.5702-0.0127-0.8554C-0.0002,20.1564,0,19.8179,0,19.4793V8.8671C0,8.5286-0.0002,8.19,0.0019,7.8515
	c0.0017-0.2852,0.005-0.5703,0.0127-0.8554c0.0168-0.621,0.0534-1.2474,0.1637-1.8616c0.112-0.6236,0.295-1.204,0.5834-1.7705
	c0.2833-0.5565,0.6534-1.0657,1.095-1.5072C2.2983,1.4151,2.8076,1.045,3.3642,0.7616c0.5663-0.2883,1.1463-0.4711,1.7696-0.5831
	c0.6144-0.1104,1.241-0.147,1.8623-0.1638c0.2851-0.0077,0.5702-0.011,0.8554-0.0127C8.19-0.0001,8.5286,0,8.8671,0h10.6122
	c0.3386,0,0.6771-0.0002,1.0157,0.0019c0.2852,0.0017,0.5703,0.005,0.8554,0.0127c0.6212,0.0168,1.2479,0.0534,1.8623,0.1638
	c0.6233,0.112,1.2033,0.2949,1.7696,0.5831c0.5566,0.2833,1.0659,0.6535,1.5075,1.0951c0.4415,0.4415,0.8116,0.9507,1.095,1.5072
	c0.2884,0.5666,0.4714,1.1469,0.5834,1.7705c0.1103,0.6141,0.1469,1.2406,0.1637,1.8616c0.0077,0.2851,0.011,0.5702,0.0127,0.8554
	c0.0021,0.3386,0.0019,0.6771,0.0019,1.0157V19.4793z M5.2984,7.5641C4.5943,8.0796,4.5472,8.5974,4.5472,9.0727
	c-0.0002,2.5579,0.0002,8.5962,0,11.1541c0,0.4753,0.3166,0.5346,0.7512,0.213c2.3577-1.7108,5.2446-1.6237,6.932-0.3199
	c1.6472,1.2193,1.6477,2.8291,1.6477,2.3538c0-2.5579,0-8.9352,0-11.4931c0-2.0732-0.2853-2.2845-0.7509-2.9962
	C11.2817,5.8238,7.6558,5.8534,5.2984,7.5641z M23.7992,20.2268c0,0.4753-0.3166,0.5346-0.7512,0.213
	c-2.3577-1.7108-5.2446-1.6237-6.932-0.3199c-1.6472,1.2193-1.6477,2.8291-1.6477,2.3538c0-2.5579,0-8.9352,0-11.4931
	c0-2.0732,0.2853-2.2845,0.7509-2.9962c1.8454-2.1606,5.4713-2.131,7.8287-0.4203c0.7041,0.5154,0.7512,1.0333,0.7512,1.5085
	C23.7995,11.6306,23.799,17.6689,23.7992,20.2268z"/>
</svg>
