<svg xmlns="http://www.w3.org/2000/svg" xmlns:svg="http://www.w3.org/2000/svg" id="Ebene_1" width="330" height="330" x="0" y="0" version="1.1" viewBox="0 0 330 330" xml:space="preserve"><metadata id="metadata61"/><style id="style3" type="text/css">.st0{fill:#fff}.st1{display:none}.st1,.st2{fill:#87c214}.st3{display:none;fill:#fff}.st4,.st5{fill:#95d220}.st5{display:none}</style><circle style="fill:#fff" id="circle7" cx="165" cy="165" r="165" class="st0"/><g id="g4214" transform="translate(0.2999939,1.2000061)"><g id="g9"><g id="g11"><rect id="rect13" width="43.7" height="43.7" x="94" y="93.8" class="st1" style="display:none;fill:#87c214"/><path id="path15" d="M 94,144.5 94,264 c 0,9.7 7.9,17.7 17.7,17.7 l 8.3,0 c 9.7,0 17.7,-8 17.7,-17.7 l 0,-119.5 -43.7,0 z" class="st2" style="fill:#87c214"/><path id="path17" d="m 137.7,86.8 0,-22.5 c 0,-9.7 -8,-17.7 -17.7,-17.7 l -8.3,0 C 102,46.6 94,54.6 94,64.3 l 0,22.5 43.7,0 z" class="st2" style="fill:#87c214"/></g><path id="path19" d="m 120,46.7 c 9.7,0 17.7,8 17.7,17.7 l 0,199.6 c 0,9.7 -8,17.7 -17.7,17.7 l -8.3,0 C 102,281.7 94,273.7 94,264 L 94,64.3 c 0,-9.7 7.9,-17.7 17.7,-17.7 l 8.3,0 m 0,-6.9 -8.3,0 C 98.1,39.7 87,50.7 87,64.3 L 87,264 c 0,13.6 11.1,24.7 24.7,24.7 l 8.3,0 c 13.6,0 24.7,-11.1 24.7,-24.7 l 0,-199.7 C 144.7,50.7 133.6,39.7 120,39.7 l 0,0 z" class="st3" style="display:none;fill:#fff"/></g><g id="g21"><g id="g23"><path id="path25" d="m 234.7,183.8 0,-119.5 c 0,-9.7 -7.9,-17.7 -17.7,-17.7 l -8.3,0 c -9.7,0 -17.7,8 -17.7,17.7 l 0,119.5 43.7,0 z" class="st2" style="fill:#87c214"/><rect id="rect27" width="43.7" height="43.7" x="191" y="190.8" class="st1" style="display:none;fill:#87c214"/><path id="path29" d="m 191,241.5 0,22.5 c 0,9.7 8,17.7 17.7,17.7 l 8.3,0 c 9.7,0 17.7,-8 17.7,-17.7 l 0,-22.5 -43.7,0 z" class="st2" style="fill:#87c214"/></g><path id="path31" d="m 217,46.7 c 9.7,0 17.7,8 17.7,17.7 l 0,199.6 c 0,9.7 -7.9,17.7 -17.7,17.7 l -8.3,0 c -9.7,0 -17.7,-8 -17.7,-17.7 l 0,-199.7 c 0,-9.7 8,-17.7 17.7,-17.7 l 8.3,0 m 0,-6.9 -8.3,0 C 195.1,39.7 184,50.8 184,64.4 l 0,199.6 c 0,13.6 11.1,24.7 24.7,24.7 l 8.3,0 c 13.6,0 24.7,-11.1 24.7,-24.7 l 0,-199.7 C 241.7,50.7 230.6,39.7 217,39.7 l 0,0 z" class="st3" style="display:none;fill:#fff"/></g><g id="g33"><g id="g35"><path id="path37" d="m 87,190.8 -22.5,0 c -9.7,0 -17.7,7.9 -17.7,17.7 l 0,8.3 c 0,9.7 7.9,17.7 17.7,17.7 l 22.5,0 0,-43.7 z" class="st4" style="fill:#95d220"/><rect id="rect39" width="43.7" height="43.7" x="94" y="190.8" class="st5" style="display:none;fill:#95d220"/><path id="path41" d="m 264.2,190.8 -119.5,0 0,43.7 119.5,0 c 9.7,0 17.7,-8 17.7,-17.7 l 0,-8.3 c -0.1,-9.7 -8,-17.7 -17.7,-17.7 z" class="st4" style="fill:#95d220"/></g><path id="path43" d="m 264.2,190.8 c 9.7,0 17.7,7.9 17.7,17.7 l 0,8.3 c 0,9.7 -8,17.7 -17.7,17.7 l -199.7,0 c -9.7,0 -17.7,-8 -17.7,-17.7 l 0,-8.3 c 0,-9.7 7.9,-17.7 17.7,-17.7 l 199.7,0 m 0,-7 -199.7,0 c -13.6,0 -24.7,11.1 -24.7,24.7 l 0,8.3 c 0,13.6 11.1,24.7 24.7,24.7 l 199.7,0 c 13.6,0 24.7,-11.1 24.7,-24.7 l 0,-8.3 c -0.1,-13.6 -11.1,-24.7 -24.7,-24.7 l 0,0 z" class="st3" style="display:none;fill:#fff"/></g><g id="g45"><g id="g47"><rect id="rect49" width="43.7" height="43.7" x="191" y="93.8" class="st5" style="display:none;fill:#95d220"/><path id="path51" d="m 184,93.8 -119.5,0 c -9.7,0 -17.7,7.9 -17.7,17.7 l 0,8.3 c 0,9.7 7.9,17.7 17.7,17.7 l 119.5,0 0,-43.7 z" class="st4" style="fill:#95d220"/><path id="path53" d="m 264.2,93.8 -22.5,0 0,43.7 22.5,0 c 9.7,0 17.7,-7.9 17.7,-17.7 l 0,-8.3 c -0.1,-9.7 -8,-17.7 -17.7,-17.7 z" class="st4" style="fill:#95d220"/></g><path id="path55" d="m 264.2,93.8 c 9.7,0 17.7,7.9 17.7,17.7 l 0,8.3 c 0,9.7 -8,17.7 -17.7,17.7 l -199.7,0 c -9.7,0 -17.7,-7.9 -17.7,-17.7 l 0,-8.3 c 0,-9.7 7.9,-17.7 17.7,-17.7 l 199.7,0 m 0,-7 -199.7,0 c -13.6,0 -24.7,11.1 -24.7,24.7 l 0,8.3 c 0,13.6 11.1,24.7 24.7,24.7 l 199.7,0 c 13.6,0 24.7,-11.1 24.7,-24.7 l 0,-8.3 C 288.8,97.9 277.8,86.8 264.2,86.8 l 0,0 z" class="st3" style="display:none;fill:#fff"/></g></g></svg>