<?xml version="1.0" encoding="utf-8"?>
<!-- Generator: Adobe Illustrator 26.0.1, SVG Export Plug-In . SVG Version: 6.00 Build 0)  -->
<svg version="1.1" id="Layer_1" xmlns="http://www.w3.org/2000/svg" xmlns:xlink="http://www.w3.org/1999/xlink" x="0px" y="0px"
	 viewBox="0 0 64 64" style="enable-background:new 0 0 64 64;" xml:space="preserve">
<style type="text/css">
	.st0{fill:#FFFFFF;}
</style>
<symbol  id="RGB_BTC" viewBox="-23 -32 46.2 64">
	<path class="st0" d="M13.9-0.7c5.1-1.4,9.2-5.5,9.2-11.4c0-6.5-4.9-10.7-11.7-11.9l1.1-5.6c0.2-1-0.4-2.1-1.5-2.3
		c-0.1,0-0.3,0-0.4,0H3.5c-0.9,0-1.7,0.6-1.9,1.5l-1.3,6.1h-11.8c-0.7,0-1.3,0.5-1.4,1.1L-23,22.6c-0.2,0.8,0.3,1.6,1.1,1.7
		c0.1,0,0.2,0,0.3,0h11.1l-1.1,5.2c-0.2,1.1,0.5,2.1,1.5,2.4c0.1,0,0.2,0,0.4,0h7.1c0.9,0,1.7-0.6,1.9-1.5l1.3-6.1h1.1
		c11.5,0,18.8-6.3,18.8-14.4C20.6,5.4,18,1.3,13.9-0.7z M1.5,15.2h-11.7l2.6-11.7h9.6c4.7,0,7.6,2,7.6,5.5S6.5,15.2,1.5,15.2z
		 M5.5-5.1H-5.7l2.2-10h9.5c3.9,0,6.2,1.8,6.2,4.7C12.2-6.9,9.4-5.1,5.5-5.1z"/>
</symbol>
<g>
	<defs>
		<rect id="SVGID_1_" width="64" height="64"/>
	</defs>
	<clipPath id="SVGID_00000155857002718714438840000015121633964882569606_">
		<use xlink:href="#SVGID_1_"  style="overflow:visible;"/>
	</clipPath>
	<g style="clip-path:url(#SVGID_00000155857002718714438840000015121633964882569606_);">
		
			<use xlink:href="#RGB_BTC"  width="46.2" height="64" id="RGB_BTC-3" x="-23" y="-32" transform="matrix(1 0 0 1 32 32)" style="overflow:visible;"/>
	</g>
</g>
</svg>
