<svg xmlns="http://www.w3.org/2000/svg" xmlns:xlink="http://www.w3.org/1999/xlink" id="Layer_1" x="0" y="0" version="1.1" viewBox="0 0 64 64" style="enable-background:new 0 0 64 64" xml:space="preserve"><style type="text/css">.st0{fill:#fff}</style><symbol id="RGB_Dollar" viewBox="-22.6 -32 45 64"><path d="M2.4-16.6c4.8,0,9.4,1.7,13,4.8c0.8,0.7,2,0.7,2.7-0.1l3.7-3.8c0.8-0.7,0.8-2,0-2.7c0,0-0.1-0.1-0.1-0.1 c-2.9-2.5-6.3-4.4-10-5.6l1.1-5.5c0.2-1.1-0.5-2.1-1.5-2.3c-0.1,0-0.3,0-0.4,0H3.8c-0.9,0-1.7,0.6-1.9,1.5l-1,4.9 c-9.6,0.5-17.7,5.2-17.7,15c0,8.4,6.7,12,13.8,14.6C3.7,6.6,7.3,7.5,7.3,11s-3.6,5.7-8.8,5.7c-5.1,0.1-10-1.8-13.7-5.4 c-0.8-0.7-2-0.7-2.7,0l-4,3.9c-0.8,0.7-0.8,2,0,2.7c0,0,0,0,0,0c3.3,3.1,7.3,5.3,11.6,6.4l-1.1,5.1c-0.2,1.1,0.5,2.1,1.6,2.4 c0.1,0,0.2,0,0.4,0h7.2c0.9,0,1.7-0.6,1.9-1.5l1-4.9c11.5-0.7,18.5-6.9,18.5-16c0-8.3-7-11.9-15.5-14.7c-4.9-1.8-9.1-3-9.1-6.6 S-1.5-16.6,2.4-16.6z" class="st0"/></symbol><g><defs><rect id="SVGID_1_" width="64" height="64"/></defs><clipPath id="SVGID_00000031926049870734804350000017612823412807515052_"><use xlink:href="#SVGID_1_" style="overflow:visible"/></clipPath><g style="clip-path:url(#SVGID_00000031926049870734804350000017612823412807515052_)"><use id="XMLID_00000003788443749446224530000008446952048098981045_" width="45" height="64" x="-22.6" y="-32" transform="matrix(1 0 0 1 32.0296 32.0148)" xlink:href="#RGB_Dollar" style="overflow:visible"/></g></g></svg>