<svg xmlns="http://www.w3.org/2000/svg" xmlns:xlink="http://www.w3.org/1999/xlink" id="Layer_1" x="0" y="0" version="1.1" viewBox="0 0 64 64" style="enable-background:new 0 0 64 64" xml:space="preserve"><style type="text/css">.st0{fill:#fff}</style><symbol id="RGB_Pound" viewBox="-27.1 -32 54.2 64"><path d="M8.4-19.5c3.7,0,7.1,2.1,8.8,5.3c0.6,0.9,1.8,1.1,2.7,0.5c0.1-0.1,0.2-0.1,0.2-0.2l6.4-6.2 c0.7-0.7,0.7-1.7,0.2-2.4C22.4-28.6,15.4-32.1,8-32c-12.4,0-23,7.9-23,21c0,1.8,0.2,3.6,0.6,5.4h-3.5c-0.9,0-1.7,0.6-1.9,1.4 l-1.5,6.9c-0.2,1,0.4,2,1.4,2.2c0.1,0,0.2,0,0.3,0h7.3l0.3,1.3c0.2,0.8,0.3,1.6,0.3,2.4c0,5.4-5.7,10.7-12.7,12.9 c-0.7,0.2-1.2,0.7-1.3,1.4l-1.5,6.8c-0.2,1.1,0.5,2,1.6,2.2c0.1,0,0.2,0,0.3,0h44c0.9,0,1.6-0.6,1.8-1.5l1.9-8.6 c0.2-1-0.4-2-1.4-2.2c-0.1,0-0.3,0-0.4-0.1H-2.6C0.2,17,1.8,10.2,1.3,5h11.6c0.9,0,1.7-0.6,1.9-1.5l1.5-6.8c0.2-1-0.5-2-1.5-2.2 c-0.1,0-0.3,0-0.4,0H-0.7C-0.8-6.8-0.9-8-0.9-9.1C-0.9-16.2,3.4-19.5,8.4-19.5z" class="st0"/></symbol><g><defs><rect id="SVGID_1_" width="64" height="64"/></defs><clipPath id="SVGID_00000019671894740007034100000007078247132130599824_"><use xlink:href="#SVGID_1_" style="overflow:visible"/></clipPath><g style="clip-path:url(#SVGID_00000019671894740007034100000007078247132130599824_)"><use id="XMLID_00000067953885571418941060000005233370162096284561_" width="54.2" height="64" x="-27.1" y="-32" transform="matrix(1 0 0 1 32.0296 32.0148)" xlink:href="#RGB_Pound" style="overflow:visible"/></g></g></svg>