<svg xmlns="http://www.w3.org/2000/svg" xmlns:svg="http://www.w3.org/2000/svg" xmlns:xlink="http://www.w3.org/1999/xlink" id="svg1468" width="16" height="16" version="1.1" viewBox="0 0 4.233 4.233"><title id="title16">Codeberg logo</title><defs id="defs1462"><linearGradient id="linearGradient6918" x1="42519.285" x2="42575.336" y1="-7078.789" y2="-6966.931" gradientUnits="userSpaceOnUse" xlink:href="#linearGradient6924"/><linearGradient id="linearGradient6924"><stop style="stop-color:#2185d0;stop-opacity:0" id="stop6920" offset="0"/><stop id="stop6926" offset=".495" style="stop-color:#2185d0;stop-opacity:.48923996"/><stop style="stop-color:#2185d0;stop-opacity:.63279623" id="stop6922" offset="1"/></linearGradient><linearGradient id="linearGradient6918-3" x1="42519.285" x2="42575.336" y1="-7078.789" y2="-6966.931" gradientUnits="userSpaceOnUse" xlink:href="#linearGradient6924-6"/><linearGradient id="linearGradient6924-6"><stop style="stop-color:#fff;stop-opacity:0" id="stop6920-7" offset="0"/><stop id="stop6926-5" offset=".495" style="stop-color:#fff;stop-opacity:.30000001"/><stop style="stop-color:#fff;stop-opacity:.30000001" id="stop6922-3" offset="1"/></linearGradient></defs><metadata id="metadata1465"/><g id="g370484" transform="matrix(0.06551432,0,0,0.06551432,-2.232417,-1.431776)"><path id="path6733-5" style="font-variation-settings:normal;opacity:1;vector-effect:none;fill:url(#linearGradient6918-3);fill-opacity:1;stroke:none;stroke-width:3.67846;stroke-linecap:butt;stroke-linejoin:miter;stroke-miterlimit:2;stroke-dasharray:none;stroke-dashoffset:0;stroke-opacity:1;paint-order:stroke markers fill;stop-color:#000;stop-opacity:1" d="m 42519.285,-7078.7891 a 0.76086879,0.56791688 0 0 0 -0.738,0.6739 l 33.586,125.8886 a 87.182358,87.182358 0 0 0 39.381,-33.7636 l -71.565,-92.5196 a 0.76086879,0.56791688 0 0 0 -0.664,-0.2793 z" transform="matrix(0.37058478,0,0,0.37058478,-15690.065,2662.0533)"/><path id="path360787" style="opacity:1;fill:#fff;fill-opacity:1;stroke-width:17.0055;paint-order:markers fill stroke;stop-color:#000" d="m 11249.461,-1883.6961 c -12.74,0 -23.067,10.3275 -23.067,23.0671 0,4.3335 1.22,8.5795 3.522,12.2514 l 19.232,-24.8636 c 0.138,-0.1796 0.486,-0.1796 0.624,0 l 19.233,24.8646 c 2.302,-3.6721 3.523,-7.9185 3.523,-12.2524 0,-12.7396 -10.327,-23.0671 -23.067,-23.0671 z" transform="matrix(1.4006354,0,0,1.4006354,-15690.065,2662.0533)"/></g></svg>