<svg xmlns="http://www.w3.org/2000/svg" xmlns:xlink="http://www.w3.org/1999/xlink" id="Icon" x="0" y="0" version="1.1" viewBox="0 0 500 500" style="enable-background:new 0 0 500 500" xml:space="preserve"><style type="text/css">.st0{fill:url(#SVGID_1_)}.st1{opacity:.67;fill:url(#SVGID_2_)}.st2{fill:url(#SVGID_3_)}.st3{fill:url(#SVGID_4_)}.st4{fill:url(#SVGID_5_)}.st5{fill:url(#SVGID_6_)}.st6{opacity:.67;fill:url(#SVGID_7_)}.st7{fill:url(#SVGID_8_)}.st8{fill:url(#SVGID_9_)}.st9{fill:url(#SVGID_10_)}.st10{fill:url(#SVGID_11_)}.st11{fill:url(#SVGID_12_)}.st12,.st13{opacity:.53;fill:url(#SVGID_13_)}.st13{fill:url(#SVGID_14_)}.st14{fill:url(#SVGID_15_)}.st15{fill:url(#SVGID_16_)}.st16{fill:url(#SVGID_17_)}.st17{fill:url(#SVGID_18_)}</style><g><radialGradient id="SVGID_1_" cx="-1170.989" cy="-390.199" r=".001" gradientTransform="matrix(1 0 0 1 1258.4413 532.8896)" gradientUnits="userSpaceOnUse"><stop offset="0" style="stop-color:#fff44f"/><stop offset=".295" style="stop-color:#ff980e"/><stop offset=".431" style="stop-color:#ff5d36"/><stop offset=".53" style="stop-color:#ff3750"/><stop offset=".749" style="stop-color:#f5156c"/><stop offset=".765" style="stop-color:#f1136e"/><stop offset=".88" style="stop-color:#da057a"/><stop offset=".953" style="stop-color:#d2007f"/></radialGradient><path d="M87.5,142.7L87.5,142.7L87.5,142.7z" class="st0"/><radialGradient id="SVGID_2_" cx="-1170.989" cy="-390.199" r="0" gradientTransform="matrix(1 0 0 1 1258.4413 532.8896)" gradientUnits="userSpaceOnUse"><stop offset="0" style="stop-color:#b5007f"/><stop offset="1" style="stop-color:#f5156c;stop-opacity:0"/></radialGradient><path d="M87.5,142.7L87.5,142.7L87.5,142.7z" class="st1"/><radialGradient id="SVGID_3_" cx="-1170.989" cy="-390.199" r=".001" fx="-1170.989" fy="-390.199" gradientTransform="matrix(1 0 0 1 1258.4413 532.8896)" gradientUnits="userSpaceOnUse"><stop offset="0" style="stop-color:#fd0;stop-opacity:.6"/><stop offset=".084" style="stop-color:#ffd801;stop-opacity:.5244"/><stop offset=".182" style="stop-color:#feca05;stop-opacity:.4353"/><stop offset=".288" style="stop-color:#feb20c;stop-opacity:.3394"/><stop offset=".4" style="stop-color:#fd9115;stop-opacity:.2388"/><stop offset=".515" style="stop-color:#fb6621;stop-opacity:.1343"/><stop offset=".633" style="stop-color:#f9332f;stop-opacity:2.816397e-02"/><stop offset=".664" style="stop-color:#f92433;stop-opacity:0"/></radialGradient><path d="M87.5,142.7L87.5,142.7L87.5,142.7z" class="st2"/></g><g><radialGradient id="SVGID_4_" cx="87.452" cy="142.691" r=".001" gradientUnits="userSpaceOnUse"><stop offset=".153" style="stop-color:#960e18"/><stop offset=".206" style="stop-color:#cc2335;stop-opacity:.5541"/><stop offset=".249" style="stop-color:#f13148;stop-opacity:.1914"/><stop offset=".272" style="stop-color:#ff3750;stop-opacity:0"/></radialGradient><path d="M87.5,142.7L87.5,142.7L87.5,142.7z" class="st3"/><radialGradient id="SVGID_5_" cx="87.452" cy="142.691" r=".001" gradientUnits="userSpaceOnUse"><stop offset=".113" style="stop-color:#960e18"/><stop offset=".189" style="stop-color:#cc2335;stop-opacity:.5541"/><stop offset=".252" style="stop-color:#f13148;stop-opacity:.1914"/><stop offset=".284" style="stop-color:#ff3750;stop-opacity:0"/></radialGradient><path d="M87.5,142.7L87.5,142.7L87.5,142.7z" class="st4"/></g><g><radialGradient id="SVGID_6_" cx="-845.483" cy="-409.482" r="467.083" fx="-828.777" fy="-417.739" gradientTransform="matrix(1 0 0 1 1258.4413 532.8896)" gradientUnits="userSpaceOnUse"><stop offset="0" style="stop-color:#fff44f"/><stop offset=".295" style="stop-color:#ff980e"/><stop offset=".431" style="stop-color:#ff5d36"/><stop offset=".53" style="stop-color:#ff3750"/><stop offset=".749" style="stop-color:#f5156c"/><stop offset=".765" style="stop-color:#f1136e"/><stop offset=".88" style="stop-color:#da057a"/><stop offset=".953" style="stop-color:#d2007f"/></radialGradient><path d="M415.1,124.7c-15.9-20.9-35.4-38.1-57.3-51.2c-1-0.6-2.3-0.4-3.2,0.4c0,0,0,0,0,0c-1.2,1.2-0.9,3.1,0.4,4 c40.6,26.3,71.9,68.7,79.2,125.3c15,115-65.3,211-178.3,211.3C131.7,414.9,56.1,305.1,75.9,206.5c1-4.9,0.5-9.7,2.1-14.4 c0.9-17.3,7.5-44.5,21.7-72.3c-14.3,7.4-32.5,30.8-41.5,52.4c-13,31.2-17.5,68.5-13.4,104c0.3,2.7,0.6,5.3,0.9,8 c16.7,97.8,101.9,172.2,204.4,172c114.2-0.2,207.2-93.9,206.6-208.2C456.5,201.8,441,159.1,415.1,124.7z" class="st5"/><radialGradient id="SVGID_7_" cx="-1180.906" cy="-369.159" r="269.769" fx="-1171.257" fy="-373.928" gradientTransform="matrix(1 0 0 1 1258.4413 532.8896)" gradientUnits="userSpaceOnUse"><stop offset="0" style="stop-color:#b5007f"/><stop offset="1" style="stop-color:#f5156c;stop-opacity:0"/></radialGradient><path d="M415.1,124.7c-15.9-20.9-35.4-38.1-57.3-51.2c-1-0.6-2.3-0.4-3.2,0.4c0,0,0,0,0,0c-1.2,1.2-0.9,3.1,0.4,4 c40.6,26.3,71.9,68.7,79.2,125.3c15,115-65.3,211-178.3,211.3C131.7,414.9,56.1,305.1,75.9,206.5c1-4.9,0.5-9.7,2.1-14.4 c0.9-17.3,7.5-44.5,21.7-72.3c-14.3,7.4-32.5,30.8-41.5,52.4c-13,31.2-17.5,68.5-13.4,104c0.3,2.7,0.6,5.3,0.9,8 c16.7,97.8,101.9,172.2,204.4,172c114.2-0.2,207.2-93.9,206.6-208.2C456.5,201.8,441,159.1,415.1,124.7z" class="st6"/><radialGradient id="SVGID_8_" cx="-805.376" cy="-411.981" r="511.699" fx="-787.074" fy="-421.026" gradientTransform="matrix(1 0 0 1 1258.4413 532.8896)" gradientUnits="userSpaceOnUse"><stop offset="0" style="stop-color:#fd0;stop-opacity:.6"/><stop offset=".084" style="stop-color:#ffd801;stop-opacity:.5244"/><stop offset=".182" style="stop-color:#feca05;stop-opacity:.4353"/><stop offset=".288" style="stop-color:#feb20c;stop-opacity:.3394"/><stop offset=".4" style="stop-color:#fd9115;stop-opacity:.2388"/><stop offset=".515" style="stop-color:#fb6621;stop-opacity:.1343"/><stop offset=".633" style="stop-color:#f9332f;stop-opacity:2.816397e-02"/><stop offset=".664" style="stop-color:#f92433;stop-opacity:0"/></radialGradient><path d="M415.1,124.7c-15.9-20.9-35.4-38.1-57.3-51.2c-1-0.6-2.3-0.4-3.2,0.4c0,0,0,0,0,0c-1.2,1.2-0.9,3.1,0.4,4 c40.6,26.3,71.9,68.7,79.2,125.3c15,115-65.3,211-178.3,211.3C131.7,414.9,56.1,305.1,75.9,206.5c1-4.9,0.5-9.7,2.1-14.4 c0.9-17.3,7.5-44.5,21.7-72.3c-14.3,7.4-32.5,30.8-41.5,52.4c-13,31.2-17.5,68.5-13.4,104c0.3,2.7,0.6,5.3,0.9,8 c16.7,97.8,101.9,172.2,204.4,172c114.2-0.2,207.2-93.9,206.6-208.2C456.5,201.8,441,159.1,415.1,124.7z" class="st7"/></g><g><radialGradient id="SVGID_9_" cx="-996.633" cy="-246.608" r="687.49" gradientTransform="matrix(1 0 0 1 1258.4413 532.8896)" gradientUnits="userSpaceOnUse"><stop offset=".153" style="stop-color:#960e18"/><stop offset=".206" style="stop-color:#cc2335;stop-opacity:.5541"/><stop offset=".249" style="stop-color:#f13148;stop-opacity:.1914"/><stop offset=".272" style="stop-color:#ff3750;stop-opacity:0"/></radialGradient><path d="M415.1,124.7c-15.9-20.9-35.4-38.1-57.3-51.2c-1-0.6-2.3-0.4-3.2,0.4c0,0,0,0,0,0c-1.2,1.2-0.9,3.1,0.4,4 c40.6,26.3,71.9,68.7,79.2,125.3c15,115-65.3,211-178.3,211.3C131.7,414.9,56.1,305.1,75.9,206.5c1-4.9,0.5-9.7,2.1-14.4 c0.9-17.3,7.5-44.5,21.7-72.3c-14.3,7.4-32.5,30.8-41.5,52.4c-13,31.2-17.5,68.5-13.4,104c0.3,2.7,0.6,5.3,0.9,8 c16.7,97.8,101.9,172.2,204.4,172c114.2-0.2,207.2-93.9,206.6-208.2C456.5,201.8,441,159.1,415.1,124.7z" class="st8"/><radialGradient id="SVGID_10_" cx="-1050.416" cy="-254.909" r="692.278" gradientTransform="matrix(1 0 0 1 1258.4413 532.8896)" gradientUnits="userSpaceOnUse"><stop offset=".113" style="stop-color:#960e18"/><stop offset=".189" style="stop-color:#cc2335;stop-opacity:.5541"/><stop offset=".252" style="stop-color:#f13148;stop-opacity:.1914"/><stop offset=".284" style="stop-color:#ff3750;stop-opacity:0"/></radialGradient><path d="M415.1,124.7c-15.9-20.9-35.4-38.1-57.3-51.2c-1-0.6-2.3-0.4-3.2,0.4c0,0,0,0,0,0c-1.2,1.2-0.9,3.1,0.4,4 c40.6,26.3,71.9,68.7,79.2,125.3c15,115-65.3,211-178.3,211.3C131.7,414.9,56.1,305.1,75.9,206.5c1-4.9,0.5-9.7,2.1-14.4 c0.9-17.3,7.5-44.5,21.7-72.3c-14.3,7.4-32.5,30.8-41.5,52.4c-13,31.2-17.5,68.5-13.4,104c0.3,2.7,0.6,5.3,0.9,8 c16.7,97.8,101.9,172.2,204.4,172c114.2-0.2,207.2-93.9,206.6-208.2C456.5,201.8,441,159.1,415.1,124.7z" class="st9"/></g><g><radialGradient id="SVGID_11_" cx="-946.491" cy="24.787" r="453.671" fx="-930.264" fy="16.767" gradientTransform="matrix(0.9589 0 0 0.9589 1310.671 86.1109)" gradientUnits="userSpaceOnUse"><stop offset="0" style="stop-color:#ff980e"/><stop offset=".295" style="stop-color:#ff7139"/><stop offset=".485" style="stop-color:#ff5b51"/><stop offset=".626" style="stop-color:#ff4f5e"/><stop offset=".737" style="stop-color:#ff4055"/><stop offset=".843" style="stop-color:#ff3750"/></radialGradient><path d="M439.3,197.5c-6.7-60.2-40.5-101.3-83.7-125.3c-7.2-4-16.3-2.3-21.5,4.1l-0.1,0.1c49.2,30.3,80.2,84,81.8,140 c1.9,68.1-54,122.4-118.4,125.5c-46.8,2.3-90.9-20.3-112.5-65.6c-4.8-10.1-8.3-20.3-10.1-32.7c-10.2-68.8,36.1-127.5,78.6-142.1 c-22.9-20-80.4-18.6-123.1,12.8c-30.8,22.6-50.8,57-57.4,98c-5,31.3-0.3,63.8,12.1,92.8c12.6,29.6,33.1,55.7,59,74.9 c28,20.9,61.8,33,96.6,35.6c5.1,0.4,10.3,0.6,15.4,0.6C392.7,416.4,452.1,312.8,439.3,197.5z" class="st10"/><radialGradient id="SVGID_12_" cx="-946.491" cy="41.462" r="430.371" fx="-931.098" fy="33.854" gradientTransform="matrix(0.9589 0 0 0.9589 1310.671 86.1109)" gradientUnits="userSpaceOnUse"><stop offset=".084" style="stop-color:#ffde08"/><stop offset=".208" style="stop-color:#ffd609;stop-opacity:.832"/><stop offset=".403" style="stop-color:#ffbf0b;stop-opacity:.5677"/><stop offset=".644" style="stop-color:#ff9b0f;stop-opacity:.242"/><stop offset=".822" style="stop-color:#ff7b12;stop-opacity:0"/></radialGradient><path d="M439.3,197.5c-6.7-60.2-40.5-101.3-83.7-125.3c-7.2-4-16.3-2.3-21.5,4.1l-0.1,0.1c49.2,30.3,80.2,84,81.8,140 c1.9,68.1-54,122.4-118.4,125.5c-46.8,2.3-90.9-20.3-112.5-65.6c-4.8-10.1-8.3-20.3-10.1-32.7c-10.2-68.8,36.1-127.5,78.6-142.1 c-22.9-20-80.4-18.6-123.1,12.8c-30.8,22.6-50.8,57-57.4,98c-5,31.3-0.3,63.8,12.1,92.8c12.6,29.6,33.1,55.7,59,74.9 c28,20.9,61.8,33,96.6,35.6c5.1,0.4,10.3,0.6,15.4,0.6C392.7,416.4,452.1,312.8,439.3,197.5z" class="st11"/></g><g><radialGradient id="SVGID_13_" cx="-1052.595" cy="175.21" r="216.63" gradientTransform="matrix(0.2371 0.9291 -0.9696 0.2474 720.7849 1188.7325)" gradientUnits="userSpaceOnUse"><stop offset=".363" style="stop-color:#ff3750"/><stop offset=".411" style="stop-color:#ff444b;stop-opacity:.7895"/><stop offset=".59" style="stop-color:#ff7139;stop-opacity:0"/></radialGradient><path d="M439.3,197.5c-6.7-60.2-40.5-101.3-83.7-125.3c-7.2-4-16.3-2.3-21.5,4.1l-0.1,0.1c49.2,30.3,80.2,84,81.8,140 c1.9,68.1-54,122.4-118.4,125.5c-46.8,2.3-90.9-20.3-112.5-65.6c-4.8-10.1-8.3-20.3-10.1-32.7c-10.2-68.8,36.1-127.5,78.6-142.1 c-22.9-20-80.4-18.6-123.1,12.8c-30.8,22.6-50.8,57-57.4,98c-5,31.3-0.3,63.8,12.1,92.8c12.6,29.6,33.1,55.7,59,74.9 c28,20.9,61.8,33,96.6,35.6c5.1,0.4,10.3,0.6,15.4,0.6C392.7,416.4,452.1,312.8,439.3,197.5z" class="st12"/><radialGradient id="SVGID_14_" cx="-1091.419" cy="193.066" r="219.105" gradientTransform="matrix(0.2371 0.9291 -0.9299 0.2373 702.4121 1239.4639)" gradientUnits="userSpaceOnUse"><stop offset=".216" style="stop-color:#ff3750;stop-opacity:.8"/><stop offset=".27" style="stop-color:#ff444b;stop-opacity:.6316"/><stop offset=".474" style="stop-color:#ff7139;stop-opacity:0"/></radialGradient><path d="M439.3,197.5c-6.7-60.2-40.5-101.3-83.7-125.3c-7.2-4-16.3-2.3-21.5,4.1l-0.1,0.1c49.2,30.3,80.2,84,81.8,140 c1.9,68.1-54,122.4-118.4,125.5c-46.8,2.3-90.9-20.3-112.5-65.6c-4.8-10.1-8.3-20.3-10.1-32.7c-10.2-68.8,36.1-127.5,78.6-142.1 c-22.9-20-80.4-18.6-123.1,12.8c-30.8,22.6-50.8,57-57.4,98c-5,31.3-0.3,63.8,12.1,92.8c12.6,29.6,33.1,55.7,59,74.9 c28,20.9,61.8,33,96.6,35.6c5.1,0.4,10.3,0.6,15.4,0.6C392.7,416.4,452.1,312.8,439.3,197.5z" class="st13"/></g><g><radialGradient id="SVGID_15_" cx="-854.69" cy="-27.569" r="767.539" gradientTransform="matrix(0.9589 0 0 0.9589 1310.671 86.1109)" gradientUnits="userSpaceOnUse"><stop offset=".054" style="stop-color:#fff44f"/><stop offset=".457" style="stop-color:#ff980e"/><stop offset=".521" style="stop-color:#ff8424"/><stop offset=".587" style="stop-color:#ff7634"/><stop offset=".639" style="stop-color:#ff7139"/></radialGradient><path d="M334.3,76.1c-0.1,0.1-0.1,0.2-0.2,0.3c-5.9,7.3-4.7,17.9,2.5,23.9c31,25.4,51.8,61.5,51.8,103.2 c0,57.6-44.6,101.5-96.8,98.4c-77.6-4.7-97.1-84-56.8-118.3c-10.9-2.3-31.3,2.2-45.6,23.5c-12.8,19.1-12.1,48.5-4.2,69.4 c21.6,45.2,65.7,68.4,112.5,65.6c88.4-5.4,126.2-78.3,128.6-130.2c2.6-56.3-10.1-106.2-70.3-139.8C348.5,68,339.5,69.7,334.3,76.1z" class="st14"/></g><g><linearGradient id="SVGID_16_" x1="348.303" x2="137.295" y1="80.15" y2="445.625" gradientUnits="userSpaceOnUse"><stop offset="0" style="stop-color:#fff44f;stop-opacity:.8"/><stop offset=".75" style="stop-color:#fff44f;stop-opacity:0"/></linearGradient><path d="M415.1,124.7c-5.5-7.3-11.6-14.1-18-20.5c-5.1-5.4-10.6-10.4-16.4-15.1c3.3,2.9,6.5,6,9.6,9.2 c11.2,12.1,20.1,26.4,25.2,42c10.8,32.6,10.1,73.5-10.5,105.5c-24.6,38.2-64.6,57.1-107.8,56.2c-1.9,0-3.7,0-5.6-0.1 c-77.6-4.7-97.1-84-56.8-118.3c-10.9-2.3-31.3,2.2-45.6,23.5c-12.8,19.1-12.1,48.5-4.2,69.4c-4.8-10.1-8.3-20.3-10.1-32.7 c-10.2-68.8,36.1-127.5,78.6-142.1c-22.9-20-80.4-18.6-123.1,12.8c-24.9,18.3-42.7,44.3-52.1,75.3c1.4-17.4,8-43.3,21.5-69.9 c-14.3,7.4-32.5,30.8-41.5,52.4c-13,31.2-17.5,68.5-13.4,104c0.3,2.7,0.6,5.3,0.9,8c16.6,97.6,101.7,172,204,172 c114.3,0,207-92.7,207-207C456.7,202.5,441.2,159.4,415.1,124.7z" class="st15"/></g><g><g><linearGradient id="SVGID_17_" x1="-977.317" x2="-977.317" y1="-229.679" y2="-486.51" gradientTransform="matrix(1 0 0 1 1258.4413 532.8896)" gradientUnits="userSpaceOnUse"><stop offset="0" style="stop-color:#3a8ee6"/><stop offset=".102" style="stop-color:#4d82eb"/><stop offset=".389" style="stop-color:#7d65fa"/><stop offset=".531" style="stop-color:#9059ff"/><stop offset=".692" style="stop-color:#9d50f8"/><stop offset=".989" style="stop-color:#c03ae7"/><stop offset="1" style="stop-color:#c139e6"/></linearGradient><path d="M415.5,140.3c-5.2-15.6-14-29.9-25.2-42C366.3,72.5,331,56,297,48.5c-28.6-6.3-58.6-6.2-85.6-0.5 c-29.4,6.2-55.2,18.9-71.5,34.7c56.4-33,132.4-26.9,184.4,10.1c8.7,6.2,16.8,13.3,24.1,21.1c34.6,37.3,48.7,99.6,19.6,144.4 C353.4,281,322,302.2,292.7,302c44.9,2.4,86.8-16.6,112.2-56.1C425.6,213.8,426.3,172.9,415.5,140.3z" class="st16"/></g></g><g><g><linearGradient id="SVGID_18_" x1="-1022.485" x2="-882.367" y1="-495.848" y2="-253.158" gradientTransform="matrix(1 0 0 1 1258.4413 532.8896)" gradientUnits="userSpaceOnUse"><stop offset=".805" style="stop-color:#9059ff;stop-opacity:0"/><stop offset="1" style="stop-color:#6e008b;stop-opacity:.5"/></linearGradient><path d="M415.5,140.3c-5.2-15.6-14-29.9-25.2-42C366.3,72.5,331,56,297,48.5c-28.6-6.3-58.6-6.2-85.6-0.5 c-29.4,6.2-55.2,18.9-71.5,34.7c56.4-33,132.4-26.9,184.4,10.1c8.7,6.2,16.8,13.3,24.1,21.1c34.6,37.3,48.7,99.6,19.6,144.4 C353.4,281,322,302.2,292.7,302c44.9,2.4,86.8-16.6,112.2-56.1C425.6,213.8,426.3,172.9,415.5,140.3z" class="st17"/></g></g></svg>