<svg xmlns="http://www.w3.org/2000/svg" xmlns:xlink="http://www.w3.org/1999/xlink" id="svg2" width="256" height="256" version="1.0"><defs id="defs4"><linearGradient id="linearGradient2449" x1="-344.15" x2="-395.85" y1="274.71" y2="425.4" gradientTransform="matrix(-.59146 0 0 .59146 210.02 142.23)" gradientUnits="userSpaceOnUse"><stop id="stop2557" offset="0" stop-color="#fff"/><stop id="stop2559" offset="1" stop-color="#fff" stop-opacity="0"/></linearGradient></defs><g id="layer1" transform="translate(-373.64 -318.34)"><rect id="rect1942" width="235.01" height="234.99" x="-619.15" y="328.85" fill="#ececeb" fill-rule="evenodd" stroke="#000" stroke-linecap="square" stroke-width=".5" rx="35.488" ry="35.488" transform="scale(-1,1)"/><path id="path1950" fill="url(#linearGradient2449)" fill-rule="evenodd" d="m557.06 338.9h-110.83c-29.34 0-52.96 23.8-52.96 53.38v108.13c0.95 23.08 4.6 8.49 11.56-17.08 8.08-29.71 34.39-55.68 66.44-75.14 24.46-14.86 51.84-24.34 101.68-25.25 28.27-0.51 25.77-36.68-15.89-44.04z"/><path id="path4776" fill="#0059d4" d="m115.71 124.57c0 22.289-16.629 40.357-37.143 40.357-20.513 0-37.143-18.069-37.143-40.357 0-22.289 16.629-40.357 37.143-40.357 20.513 0 37.143 18.069 37.143 40.357z" transform="translate(373.64 318.34)"/><path id="path4778" fill="#da1593" d="m215.71 127.61c0 21.993-17.109 39.821-38.214 39.821s-38.214-17.829-38.214-39.821c0-21.993 17.109-39.821 38.214-39.821s38.214 17.829 38.214 39.821z" transform="translate(368.64 314.77)"/></g></svg>