<svg xmlns="http://www.w3.org/2000/svg" xmlns:xlink="http://www.w3.org/1999/xlink" x="0" y="0" version="1.1" viewBox="120 120 365 330" style="enable-background:new 0 0 586 559" xml:space="preserve"><style type="text/css">.st3{fill:#e24329}.st4{fill:#fca326}.st5{fill:#fc6d26}.st14{display:none}.st15{opacity:.1;fill:#e828e3}.st15,.st16{display:inline}.st18{font-family:&apos;SourceSansPro-Semibold&apos;}.st19{font-size:24px}</style><g id="logo_art"><g><path id="path50_2_" d="M293.026,434.983L293.026,434.983l62.199-191.322H230.918L293.026,434.983L293.026,434.983z" class="st3"/><path id="path66_6_" d="M143.798,243.662L143.798,243.662l-18.941,58.126c-1.714,5.278,0.137,11.104,4.661,14.394 l163.509,118.801L143.798,243.662L143.798,243.662z" class="st4"/><path id="path74_2_" d="M143.798,243.662h87.12l-37.494-115.224c-1.919-5.895-10.282-5.895-12.27,0L143.798,243.662 L143.798,243.662z" class="st3"/><path id="path82_6_" d="M442.346,243.662L442.346,243.662l18.873,58.126c1.714,5.278-0.137,11.104-4.661,14.394 L293.026,434.983L442.346,243.662L442.346,243.662z" class="st4"/><path id="path86_2_" d="M442.346,243.662h-87.12l37.425-115.224c1.919-5.895,10.282-5.895,12.27,0L442.346,243.662 L442.346,243.662z" class="st3"/><polygon points="293.026 434.983 355.225 243.662 442.346 243.662" class="st5"/><polygon points="293.026 434.983 143.798 243.662 230.918 243.662" class="st5"/></g></g><g xmlns:sketch="http://www.bohemiancoding.com/sketch/ns" id="spacing_guides" class="st14"><path id="path40_18_" d="M0,0.5v124h586V0.5H0L0,0.5z" class="st15" sketch:type="MSShapeGroup"/><path id="path40_16_" d="M0,435.5v124h586v-124H0L0,435.5z" class="st15" sketch:type="MSShapeGroup"/><path id="path40_15_" d="M462.2,560h124V0h-124V560L462.2,560z" class="st15" sketch:type="MSShapeGroup"/><g class="st16"><text class="st18 st19" transform="matrix(1 0 0 1 511.2881 283.3319)">1x</text></g><g class="st16"><text class="st18 st19" transform="matrix(1 0 0 1 281.2881 500.9978)">1x</text></g><g class="st16"><text class="st18 st19" transform="matrix(1 0 0 1 281.2881 65.998)">1x</text></g><path id="path40_5_" d="M0,560h124V0H0V560L0,560z" class="st15" sketch:type="MSShapeGroup"/><g class="st16"><text class="st18 st19" transform="matrix(1 0 0 1 51.2881 283.3319)">1x</text></g></g></svg>