<svg xmlns="http://www.w3.org/2000/svg" width="24" height="24" fill="none" viewBox="0 0 24 24"><g clip-path="url(#clip0)"><path fill="#fff" d="M3.53166 18.1471L10.6358 10.8946V10.8978L10.6561 10.8786C10.6607 10.8721 10.667 10.8657 10.6747 10.8657L20.4387 0.90124C20.7322 0.603633 21.1273 0.436873 21.5389 0.436873C21.9504 0.436873 22.3455 0.603633 22.6391 0.90124C22.784 1.04756 22.8991 1.22227 22.9778 1.41512C23.0564 1.60797 23.0969 1.81508 23.0969 2.02429C23.0969 2.2335 23.0564 2.44061 22.9778 2.63346C22.8991 2.82631 22.784 3.00102 22.6391 3.14734L13.959 12.0016L22.6406 20.8543C22.7856 21.0006 22.9007 21.1753 22.9793 21.3681C23.0579 21.561 23.0984 21.7681 23.0984 21.9773C23.0984 22.1865 23.0579 22.3936 22.9793 22.5865C22.9007 22.7793 22.7856 22.954 22.6406 23.1004C22.3481 23.3999 21.9526 23.568 21.5404 23.568C21.1283 23.568 20.7328 23.3999 20.4402 23.1004L11.7555 14.2445L3.07383 23.0972C2.78033 23.3949 2.38449 23.5607 1.97285 23.5583C1.76988 23.56 1.56857 23.5203 1.38049 23.4415C1.19242 23.3627 1.02127 23.2464 0.876869 23.0992C0.732471 22.952 0.617668 22.7769 0.539047 22.5838C0.460426 22.3907 0.419536 22.1835 0.418722 21.9741V2.01947C0.419741 1.80982 0.460801 1.60244 0.539553 1.40917C0.618306 1.2159 0.733206 1.04055 0.877687 0.893124C1.02217 0.745701 1.19339 0.629104 1.38158 0.549997C1.56976 0.470891 1.77121 0.430828 1.97441 0.432097C2.38482 0.429959 2.77928 0.595899 3.07124 0.893499C3.36319 1.1911 3.52878 1.59605 3.53166 2.01947V18.1471Z"/><path fill="#fff" fill-rule="evenodd" d="M10.6561 10.8786C10.6607 10.8721 10.667 10.8657 10.6747 10.8657L20.4387 0.90124C20.7322 0.603633 21.1273 0.436873 21.5389 0.436873C21.9504 0.436873 22.3455 0.603633 22.6391 0.90124C22.784 1.04756 22.8991 1.22227 22.9778 1.41512C23.0564 1.60797 23.0969 1.81508 23.0969 2.02429C23.0969 2.2335 23.0564 2.44061 22.9778 2.63346C22.8991 2.82631 22.784 3.00102 22.6391 3.14734L13.959 12.0016L22.6406 20.8543C22.7856 21.0006 22.9007 21.1753 22.9793 21.3681C23.0579 21.561 23.0984 21.7681 23.0984 21.9773C23.0984 22.1865 23.0579 22.3936 22.9793 22.5865C22.9007 22.7793 22.7856 22.954 22.6406 23.1004C22.3481 23.3999 21.9526 23.568 21.5404 23.568C21.1283 23.568 20.7328 23.3999 20.4402 23.1004L11.7555 14.2445L3.07383 23.0972C2.78033 23.3949 2.38449 23.5607 1.97285 23.5583C1.76988 23.56 1.56857 23.5203 1.38049 23.4415C1.19242 23.3627 1.02127 23.2464 0.876869 23.0992C0.732471 22.952 0.617668 22.7769 0.539047 22.5838C0.460426 22.3907 0.419536 22.1835 0.418722 21.9741V2.01947C0.419741 1.80982 0.460801 1.60244 0.539553 1.40917C0.618306 1.2159 0.733206 1.04055 0.877687 0.893124C1.02217 0.745701 1.19339 0.629104 1.38158 0.549997C1.56976 0.470891 1.77121 0.430828 1.97441 0.432097C2.38482 0.429959 2.77928 0.595899 3.07124 0.893499C3.36319 1.1911 3.52878 1.59605 3.53166 2.01947V18.1471L10.6358 10.8946V10.8978L10.6561 10.8786ZM11.0546 9.87036V9.85931L3.95045 17.1117V2.01944L3.95044 2.01641C3.94678 1.47855 3.73644 0.964164 3.36558 0.586135C2.99528 0.208668 2.49515 -0.00205383 1.97466 2.40687e-05C1.71722 -0.00127011 1.46203 0.0496385 1.22361 0.149865C0.984464 0.250394 0.766868 0.398566 0.583262 0.585911C0.399656 0.773257 0.25364 0.996101 0.153561 1.2417C0.0534828 1.48731 0.00130415 1.75085 8.61112e-06 2.01728L0 21.9741L6.71418e-06 21.9758C0.00104117 22.2421 0.0530385 22.5056 0.153015 22.7511C0.252991 22.9966 0.398978 23.2194 0.582597 23.4065C0.766217 23.5937 0.983853 23.7416 1.22302 23.8418C1.46124 23.9416 1.71616 23.992 1.97324 23.9903C2.49457 23.9927 2.99573 23.7824 3.36749 23.4052L11.7555 14.8519L20.1453 23.407C20.1453 23.407 20.1454 23.4071 20.1453 23.407C20.5163 23.7867 21.0179 24 21.5405 24C22.0627 24 22.5637 23.7872 22.9346 23.4081C23.1189 23.2217 23.2653 22.9994 23.3654 22.7539C23.4656 22.5081 23.5172 22.244 23.5172 21.9773C23.5172 21.7105 23.4656 21.4465 23.3654 21.2006C23.2653 20.9552 23.1188 20.7327 22.9345 20.5464C22.9342 20.5461 22.9338 20.5458 22.9335 20.5454L14.5547 12.0015L22.932 3.4561C22.9318 3.45633 22.9322 3.45587 22.932 3.4561C23.1164 3.26969 23.2637 3.0465 23.3638 2.80092C23.464 2.55505 23.5157 2.291 23.5157 2.02426C23.5157 1.75753 23.464 1.49348 23.3638 1.2476C23.2636 1.0018 23.1169 0.779109 22.9322 0.592588C22.5603 0.215878 22.06 0.00480541 21.5389 0.00480541C21.0176 0.00480541 20.5171 0.216052 20.1452 0.593051L11.0546 9.87036Z" clip-rule="evenodd"/></g><defs><clipPath id="clip0"><rect width="24" height="24" fill="#fff"/></clipPath></defs></svg>