<svg xmlns="http://www.w3.org/2000/svg" xmlns:svgjs="http://svgjs.com/svgjs" xmlns:xlink="http://www.w3.org/1999/xlink" id="SvgjsSvg1001" width="288" height="288" version="1.1"><g id="SvgjsG1008"><svg xmlns="http://www.w3.org/2000/svg" width="288" height="288" viewBox="0 0 400 400"><path fill="#fff" fill-rule="evenodd" d="M243.250 5.167 C 243.067 5.245,242.741 5.315,242.525 5.322 C 242.310 5.328,241.897 5.441,241.609 5.573 C 241.320 5.705,240.821 5.932,240.500 6.079 C 239.515 6.529,239.109 6.790,238.437 7.407 C 238.082 7.733,237.726 8.000,237.646 8.000 C 237.566 8.000,237.500 8.070,237.500 8.156 C 237.500 8.241,237.176 8.635,236.781 9.031 C 236.385 9.426,235.806 10.087,235.493 10.500 C 235.181 10.912,234.886 11.287,234.838 11.333 C 234.789 11.379,234.675 11.540,234.583 11.691 C 234.492 11.842,234.173 12.315,233.875 12.741 C 233.577 13.168,233.333 13.576,233.333 13.649 C 233.333 13.722,233.183 13.917,233.000 14.083 C 232.817 14.249,232.667 14.461,232.667 14.554 C 232.667 14.648,232.542 14.861,232.390 15.030 C 232.238 15.198,232.031 15.480,231.931 15.656 C 231.736 16.001,230.804 17.574,230.000 18.917 C 229.726 19.375,229.223 20.237,228.884 20.833 C 228.544 21.429,228.207 21.942,228.133 21.972 C 228.060 22.003,228.000 22.167,228.000 22.337 C 228.000 22.508,227.932 22.689,227.848 22.741 C 227.765 22.792,227.224 23.678,226.647 24.709 C 226.070 25.740,225.539 26.608,225.466 26.639 C 225.393 26.669,225.333 26.808,225.333 26.946 C 225.333 27.085,225.202 27.398,225.042 27.642 C 224.361 28.676,223.022 30.983,222.078 32.750 C 221.931 33.025,221.629 33.550,221.408 33.917 C 221.186 34.283,220.854 34.883,220.669 35.250 C 220.484 35.617,220.172 36.179,219.975 36.500 C 219.779 36.821,219.395 37.496,219.122 38.000 C 218.849 38.504,218.506 39.104,218.360 39.333 C 217.980 39.928,217.568 40.668,217.281 41.271 C 217.145 41.558,216.951 41.844,216.850 41.906 C 216.749 41.969,216.667 42.165,216.667 42.343 C 216.667 42.521,216.600 42.667,216.518 42.667 C 216.436 42.667,216.255 42.952,216.116 43.301 C 215.683 44.382,215.944 44.347,209.903 44.144 C 204.083 43.949,193.873 44.047,190.667 44.329 C 189.612 44.422,187.512 44.569,186.000 44.657 C 184.487 44.745,182.387 44.930,181.333 45.069 C 175.391 45.849,172.631 45.981,171.116 45.556 C 170.282 45.322,169.333 44.707,169.333 44.400 C 169.333 44.354,168.939 43.776,168.456 43.116 C 167.501 41.810,166.348 40.155,166.083 39.711 C 165.992 39.557,165.826 39.331,165.714 39.209 C 165.603 39.088,165.380 38.766,165.220 38.494 C 165.059 38.222,164.869 38.000,164.797 38.000 C 164.725 38.000,164.667 37.899,164.667 37.776 C 164.667 37.653,164.517 37.416,164.333 37.250 C 164.150 37.084,164.000 36.862,164.000 36.756 C 164.000 36.650,163.869 36.413,163.708 36.231 C 163.548 36.048,163.342 35.778,163.250 35.630 C 163.158 35.482,162.540 34.568,161.875 33.598 C 161.210 32.628,160.667 31.763,160.667 31.675 C 160.667 31.588,160.570 31.457,160.453 31.383 C 160.335 31.310,159.981 30.837,159.667 30.333 C 159.352 29.829,158.998 29.357,158.881 29.283 C 158.763 29.210,158.667 29.083,158.667 29.000 C 158.667 28.918,158.423 28.501,158.125 28.075 C 157.827 27.648,157.508 27.182,157.417 27.039 C 157.325 26.896,157.152 26.660,157.033 26.515 C 156.914 26.369,156.559 25.875,156.243 25.417 C 155.928 24.958,155.350 24.142,154.960 23.604 C 154.569 23.065,154.175 22.508,154.083 22.367 C 153.992 22.225,153.826 21.991,153.715 21.847 C 153.605 21.702,153.305 21.311,153.049 20.977 C 152.793 20.644,152.471 20.204,152.333 20.000 C 152.196 19.796,151.896 19.387,151.667 19.092 C 151.438 18.796,151.100 18.344,150.917 18.086 C 150.733 17.829,150.452 17.500,150.292 17.356 C 150.131 17.211,150.000 17.003,150.000 16.894 C 150.000 16.784,149.939 16.669,149.865 16.639 C 149.791 16.608,149.407 16.152,149.012 15.625 C 148.617 15.098,148.227 14.667,148.147 14.667 C 148.066 14.667,148.000 14.582,148.000 14.477 C 148.000 14.373,147.831 14.126,147.625 13.927 C 147.419 13.728,147.048 13.344,146.802 13.074 C 146.224 12.441,145.860 12.137,145.338 11.855 C 140.688 9.335,137.242 9.109,132.500 11.012 C 132.087 11.178,131.229 11.514,130.591 11.759 C 129.255 12.273,128.941 12.408,126.955 13.325 C 126.151 13.696,125.447 14.000,125.390 14.000 C 125.273 14.000,124.058 14.553,123.144 15.022 C 122.811 15.193,122.436 15.335,122.311 15.337 C 122.186 15.339,121.896 15.487,121.667 15.667 C 121.438 15.846,121.155 15.994,121.038 15.996 C 120.922 15.998,120.172 16.306,119.372 16.680 C 117.783 17.423,117.021 17.773,115.750 18.344 C 114.932 18.712,114.625 18.856,114.042 19.144 C 113.881 19.223,113.337 19.478,112.833 19.710 C 107.598 22.123,99.749 25.951,98.167 26.863 C 98.029 26.942,97.654 27.126,97.333 27.272 C 97.013 27.418,96.712 27.585,96.667 27.644 C 96.621 27.702,96.358 27.868,96.083 28.012 C 95.808 28.156,95.402 28.381,95.180 28.512 C 94.758 28.762,93.535 29.943,93.250 30.379 C 93.158 30.518,92.840 30.982,92.542 31.408 C 92.244 31.834,92.000 32.257,92.000 32.348 C 92.000 32.438,91.869 32.712,91.708 32.957 C 91.412 33.409,91.298 33.683,90.542 35.750 C 89.923 37.446,89.809 40.823,90.317 42.442 C 90.509 43.055,90.666 43.712,90.664 43.903 C 90.663 44.094,90.806 44.737,90.983 45.333 C 91.289 46.368,91.439 46.943,91.936 49.000 C 92.058 49.504,92.390 50.742,92.673 51.750 C 92.956 52.758,93.257 53.907,93.341 54.302 C 93.425 54.698,93.604 55.373,93.738 55.802 C 93.871 56.232,94.145 57.183,94.345 57.917 C 94.546 58.650,94.821 59.614,94.958 60.060 C 95.094 60.505,95.304 61.293,95.424 61.810 C 95.544 62.327,95.755 63.125,95.891 63.583 C 96.324 65.034,97.182 68.222,97.341 68.969 C 97.425 69.365,97.604 70.040,97.738 70.469 C 97.972 71.221,98.433 72.933,98.823 74.500 C 98.926 74.912,99.236 76.112,99.512 77.167 C 100.321 80.257,100.773 79.519,94.512 85.333 C 90.534 89.028,86.609 93.069,83.667 96.501 C 83.162 97.089,82.581 97.732,82.375 97.929 C 82.169 98.127,82.000 98.373,82.000 98.477 C 82.000 98.582,81.936 98.667,81.857 98.667 C 81.779 98.667,81.243 99.267,80.667 100.000 C 80.090 100.733,79.554 101.333,79.476 101.333 C 79.397 101.333,79.333 101.443,79.333 101.577 C 79.333 101.712,79.183 101.902,79.000 102.000 C 78.817 102.098,78.667 102.253,78.667 102.345 C 78.667 102.437,77.617 103.819,76.333 105.417 C 75.050 107.014,74.000 108.399,74.000 108.494 C 74.000 108.589,73.934 108.667,73.854 108.667 C 73.773 108.667,73.379 109.098,72.979 109.625 C 72.578 110.152,72.044 110.808,71.792 111.083 C 71.541 111.358,71.335 111.672,71.334 111.780 C 71.332 112.269,70.334 112.239,67.583 111.669 C 65.305 111.196,63.177 110.796,62.250 110.667 C 61.279 110.531,59.028 110.097,56.969 109.649 C 56.173 109.475,55.349 109.333,55.138 109.333 C 54.926 109.333,54.040 109.186,53.168 109.006 C 50.794 108.517,48.490 108.077,46.167 107.671 C 45.021 107.471,43.371 107.163,42.500 106.986 C 41.629 106.809,40.721 106.665,40.482 106.666 C 40.242 106.666,39.305 106.524,38.398 106.349 C 33.209 105.349,29.593 105.357,27.333 106.375 C 25.411 107.241,23.492 108.225,23.318 108.435 C 23.212 108.562,23.051 108.667,22.960 108.667 C 22.652 108.667,20.402 111.092,19.930 111.932 C 19.780 112.199,19.471 112.717,19.242 113.083 C 19.013 113.450,18.781 113.862,18.726 114.000 C 18.671 114.138,18.345 114.850,18.002 115.583 C 17.659 116.317,17.227 117.292,17.042 117.750 C 16.857 118.208,16.551 118.958,16.363 119.417 C 15.643 121.167,14.667 123.736,14.667 123.882 C 14.667 123.965,14.558 124.269,14.424 124.558 C 14.118 125.220,13.692 126.385,13.440 127.250 C 13.333 127.617,13.115 128.172,12.956 128.484 C 12.797 128.796,12.667 129.193,12.667 129.367 C 12.667 129.541,12.542 129.923,12.390 130.217 C 12.238 130.510,12.058 130.975,11.989 131.250 C 11.920 131.525,11.627 132.387,11.338 133.167 C 11.049 133.946,10.746 134.808,10.664 135.083 C 10.413 135.934,9.828 137.557,9.575 138.109 C 9.442 138.397,9.333 138.757,9.333 138.908 C 9.333 139.060,9.223 139.397,9.088 139.657 C 8.953 139.918,8.771 140.421,8.683 140.774 C 8.595 141.128,8.392 141.792,8.232 142.250 C 7.114 145.461,6.554 147.330,5.635 150.917 C 5.062 153.149,5.056 158.589,5.625 159.551 C 5.831 159.900,6.000 160.258,6.000 160.346 C 6.000 160.571,6.869 161.888,7.123 162.050 C 7.239 162.123,7.333 162.251,7.333 162.334 C 7.333 162.460,8.124 163.279,9.347 164.420 C 9.493 164.556,9.699 164.667,9.806 164.667 C 9.913 164.667,10.000 164.724,10.000 164.794 C 10.000 164.864,10.300 165.107,10.667 165.333 C 11.033 165.560,11.333 165.803,11.333 165.873 C 11.333 165.943,11.405 166.000,11.492 166.000 C 11.688 166.000,13.229 167.021,13.306 167.202 C 13.336 167.274,13.505 167.333,13.681 167.333 C 13.856 167.333,14.000 167.407,14.000 167.497 C 14.000 167.586,14.310 167.830,14.689 168.038 C 15.068 168.246,15.501 168.492,15.650 168.583 C 16.747 169.257,17.273 169.591,17.417 169.705 C 17.956 170.134,18.883 170.667,19.091 170.667 C 19.224 170.667,19.333 170.729,19.333 170.805 C 19.333 170.881,19.540 171.049,19.792 171.178 C 20.259 171.417,20.780 171.739,21.660 172.333 C 21.931 172.517,22.269 172.667,22.410 172.667 C 22.551 172.667,22.667 172.730,22.667 172.808 C 22.667 172.886,22.967 173.085,23.333 173.250 C 23.700 173.415,24.000 173.607,24.000 173.676 C 24.000 173.744,24.206 173.881,24.458 173.979 C 24.710 174.076,25.292 174.385,25.750 174.665 C 26.208 174.944,26.733 175.250,26.917 175.345 C 27.100 175.440,27.550 175.699,27.917 175.922 C 28.283 176.144,28.902 176.493,29.292 176.696 C 29.681 176.900,30.000 177.126,30.000 177.200 C 30.000 177.273,30.120 177.333,30.266 177.333 C 30.412 177.333,30.731 177.465,30.975 177.625 C 31.878 178.220,32.096 178.346,32.667 178.605 C 32.987 178.751,33.287 178.924,33.333 178.990 C 33.379 179.056,33.642 179.223,33.917 179.361 C 34.383 179.595,34.646 179.743,36.292 180.695 C 36.635 180.894,37.179 181.197,37.500 181.368 C 37.821 181.540,38.383 181.860,38.750 182.079 C 39.117 182.298,39.642 182.597,39.917 182.743 C 40.192 182.889,40.567 183.103,40.750 183.219 C 40.933 183.334,41.458 183.635,41.917 183.887 C 42.375 184.139,43.050 184.526,43.417 184.747 C 43.783 184.969,44.261 185.230,44.478 185.328 C 44.864 185.503,44.870 185.538,44.758 187.045 C 44.511 190.377,44.622 207.753,44.910 210.917 C 45.060 212.567,45.248 214.779,45.326 215.833 C 45.405 216.887,45.584 218.575,45.724 219.583 C 46.948 228.383,46.666 229.669,43.020 231.917 C 42.872 232.008,42.712 232.124,42.667 232.175 C 42.621 232.225,42.321 232.446,42.000 232.667 C 41.679 232.887,41.379 233.108,41.333 233.159 C 41.287 233.209,41.126 233.325,40.975 233.417 C 40.824 233.508,40.352 233.827,39.925 234.125 C 39.499 234.423,39.082 234.667,39.000 234.667 C 38.917 234.667,38.790 234.763,38.717 234.881 C 38.603 235.063,37.277 236.019,36.356 236.583 C 36.206 236.675,36.046 236.791,36.000 236.842 C 35.954 236.893,35.579 237.161,35.167 237.439 C 34.754 237.717,34.042 238.196,33.583 238.505 C 33.125 238.814,32.712 239.107,32.667 239.158 C 32.621 239.209,32.463 239.325,32.317 239.417 C 31.793 239.744,30.082 240.917,30.000 241.005 C 29.914 241.098,28.168 242.290,27.689 242.583 C 27.539 242.675,27.379 242.791,27.333 242.841 C 27.287 242.892,26.988 243.113,26.667 243.333 C 26.346 243.554,26.046 243.775,26.000 243.825 C 25.954 243.876,25.795 243.992,25.646 244.083 C 25.498 244.175,24.907 244.588,24.333 245.000 C 23.760 245.412,23.169 245.825,23.020 245.917 C 22.872 246.008,22.712 246.121,22.667 246.167 C 22.371 246.462,21.162 247.333,21.047 247.333 C 20.970 247.333,20.788 247.465,20.641 247.625 C 20.494 247.785,19.994 248.179,19.528 248.500 C 19.063 248.821,18.679 249.140,18.674 249.208 C 18.670 249.277,18.571 249.333,18.454 249.333 C 18.337 249.333,18.117 249.465,17.965 249.625 C 17.651 249.959,17.591 250.007,16.292 250.985 C 15.765 251.382,15.333 251.773,15.333 251.853 C 15.333 251.934,15.223 252.000,15.089 252.000 C 14.955 252.000,14.765 252.150,14.667 252.333 C 14.569 252.517,14.416 252.667,14.328 252.667 C 14.106 252.667,12.669 254.205,12.668 254.444 C 12.667 254.551,12.604 254.664,12.528 254.694 C 12.354 254.764,11.334 256.772,11.332 257.047 C 11.332 257.158,11.213 257.475,11.069 257.750 C 10.236 259.341,10.207 263.551,11.015 265.806 C 11.190 266.296,11.333 266.840,11.333 267.015 C 11.333 267.190,11.399 267.333,11.478 267.333 C 11.558 267.333,11.719 267.690,11.837 268.125 C 11.954 268.560,12.145 269.104,12.260 269.333 C 12.526 269.862,13.166 271.316,13.656 272.500 C 14.043 273.438,14.363 274.176,14.952 275.500 C 15.259 276.188,15.484 276.691,16.332 278.583 C 16.496 278.950,16.796 279.625,16.998 280.083 C 17.200 280.542,17.504 281.217,17.673 281.583 C 18.854 284.140,19.167 284.842,19.167 284.938 C 19.167 284.998,19.504 285.751,19.917 286.610 C 20.329 287.469,20.668 288.265,20.670 288.378 C 20.672 288.491,20.821 288.771,21.000 289.000 C 21.179 289.229,21.328 289.508,21.330 289.620 C 21.332 289.732,21.549 290.257,21.813 290.787 C 22.236 291.638,22.916 293.086,23.477 294.333 C 23.580 294.563,23.731 294.862,23.812 295.000 C 23.894 295.137,24.369 296.075,24.869 297.083 C 26.161 299.689,27.012 301.241,27.185 301.306 C 27.266 301.336,27.333 301.465,27.333 301.592 C 27.333 301.720,27.830 302.557,28.438 303.454 C 32.509 309.460,38.282 311.279,46.012 308.991 C 46.614 308.813,47.246 308.667,47.417 308.667 C 47.587 308.667,48.219 308.522,48.822 308.345 C 49.866 308.038,50.906 307.755,53.792 306.992 C 54.502 306.804,55.547 306.504,56.115 306.325 C 56.682 306.146,57.268 306.000,57.417 306.000 C 57.566 306.000,58.152 305.852,58.719 305.672 C 59.286 305.491,60.275 305.201,60.917 305.027 C 63.199 304.408,64.765 303.970,65.833 303.651 C 66.429 303.474,67.029 303.328,67.167 303.328 C 67.304 303.328,67.754 303.208,68.167 303.062 C 68.579 302.915,69.329 302.697,69.833 302.577 C 71.223 302.246,72.141 302.006,73.333 301.660 C 73.929 301.487,75.054 301.187,75.833 300.993 C 76.612 300.799,77.648 300.529,78.135 300.392 C 78.621 300.255,79.389 300.085,79.842 300.014 L 80.664 299.884 82.957 302.311 C 84.218 303.647,85.700 305.220,86.250 305.807 C 86.800 306.394,87.869 307.506,88.625 308.278 C 89.381 309.050,90.000 309.753,90.000 309.841 C 90.000 309.928,90.081 310.000,90.181 310.000 C 90.280 310.000,90.949 310.600,91.667 311.333 C 92.384 312.067,93.004 312.667,93.044 312.667 C 93.085 312.667,93.646 313.179,94.292 313.805 C 94.938 314.431,96.037 315.422,96.733 316.008 C 97.430 316.594,98.000 317.132,98.000 317.203 C 98.000 317.275,98.085 317.333,98.189 317.333 C 98.293 317.333,98.541 317.502,98.740 317.708 C 99.127 318.110,99.560 318.485,101.002 319.667 C 101.505 320.079,101.942 320.473,101.972 320.542 C 102.003 320.610,102.131 320.667,102.258 320.667 C 102.385 320.667,102.569 320.817,102.667 321.000 C 102.765 321.183,102.955 321.333,103.089 321.333 C 103.223 321.333,103.333 321.395,103.333 321.471 C 103.333 321.547,103.783 321.935,104.333 322.333 C 104.883 322.732,105.333 323.120,105.333 323.196 C 105.333 323.271,105.443 323.333,105.577 323.333 C 105.712 323.333,105.902 323.483,106.000 323.667 C 106.098 323.850,106.282 324.000,106.409 324.000 C 106.535 324.000,106.664 324.061,106.694 324.135 C 106.725 324.209,107.181 324.593,107.708 324.988 C 108.235 325.383,108.667 325.773,108.667 325.853 C 108.667 325.934,108.762 326.000,108.880 326.000 C 108.997 326.000,109.216 326.131,109.368 326.292 C 109.519 326.452,109.743 326.658,109.864 326.750 C 111.490 327.978,112.000 328.391,112.000 328.481 C 112.000 328.540,112.169 328.662,112.375 328.752 C 112.842 328.957,112.821 330.206,112.319 332.156 C 112.144 332.838,112.001 333.588,112.003 333.823 C 112.004 334.058,111.860 334.925,111.681 335.750 C 111.234 337.822,110.809 340.075,110.660 341.167 C 110.591 341.671,110.422 342.608,110.284 343.250 C 110.146 343.892,109.868 345.354,109.666 346.500 C 109.464 347.646,109.156 349.221,108.982 350.000 C 108.808 350.779,108.666 351.590,108.666 351.802 C 108.667 352.014,108.522 352.876,108.346 353.719 C 108.169 354.561,107.870 356.150,107.682 357.250 C 107.493 358.350,107.214 359.925,107.062 360.750 C 106.910 361.575,106.729 362.850,106.660 363.583 C 106.591 364.317,106.443 365.704,106.330 366.667 C 106.062 368.969,106.272 371.084,106.918 372.583 C 107.357 373.604,108.862 376.553,109.053 376.768 C 109.161 376.891,109.470 377.274,109.739 377.620 C 110.209 378.224,112.185 380.000,112.387 380.000 C 112.441 380.000,112.758 380.185,113.091 380.411 C 113.759 380.864,117.399 382.667,117.646 382.667 C 117.732 382.667,118.090 382.806,118.443 382.977 C 119.796 383.633,120.685 384.000,120.917 384.000 C 121.050 384.000,121.404 384.150,121.704 384.333 C 122.004 384.516,122.379 384.666,122.537 384.666 C 122.695 384.666,123.145 384.812,123.537 384.989 C 124.237 385.306,125.178 385.661,127.000 386.297 C 127.504 386.472,128.160 386.703,128.458 386.808 C 128.756 386.914,129.244 387.085,129.542 387.189 C 129.840 387.293,130.421 387.507,130.833 387.665 C 131.765 388.021,133.090 388.476,133.750 388.668 C 134.025 388.747,134.775 389.013,135.417 389.258 C 136.058 389.502,136.883 389.792,137.250 389.902 C 137.617 390.012,138.207 390.229,138.562 390.384 C 138.917 390.539,139.312 390.667,139.439 390.667 C 139.566 390.667,139.988 390.804,140.377 390.973 C 141.367 391.402,142.674 391.859,143.167 391.949 C 143.579 392.024,144.145 392.234,144.706 392.519 C 144.865 392.600,145.114 392.667,145.258 392.667 C 145.503 392.667,146.384 392.930,148.684 393.691 C 149.197 393.861,149.748 394.000,149.908 394.000 C 150.068 394.000,150.697 394.142,151.307 394.315 C 152.704 394.711,154.899 395.000,156.509 395.000 C 158.723 394.999,160.044 394.627,162.199 393.394 C 163.319 392.753,165.448 390.370,166.794 388.249 C 167.358 387.361,167.659 386.901,167.782 386.741 C 168.008 386.446,168.313 385.947,168.668 385.292 C 168.854 384.948,169.080 384.667,169.170 384.667 C 169.260 384.667,169.333 384.557,169.333 384.424 C 169.333 384.219,169.826 383.356,170.289 382.750 C 170.569 382.384,171.333 381.169,171.333 381.090 C 171.333 381.044,171.613 380.574,171.956 380.045 C 172.298 379.516,172.661 378.933,172.763 378.750 C 172.864 378.567,173.151 378.079,173.399 377.667 C 173.647 377.254,173.938 376.710,174.045 376.458 C 174.152 376.206,174.287 376.000,174.345 376.000 C 174.402 376.000,174.585 375.700,174.750 375.333 C 174.915 374.967,175.114 374.667,175.192 374.667 C 175.270 374.667,175.333 374.523,175.333 374.347 C 175.333 374.172,175.393 374.003,175.466 373.972 C 175.539 373.942,176.079 373.054,176.667 372.000 C 177.254 370.946,177.795 370.058,177.867 370.028 C 177.940 369.997,178.000 369.833,178.000 369.663 C 178.000 369.492,178.083 369.302,178.184 369.239 C 178.285 369.177,178.475 368.891,178.606 368.605 C 178.738 368.318,179.054 367.746,179.308 367.333 C 179.563 366.921,180.059 366.058,180.410 365.417 C 181.072 364.206,181.263 363.870,181.926 362.750 C 182.142 362.383,182.460 361.821,182.632 361.500 C 182.803 361.179,183.106 360.635,183.305 360.292 C 184.257 358.646,184.405 358.383,184.639 357.917 C 184.777 357.642,184.944 357.379,185.010 357.333 C 185.076 357.287,185.254 356.988,185.407 356.667 C 185.560 356.346,185.775 355.907,185.884 355.692 L 186.083 355.300 194.750 355.411 C 206.457 355.560,211.788 355.325,219.167 354.334 C 220.496 354.156,223.074 353.880,224.896 353.721 L 228.209 353.432 228.622 353.924 C 228.849 354.195,229.252 354.668,229.517 354.974 C 229.783 355.281,230.000 355.558,230.000 355.591 C 230.000 355.663,231.673 357.886,231.814 358.000 C 231.870 358.046,231.992 358.205,232.083 358.354 C 232.175 358.502,232.588 359.093,233.000 359.667 C 233.412 360.240,233.825 360.829,233.917 360.976 C 234.008 361.122,234.165 361.319,234.266 361.413 C 234.446 361.581,235.094 362.485,235.417 363.018 C 235.508 363.170,235.921 363.762,236.333 364.335 C 236.746 364.908,237.158 365.498,237.250 365.646 C 237.342 365.795,237.458 365.954,237.509 366.000 C 237.721 366.193,238.667 367.696,238.667 367.842 C 238.667 367.929,238.740 368.000,238.829 368.000 C 238.918 368.000,239.104 368.218,239.242 368.484 C 239.380 368.751,239.588 369.072,239.704 369.200 C 239.821 369.327,239.992 369.550,240.083 369.696 C 240.429 370.246,241.575 371.920,241.661 372.000 C 241.741 372.074,242.805 373.620,243.250 374.308 C 243.342 374.449,243.548 374.715,243.708 374.897 C 243.869 375.080,244.000 375.290,244.000 375.365 C 244.000 375.439,244.131 375.638,244.292 375.806 C 244.452 375.975,244.658 376.228,244.750 376.368 C 244.842 376.509,245.254 377.093,245.667 377.667 C 246.079 378.240,246.492 378.831,246.583 378.980 C 246.675 379.128,246.796 379.287,246.853 379.333 C 247.101 379.535,248.667 381.700,248.667 381.842 C 248.667 381.929,248.737 382.000,248.823 382.000 C 248.909 382.000,249.294 382.450,249.680 383.000 C 250.066 383.550,250.446 384.000,250.524 384.000 C 250.603 384.000,250.668 384.094,250.669 384.208 C 250.670 384.323,250.951 384.724,251.294 385.100 C 251.636 385.476,252.281 386.211,252.725 386.734 C 253.567 387.723,254.504 388.419,255.500 388.794 C 260.239 390.582,262.727 390.626,266.833 388.997 C 269.467 387.952,270.978 387.297,273.705 386.016 C 274.505 385.641,275.202 385.333,275.254 385.333 C 275.306 385.333,275.927 385.065,276.633 384.737 C 279.425 383.440,279.760 383.283,280.042 383.144 C 280.202 383.065,280.465 382.935,280.625 382.856 C 280.785 382.777,281.329 382.522,281.833 382.290 C 282.337 382.057,283.331 381.597,284.042 381.267 C 284.752 380.937,285.915 380.397,286.625 380.066 C 287.335 379.736,288.329 379.276,288.833 379.044 C 289.337 378.811,289.881 378.556,290.042 378.477 C 290.550 378.226,290.896 378.062,291.667 377.706 C 297.759 374.889,303.821 371.814,303.972 371.462 C 304.003 371.391,304.134 371.333,304.264 371.333 C 304.394 371.333,304.639 371.202,304.810 371.042 C 304.980 370.881,305.386 370.546,305.711 370.297 C 306.214 369.911,307.333 368.489,307.333 368.236 C 307.333 368.191,307.465 367.955,307.625 367.710 C 307.785 367.465,308.003 367.037,308.109 366.757 C 308.215 366.478,308.515 365.688,308.776 365.000 C 309.782 362.349,309.435 358.014,307.636 350.750 C 307.142 348.753,306.164 345.138,305.000 341.000 C 304.832 340.404,304.529 339.317,304.327 338.583 C 304.124 337.850,303.818 336.784,303.646 336.215 C 303.474 335.646,303.333 335.051,303.333 334.894 C 303.333 334.736,303.189 334.114,303.012 333.512 C 302.407 331.454,301.772 329.003,301.002 325.750 C 300.806 324.925,300.501 323.678,300.323 322.980 C 299.618 320.209,300.026 319.314,303.042 317.021 C 303.569 316.621,304.000 316.227,304.000 316.146 C 304.000 316.066,304.083 316.000,304.185 316.000 C 304.287 316.000,304.803 315.550,305.333 315.000 C 305.863 314.450,306.338 314.000,306.387 314.000 C 306.437 314.000,306.989 313.470,307.614 312.822 C 308.239 312.175,309.481 310.902,310.375 309.994 C 311.269 309.086,312.000 308.303,312.000 308.254 C 312.000 308.206,312.288 307.885,312.640 307.541 C 312.992 307.198,313.945 306.167,314.757 305.250 C 317.064 302.648,317.226 302.469,317.625 302.079 C 317.831 301.877,318.000 301.627,318.000 301.523 C 318.000 301.418,318.062 301.333,318.138 301.333 C 318.213 301.333,318.682 300.831,319.179 300.216 C 320.036 299.157,320.536 298.566,321.052 298.000 C 321.178 297.862,321.684 297.225,322.178 296.583 C 322.672 295.942,323.116 295.379,323.165 295.333 C 323.214 295.287,323.591 294.837,324.002 294.333 C 327.543 289.992,329.351 288.419,330.621 288.577 C 331.797 288.723,335.190 289.309,337.000 289.678 C 337.871 289.856,338.771 290.001,339.000 290.000 C 339.229 289.999,340.129 290.145,341.000 290.324 C 341.871 290.504,343.371 290.798,344.333 290.978 C 345.296 291.159,346.533 291.391,347.083 291.495 C 347.633 291.599,348.533 291.759,349.083 291.851 C 349.633 291.943,350.796 292.159,351.667 292.331 C 354.345 292.863,356.209 293.200,357.167 293.326 C 357.671 293.392,358.758 293.570,359.583 293.719 C 365.494 294.793,370.063 295.008,372.167 294.311 C 374.028 293.695,375.069 293.271,375.481 292.964 C 375.699 292.800,375.969 292.667,376.080 292.667 C 376.191 292.667,376.417 292.517,376.583 292.333 C 376.749 292.150,376.947 292.000,377.023 292.000 C 377.900 292.000,379.696 289.338,381.072 286.000 C 381.318 285.404,381.627 284.718,381.760 284.474 C 381.892 284.231,382.000 283.949,382.000 283.847 C 382.000 283.675,382.239 283.089,383.013 281.371 C 383.189 280.979,383.333 280.543,383.333 280.404 C 383.333 280.264,383.475 279.872,383.648 279.533 C 383.822 279.194,384.054 278.654,384.164 278.333 C 384.274 278.012,384.500 277.412,384.667 277.000 C 384.833 276.587,385.062 275.987,385.175 275.667 C 385.288 275.346,385.520 274.795,385.690 274.443 C 385.861 274.090,386.000 273.689,386.000 273.551 C 386.000 273.413,386.109 273.064,386.243 272.775 C 386.493 272.233,386.772 271.475,387.357 269.750 C 387.543 269.200,387.764 268.679,387.848 268.592 C 387.931 268.505,388.000 268.295,388.000 268.125 C 388.000 267.956,388.150 267.507,388.333 267.127 C 388.517 266.748,388.667 266.332,388.667 266.202 C 388.667 266.073,388.775 265.731,388.908 265.442 C 389.161 264.890,389.746 263.267,389.998 262.417 C 390.079 262.142,390.382 261.279,390.671 260.500 C 390.961 259.721,391.257 258.858,391.331 258.583 C 391.483 258.016,391.901 256.802,392.357 255.603 C 392.527 255.155,392.667 254.626,392.667 254.428 C 392.667 254.229,392.737 253.995,392.823 253.908 C 392.964 253.765,393.414 252.327,393.862 250.583 C 393.957 250.217,394.194 249.354,394.390 248.667 C 394.698 247.585,394.746 246.980,394.748 244.167 L 394.750 240.917 394.223 239.975 C 393.467 238.623,393.121 238.102,392.879 237.950 C 392.762 237.877,392.667 237.751,392.667 237.672 C 392.667 237.522,391.394 236.214,390.960 235.917 C 390.826 235.825,390.274 235.450,389.733 235.083 C 389.192 234.717,388.675 234.356,388.583 234.282 C 388.197 233.970,386.126 232.667,386.016 232.667 C 385.950 232.667,385.751 232.532,385.573 232.367 C 385.395 232.202,385.137 232.016,385.000 231.953 C 384.863 231.891,384.450 231.653,384.083 231.424 C 383.717 231.195,383.154 230.854,382.833 230.666 C 382.512 230.478,382.025 230.178,381.750 230.000 C 381.475 229.822,380.988 229.522,380.667 229.334 C 380.346 229.145,379.858 228.854,379.583 228.686 C 378.202 227.843,377.542 227.474,377.125 227.312 C 376.873 227.214,376.667 227.074,376.667 227.000 C 376.667 226.926,376.460 226.786,376.208 226.688 C 375.956 226.590,375.375 226.281,374.917 226.002 C 374.458 225.722,373.933 225.416,373.750 225.322 C 373.567 225.227,373.117 224.969,372.750 224.748 C 372.383 224.527,371.821 224.207,371.500 224.035 C 371.179 223.863,370.617 223.550,370.250 223.338 C 369.883 223.126,369.246 222.766,368.833 222.538 C 367.711 221.917,366.046 220.964,365.359 220.550 C 365.024 220.348,364.656 220.141,364.542 220.091 C 364.427 220.041,364.240 219.959,364.125 219.909 C 364.010 219.859,363.643 219.652,363.308 219.450 C 362.619 219.035,360.950 218.080,359.833 217.462 C 359.421 217.234,358.746 216.847,358.333 216.602 C 357.921 216.357,357.377 216.077,357.125 215.979 C 356.873 215.881,356.667 215.740,356.667 215.667 C 356.667 215.593,356.436 215.452,356.153 215.354 L 355.640 215.175 355.755 206.712 C 355.833 200.990,355.807 196.982,355.675 194.333 C 355.567 192.179,355.417 189.104,355.341 187.500 C 355.264 185.896,355.079 183.533,354.928 182.250 C 354.537 178.917,353.734 172.922,353.554 171.991 C 353.474 171.578,353.944 171.149,355.650 170.083 C 355.797 169.992,355.954 169.877,356.000 169.829 C 356.233 169.584,359.542 167.333,359.669 167.333 C 359.750 167.333,359.877 167.239,359.950 167.125 C 360.061 166.951,361.106 166.194,362.308 165.417 C 362.602 165.226,362.575 165.245,363.931 164.270 C 364.489 163.869,365.102 163.457,365.293 163.355 C 365.484 163.253,365.743 163.075,365.869 162.959 C 365.995 162.844,366.217 162.675,366.363 162.583 C 366.957 162.210,368.589 161.088,368.667 161.000 C 368.744 160.912,370.376 159.790,370.971 159.417 C 371.117 159.325,371.340 159.155,371.467 159.038 C 371.594 158.921,371.916 158.713,372.182 158.575 C 372.449 158.437,372.667 158.252,372.667 158.162 C 372.667 158.073,372.770 158.000,372.896 158.000 C 373.023 158.000,373.216 157.892,373.325 157.760 C 373.435 157.628,373.631 157.561,373.762 157.611 C 373.896 157.662,374.000 157.603,374.001 157.476 C 374.002 157.352,374.283 157.063,374.626 156.833 C 374.969 156.604,375.325 156.357,375.417 156.285 C 375.758 156.015,380.042 152.910,380.295 152.750 C 380.649 152.525,380.921 152.317,382.030 151.427 C 382.551 151.009,383.058 150.667,383.155 150.667 C 383.253 150.667,383.333 150.598,383.333 150.514 C 383.333 150.430,383.727 150.079,384.208 149.733 C 384.690 149.386,385.210 148.986,385.364 148.843 C 385.519 148.700,385.953 148.321,386.329 148.000 C 387.450 147.043,388.435 146.016,388.750 145.477 C 388.842 145.320,389.129 144.829,389.388 144.387 C 390.880 141.844,390.937 139.779,389.636 135.417 C 389.445 134.775,389.148 133.962,388.977 133.609 C 388.806 133.257,388.667 132.833,388.667 132.667 C 388.667 132.501,388.524 132.076,388.351 131.724 C 388.177 131.372,387.834 130.596,387.588 130.000 C 386.849 128.209,386.355 127.080,384.961 124.000 C 384.774 123.587,384.488 122.950,384.326 122.583 C 384.021 121.896,383.368 120.441,383.166 120.000 C 383.104 119.862,382.971 119.600,382.873 119.417 C 382.774 119.233,382.454 118.558,382.162 117.917 C 381.605 116.691,381.112 115.625,380.086 113.417 C 379.745 112.683,379.276 111.671,379.044 111.167 C 378.811 110.662,378.556 110.119,378.477 109.958 C 378.398 109.798,378.269 109.535,378.189 109.375 C 378.110 109.215,377.855 108.671,377.623 108.167 C 377.131 107.100,376.299 105.305,375.420 103.417 C 375.079 102.683,374.609 101.671,374.377 101.167 C 374.145 100.662,373.890 100.119,373.811 99.958 C 373.731 99.798,373.602 99.535,373.523 99.375 C 373.444 99.215,373.189 98.671,372.956 98.167 C 372.724 97.662,372.274 96.688,371.956 96.000 C 371.637 95.313,371.252 94.450,371.098 94.083 C 369.588 90.470,363.615 88.628,358.833 90.300 C 358.421 90.445,357.783 90.620,357.417 90.689 C 357.050 90.759,355.925 91.050,354.917 91.336 C 353.908 91.621,352.821 91.914,352.500 91.985 C 352.179 92.056,351.467 92.245,350.917 92.404 C 349.472 92.823,347.874 93.261,346.917 93.501 C 346.458 93.616,345.446 93.892,344.667 94.113 C 343.887 94.335,342.912 94.582,342.500 94.662 C 342.087 94.742,341.471 94.926,341.130 95.070 C 340.790 95.215,340.371 95.333,340.200 95.333 C 340.029 95.333,339.408 95.476,338.820 95.650 C 337.699 95.982,335.733 96.499,331.167 97.663 C 324.326 99.406,321.785 100.000,321.165 100.000 C 320.710 100.000,319.881 99.228,313.950 93.283 C 310.265 89.588,306.469 85.857,305.514 84.991 C 304.560 84.125,303.613 83.248,303.412 83.042 C 303.210 82.835,302.998 82.667,302.941 82.667 C 302.883 82.667,302.629 82.451,302.376 82.187 C 302.124 81.924,301.354 81.240,300.667 80.668 C 299.979 80.097,299.392 79.562,299.361 79.481 C 299.331 79.400,299.202 79.333,299.075 79.333 C 298.949 79.333,298.765 79.183,298.667 79.000 C 298.569 78.817,298.378 78.667,298.244 78.667 C 298.110 78.667,298.000 78.608,298.000 78.535 C 298.000 78.463,295.894 76.719,293.320 74.660 L 288.641 70.917 288.709 70.250 C 288.774 69.611,289.008 68.347,289.667 65.083 C 289.833 64.258,290.047 63.133,290.143 62.583 C 290.238 62.033,290.401 61.133,290.505 60.583 C 290.609 60.033,290.840 58.796,291.020 57.833 C 291.199 56.871,291.488 55.333,291.663 54.417 C 292.013 52.574,292.481 50.043,292.986 47.250 C 293.169 46.242,293.438 44.779,293.585 44.000 C 293.733 43.221,293.925 42.021,294.014 41.333 C 294.102 40.646,294.248 39.708,294.338 39.250 C 294.492 38.459,294.583 37.629,295.004 33.167 C 295.243 30.633,294.875 26.591,294.345 25.923 C 294.269 25.828,294.150 25.563,294.080 25.333 C 293.885 24.699,292.574 22.782,291.864 22.093 C 291.132 21.382,291.107 21.367,288.725 20.187 C 286.497 19.083,286.403 19.036,286.042 18.849 C 285.881 18.766,285.262 18.498,284.667 18.254 C 284.071 18.010,283.433 17.745,283.250 17.667 C 283.067 17.588,282.429 17.323,281.833 17.078 C 281.237 16.833,280.442 16.491,280.065 16.316 C 279.688 16.142,279.272 16.000,279.140 16.000 C 279.008 16.000,278.829 15.937,278.742 15.860 C 278.595 15.731,277.041 15.113,274.833 14.307 C 274.329 14.122,273.579 13.837,273.167 13.673 C 272.754 13.508,272.004 13.223,271.500 13.039 C 270.996 12.856,270.321 12.610,270.000 12.493 C 269.679 12.376,269.345 12.217,269.258 12.140 C 269.171 12.063,268.942 12.000,268.748 12.000 C 268.554 12.000,268.085 11.850,267.706 11.667 C 267.327 11.483,266.897 11.333,266.751 11.333 C 266.606 11.333,266.193 11.183,265.833 11.000 C 265.474 10.817,265.046 10.666,264.882 10.666 C 264.718 10.665,264.396 10.569,264.167 10.451 C 263.938 10.334,262.063 9.689,260.000 9.018 C 257.938 8.348,255.987 7.703,255.667 7.585 C 255.346 7.468,254.483 7.207,253.750 7.006 C 253.017 6.804,251.967 6.503,251.417 6.336 C 250.356 6.014,248.168 5.478,246.696 5.180 C 245.655 4.969,243.727 4.962,243.250 5.167 M188.250 106.503 C 188.800 106.611,189.626 106.842,190.087 107.017 C 190.547 107.191,190.981 107.333,191.052 107.333 C 191.191 107.333,193.037 108.224,193.583 108.555 C 194.665 109.210,195.335 109.694,195.791 110.150 C 196.075 110.434,196.348 110.667,196.396 110.667 C 196.546 110.667,197.333 111.506,197.333 111.666 C 197.333 111.749,197.437 111.877,197.565 111.950 C 197.901 112.144,200.000 114.832,200.000 115.069 C 200.000 115.115,200.184 115.423,200.409 115.755 C 200.901 116.479,202.372 119.470,202.746 120.507 C 204.219 124.586,204.896 127.277,205.698 132.250 C 206.207 135.401,206.255 146.267,205.773 149.167 C 205.613 150.129,205.445 151.329,205.399 151.833 C 205.251 153.473,204.231 159.238,203.658 161.667 C 203.475 162.446,203.327 163.221,203.329 163.389 C 203.331 163.558,203.190 164.233,203.015 164.889 C 202.840 165.546,202.536 166.721,202.340 167.500 C 201.651 170.236,200.974 172.666,200.412 174.417 C 200.265 174.875,200.085 175.512,200.012 175.833 C 199.939 176.154,199.768 176.717,199.632 177.083 C 199.496 177.450,199.216 178.313,199.010 179.000 C 198.804 179.688,198.520 180.512,198.378 180.833 C 198.237 181.154,198.063 181.642,197.990 181.917 C 197.918 182.192,197.669 182.942,197.437 183.583 C 197.204 184.225,196.897 185.088,196.753 185.500 C 196.609 185.912,196.420 186.400,196.333 186.583 C 196.247 186.767,196.061 187.235,195.921 187.625 C 195.293 189.374,195.137 189.782,194.909 190.275 C 194.776 190.564,194.667 190.881,194.667 190.978 C 194.667 191.076,194.517 191.424,194.333 191.750 C 194.150 192.076,194.000 192.427,194.000 192.528 C 194.000 192.630,193.840 193.059,193.644 193.482 C 193.194 194.451,192.812 195.334,192.338 196.500 C 191.977 197.389,191.739 197.930,191.020 199.500 C 190.831 199.912,190.440 200.775,190.151 201.417 C 187.897 206.414,184.320 213.649,181.994 217.917 C 181.744 218.375,181.331 219.162,181.077 219.667 C 180.822 220.171,180.476 220.782,180.307 221.026 C 180.138 221.269,180.000 221.588,180.000 221.734 C 180.000 221.880,179.933 222.000,179.851 222.000 C 179.770 222.000,179.576 222.281,179.422 222.625 C 179.060 223.429,178.557 224.371,178.375 224.583 C 178.296 224.675,178.117 224.975,177.977 225.250 C 177.836 225.525,177.547 226.050,177.335 226.417 C 177.122 226.783,176.687 227.571,176.367 228.167 C 176.047 228.762,175.698 229.362,175.592 229.500 C 175.485 229.637,175.308 229.938,175.198 230.167 C 175.087 230.396,174.859 230.808,174.689 231.083 C 173.895 232.371,173.475 233.121,173.312 233.542 C 173.214 233.794,173.078 234.000,173.009 234.000 C 172.940 234.000,172.749 234.300,172.583 234.667 C 172.418 235.033,172.219 235.333,172.141 235.333 C 172.064 235.333,172.000 235.483,172.000 235.667 C 172.000 235.850,171.936 236.000,171.859 236.000 C 171.781 236.000,171.582 236.300,171.417 236.667 C 171.251 237.033,171.064 237.333,171.000 237.333 C 170.936 237.333,170.749 237.633,170.583 238.000 C 170.418 238.367,170.219 238.667,170.141 238.667 C 170.064 238.667,170.000 238.817,170.000 239.000 C 170.000 239.183,169.934 239.333,169.852 239.333 C 169.771 239.333,169.582 239.593,169.431 239.910 C 169.281 240.227,169.080 240.534,168.985 240.592 C 168.890 240.651,168.744 240.861,168.659 241.058 C 168.473 241.493,167.935 242.364,167.208 243.406 C 166.910 243.834,166.667 244.213,166.667 244.250 C 166.667 244.381,165.594 245.918,165.465 245.972 C 165.393 246.003,165.333 246.098,165.333 246.183 C 165.333 246.354,164.005 248.258,163.592 248.681 C 163.450 248.826,163.333 249.032,163.333 249.139 C 163.333 249.246,163.271 249.333,163.196 249.333 C 163.120 249.333,162.732 249.783,162.333 250.333 C 161.935 250.883,161.547 251.333,161.471 251.333 C 161.395 251.333,161.333 251.437,161.333 251.563 C 161.333 251.689,161.223 251.884,161.089 251.995 C 160.616 252.387,159.098 254.725,158.433 256.083 C 157.435 258.125,157.417 258.190,157.417 259.917 C 157.417 262.142,158.673 265.773,159.753 266.670 C 159.889 266.782,160.000 266.948,160.000 267.038 C 160.000 267.252,163.415 270.667,163.629 270.667 C 163.719 270.667,163.885 270.778,163.997 270.913 C 164.110 271.049,164.400 271.260,164.643 271.383 C 164.885 271.505,165.233 271.689,165.417 271.792 C 166.217 272.240,166.974 272.533,167.750 272.694 C 168.208 272.789,168.883 272.931,169.250 273.010 C 171.063 273.397,175.649 272.949,176.998 272.251 C 177.265 272.113,177.570 272.000,177.676 272.000 C 177.849 272.000,180.756 270.597,181.586 270.113 C 182.358 269.662,183.256 269.095,183.333 269.008 C 183.379 268.957,183.717 268.711,184.083 268.461 C 184.450 268.211,184.952 267.836,185.198 267.628 C 185.445 267.420,185.970 266.990,186.365 266.673 C 187.196 266.005,193.333 259.905,193.333 259.746 C 193.333 259.688,193.635 259.328,194.004 258.945 C 194.374 258.563,194.775 258.137,194.898 258.000 C 195.398 257.437,196.499 255.686,196.943 254.750 L 197.417 253.750 197.390 250.000 C 197.371 247.374,197.281 245.775,197.088 244.667 C 196.937 243.796,196.748 242.371,196.668 241.500 C 196.588 240.629,196.434 239.092,196.325 238.083 C 196.113 236.121,196.385 229.394,196.937 222.917 C 197.078 221.267,197.254 219.017,197.329 217.917 C 197.560 214.546,198.749 204.434,199.510 199.375 C 200.391 193.519,201.078 189.663,202.325 183.583 C 203.208 179.276,203.381 178.495,203.678 177.488 C 203.855 176.886,204.000 176.204,204.000 175.973 C 204.000 175.741,204.150 175.116,204.333 174.583 C 204.517 174.050,204.667 173.463,204.667 173.277 C 204.667 173.092,204.811 172.447,204.988 171.845 C 205.165 171.243,205.472 170.150,205.669 169.417 C 206.277 167.163,206.610 166.002,207.703 162.333 C 207.880 161.737,208.141 160.912,208.282 160.500 C 208.423 160.087,208.599 159.487,208.673 159.167 C 208.796 158.633,209.031 157.907,209.592 156.333 C 209.706 156.012,210.002 155.075,210.249 154.250 C 210.496 153.425,210.829 152.375,210.988 151.917 C 211.148 151.458,211.448 150.521,211.655 149.833 C 211.862 149.146,212.146 148.321,212.285 148.000 C 212.424 147.679,212.635 147.079,212.753 146.667 C 213.021 145.736,213.438 144.583,213.757 143.891 C 213.891 143.603,214.000 143.265,214.001 143.141 C 214.001 143.018,214.151 142.671,214.334 142.371 C 214.517 142.071,214.667 141.742,214.667 141.639 C 214.667 141.425,214.961 140.779,216.476 137.667 C 217.078 136.429,217.614 135.379,217.667 135.333 C 217.753 135.258,218.488 133.861,219.376 132.083 C 219.560 131.717,219.775 131.392,219.855 131.361 C 219.935 131.331,220.000 131.192,220.000 131.054 C 220.000 130.915,220.138 130.602,220.306 130.359 C 220.475 130.116,220.661 129.804,220.719 129.667 C 220.778 129.529,221.015 129.117,221.245 128.750 C 221.475 128.383,221.829 127.765,222.032 127.375 C 222.234 126.985,222.460 126.667,222.533 126.667 C 222.607 126.667,222.667 126.551,222.667 126.410 C 222.667 126.268,222.745 126.062,222.840 125.951 C 222.935 125.841,223.417 125.112,223.911 124.333 C 224.405 123.554,224.872 122.842,224.949 122.750 C 225.099 122.571,226.308 120.803,226.583 120.359 C 226.675 120.212,226.831 120.014,226.930 119.921 C 227.029 119.827,227.392 119.356,227.736 118.875 C 228.080 118.394,228.430 118.000,228.514 118.000 C 228.598 118.000,228.667 117.890,228.667 117.756 C 228.667 117.622,228.817 117.431,229.000 117.333 C 229.183 117.235,229.333 117.078,229.333 116.985 C 229.333 116.891,230.327 115.837,231.542 114.641 C 234.204 112.022,234.228 112.000,234.472 112.000 C 234.579 112.000,234.667 111.926,234.667 111.835 C 234.667 111.744,235.098 111.388,235.625 111.043 C 236.152 110.699,236.658 110.359,236.750 110.289 C 237.342 109.837,238.217 109.333,238.410 109.333 C 238.536 109.333,238.664 109.270,238.694 109.192 C 238.830 108.848,241.769 107.674,244.250 106.973 C 246.054 106.464,252.278 106.413,253.917 106.895 C 254.467 107.057,255.143 107.247,255.419 107.318 C 256.325 107.551,259.628 109.125,260.000 109.501 C 260.046 109.547,260.383 109.808,260.750 110.080 C 262.024 111.025,263.989 113.140,264.955 114.605 C 265.068 114.777,265.333 115.179,265.544 115.500 C 265.935 116.096,267.162 118.550,267.668 119.750 C 268.124 120.829,268.523 121.997,268.981 123.583 C 271.264 131.499,271.556 144.164,269.718 155.583 C 269.571 156.500,269.400 157.700,269.339 158.250 C 269.216 159.349,268.807 161.499,268.317 163.619 C 268.142 164.372,268.000 165.147,268.000 165.342 C 268.000 165.536,267.855 166.233,267.678 166.889 C 267.501 167.546,267.195 168.758,266.999 169.583 C 266.542 171.499,266.070 173.294,265.662 174.667 C 265.485 175.262,265.185 176.275,264.995 176.917 C 264.119 179.886,263.861 180.697,263.168 182.667 C 263.055 182.987,262.867 183.588,262.750 184.000 C 262.633 184.412,262.426 185.012,262.291 185.333 C 262.155 185.654,261.950 186.179,261.836 186.500 C 261.368 187.816,261.006 188.795,260.694 189.583 C 260.513 190.042,260.272 190.679,260.159 191.000 C 260.045 191.321,259.813 191.872,259.643 192.224 C 259.473 192.576,259.333 192.940,259.333 193.032 C 259.333 193.124,259.227 193.436,259.098 193.725 C 258.968 194.014,258.663 194.737,258.419 195.333 C 258.175 195.929,257.842 196.717,257.679 197.083 C 257.515 197.450,257.210 198.162,257.000 198.667 C 256.618 199.585,256.070 200.829,255.807 201.375 C 255.730 201.535,255.603 201.798,255.526 201.958 C 255.449 202.119,255.235 202.588,255.051 203.000 C 253.989 205.376,250.100 213.261,248.926 215.417 C 248.527 216.150,247.993 217.162,247.741 217.667 C 247.488 218.171,247.143 218.782,246.974 219.026 C 246.805 219.269,246.667 219.588,246.667 219.734 C 246.667 219.880,246.600 220.000,246.518 220.000 C 246.436 220.000,246.243 220.281,246.089 220.625 C 245.791 221.287,245.413 221.980,244.974 222.667 C 244.827 222.896,244.484 223.496,244.211 224.000 C 243.938 224.504,243.556 225.179,243.362 225.500 C 243.168 225.821,242.854 226.346,242.665 226.667 C 242.476 226.987,242.140 227.550,241.919 227.917 C 241.698 228.283,241.440 228.733,241.345 228.917 C 241.250 229.100,240.985 229.550,240.757 229.917 C 240.528 230.283,240.187 230.846,239.999 231.167 C 239.811 231.487,239.511 231.975,239.333 232.250 C 239.155 232.525,238.855 233.012,238.667 233.333 C 238.479 233.654,238.165 234.179,237.970 234.500 C 237.775 234.821,237.532 235.233,237.430 235.417 C 237.328 235.600,236.965 236.183,236.622 236.712 C 236.280 237.240,236.000 237.712,236.000 237.760 C 236.000 237.808,235.921 237.938,235.823 238.049 C 235.616 238.285,235.103 239.074,234.175 240.586 C 233.951 240.951,233.724 241.287,233.670 241.333 C 233.616 241.379,233.315 241.829,233.000 242.333 C 232.685 242.838,232.387 243.287,232.338 243.333 C 232.289 243.379,231.949 243.860,231.583 244.402 C 231.216 244.943,230.804 245.547,230.667 245.743 C 230.529 245.939,230.241 246.377,230.025 246.716 C 229.810 247.056,229.566 247.333,229.484 247.333 C 229.401 247.333,229.333 247.405,229.333 247.492 C 229.333 247.696,227.695 249.898,227.488 249.972 C 227.403 250.003,227.333 250.125,227.333 250.243 C 227.333 250.362,227.223 250.550,227.089 250.662 C 226.761 250.934,225.320 253.030,224.679 254.167 C 224.332 254.784,224.163 255.126,223.609 256.333 C 222.588 258.559,223.326 262.973,225.250 266.142 C 226.392 268.023,229.132 270.714,230.667 271.461 C 230.896 271.573,231.196 271.731,231.333 271.812 C 233.322 272.986,236.711 273.561,238.833 273.084 C 241.087 272.578,241.240 272.537,242.245 272.169 C 243.376 271.755,246.986 269.984,247.417 269.632 C 247.733 269.373,248.848 268.667,248.941 268.667 C 248.991 268.667,249.630 268.217,250.360 267.667 C 251.090 267.117,251.758 266.667,251.844 266.667 C 251.930 266.667,252.000 266.605,252.000 266.531 C 252.000 266.456,252.309 266.212,252.687 265.989 C 253.065 265.766,253.646 265.413,253.979 265.205 C 254.311 264.997,254.696 264.782,254.833 264.729 C 254.971 264.675,255.346 264.512,255.667 264.368 C 257.982 263.323,259.916 264.396,261.012 267.333 C 261.613 268.943,261.625 276.045,261.030 278.000 C 260.368 280.176,260.010 281.123,259.625 281.710 C 259.465 281.955,259.333 282.270,259.333 282.411 C 259.333 282.552,259.270 282.667,259.193 282.667 C 259.116 282.667,258.964 282.863,258.855 283.103 C 258.418 284.061,255.506 287.244,254.298 288.083 C 253.307 288.772,251.509 289.955,251.167 290.145 C 249.714 290.947,246.073 292.667,245.827 292.667 C 245.737 292.667,245.345 292.807,244.957 292.978 C 242.956 293.861,239.524 294.680,235.667 295.195 C 232.904 295.564,227.384 295.135,224.500 294.327 C 223.904 294.160,223.267 293.988,223.083 293.946 C 221.764 293.638,217.333 291.723,217.333 291.461 C 217.333 291.391,217.224 291.333,217.091 291.333 C 216.886 291.333,216.023 290.841,215.417 290.377 C 215.325 290.307,214.819 289.968,214.292 289.623 C 213.765 289.279,213.333 288.922,213.333 288.832 C 213.333 288.741,213.223 288.667,213.089 288.667 C 212.955 288.667,212.765 288.517,212.667 288.333 C 212.569 288.150,212.422 288.000,212.340 288.000 C 211.867 288.000,207.945 283.489,207.342 282.250 C 205.465 278.400,202.835 277.106,200.660 278.963 C 200.526 279.077,200.154 279.398,199.833 279.676 C 199.512 279.955,198.819 280.527,198.292 280.949 C 197.765 281.371,197.333 281.780,197.333 281.858 C 197.333 281.936,197.238 282.000,197.120 282.000 C 197.003 282.000,196.789 282.131,196.644 282.292 C 196.500 282.452,196.169 282.733,195.910 282.917 C 195.651 283.100,195.045 283.569,194.564 283.958 C 194.083 284.348,193.609 284.667,193.511 284.667 C 193.413 284.667,193.333 284.734,193.333 284.817 C 193.333 284.948,193.030 285.170,191.837 285.917 C 191.691 286.008,191.461 286.183,191.327 286.304 C 191.193 286.425,190.446 286.928,189.667 287.422 C 188.887 287.916,188.159 288.398,188.049 288.493 C 187.938 288.589,187.732 288.667,187.590 288.667 C 187.449 288.667,187.333 288.734,187.333 288.815 C 187.333 288.897,187.052 289.089,186.708 289.242 C 186.365 289.395,185.671 289.744,185.167 290.018 C 175.690 295.164,162.841 296.417,154.877 292.972 C 154.488 292.804,154.127 292.667,154.075 292.667 C 153.602 292.667,148.856 289.964,148.617 289.559 C 148.543 289.435,148.381 289.333,148.256 289.333 C 148.130 289.333,148.003 289.277,147.972 289.208 C 147.942 289.140,147.579 288.809,147.167 288.474 C 145.898 287.443,144.760 286.309,143.598 284.917 C 142.986 284.183,142.376 283.465,142.243 283.319 C 142.109 283.174,142.000 283.009,142.000 282.953 C 142.000 282.896,141.756 282.501,141.458 282.073 C 140.415 280.577,139.744 279.395,138.421 276.716 C 137.823 275.506,137.333 274.439,137.333 274.345 C 137.333 274.251,137.184 273.929,137.001 273.629 C 136.818 273.329,136.667 272.971,136.666 272.833 C 136.665 272.696,136.569 272.396,136.452 272.167 C 136.053 271.385,134.000 264.770,134.000 264.265 C 134.000 264.104,133.857 263.434,133.682 262.777 C 133.077 260.509,132.215 255.016,131.996 252.038 C 131.917 250.963,131.756 249.108,131.637 247.917 C 131.305 244.558,131.349 232.330,131.715 226.500 C 132.133 219.840,132.517 215.394,133.011 211.500 C 133.192 210.079,133.337 208.692,133.334 208.417 C 133.331 208.142,133.475 206.979,133.653 205.833 C 134.400 201.037,134.550 200.026,134.675 198.917 C 134.748 198.275,134.925 197.262,135.068 196.667 C 135.211 196.071,135.329 195.358,135.330 195.083 C 135.331 194.808,135.477 193.871,135.654 193.000 C 135.832 192.129,136.135 190.592,136.329 189.583 C 137.500 183.465,139.051 176.327,139.682 174.155 C 139.857 173.553,140.000 172.883,140.000 172.667 C 140.000 172.451,140.143 171.781,140.318 171.178 C 140.492 170.576,140.762 169.558,140.916 168.917 C 141.780 165.331,141.907 164.834,142.335 163.333 C 142.506 162.737,142.809 161.650,143.009 160.917 C 143.449 159.302,143.936 157.677,144.282 156.667 C 144.423 156.254,144.596 155.654,144.667 155.333 C 144.816 154.655,145.257 153.386,145.694 152.377 C 145.862 151.988,146.000 151.559,146.000 151.423 C 146.000 151.287,146.142 150.855,146.315 150.463 C 146.488 150.071,146.795 149.300,146.997 148.750 C 147.504 147.365,148.139 145.835,148.426 145.308 C 148.558 145.064,148.667 144.781,148.667 144.679 C 148.667 144.521,149.655 142.328,150.213 141.250 C 150.308 141.067,150.437 140.804,150.500 140.667 C 151.101 139.351,151.828 137.783,153.084 135.083 C 154.993 130.984,157.235 126.708,158.795 124.193 C 159.002 123.858,159.238 123.430,159.319 123.243 C 159.399 123.056,159.586 122.803,159.733 122.681 C 159.880 122.559,160.000 122.397,160.000 122.321 C 160.000 122.245,160.244 121.834,160.542 121.408 C 160.840 120.982,161.158 120.515,161.250 120.371 C 161.342 120.227,161.507 119.991,161.618 119.847 C 161.729 119.702,162.049 119.283,162.330 118.917 C 164.814 115.672,168.106 112.443,170.500 110.900 C 170.912 110.635,171.337 110.335,171.444 110.235 C 171.551 110.134,171.870 109.956,172.152 109.839 C 172.435 109.722,172.667 109.560,172.667 109.480 C 172.667 109.399,172.798 109.332,172.958 109.330 C 173.119 109.328,173.438 109.179,173.667 109.000 C 173.896 108.821,174.170 108.672,174.276 108.670 C 174.382 108.668,174.757 108.526,175.109 108.354 C 176.724 107.567,179.337 106.817,181.583 106.497 C 182.317 106.392,183.029 106.279,183.167 106.245 C 183.651 106.126,187.262 106.310,188.250 106.503 M179.324 126.491 C 178.285 127.179,178.000 127.426,178.000 127.638 C 178.000 127.739,177.850 127.902,177.667 128.000 C 177.483 128.098,177.333 128.247,177.333 128.331 C 177.333 128.415,177.090 128.832,176.792 129.259 C 176.494 129.685,176.175 130.158,176.083 130.309 C 175.992 130.460,175.872 130.621,175.817 130.667 C 175.706 130.758,174.927 131.965,174.470 132.750 C 174.099 133.388,172.701 136.211,172.324 137.083 C 172.165 137.450,171.878 138.108,171.684 138.546 C 171.491 138.984,171.333 139.419,171.333 139.513 C 171.333 139.606,171.183 139.993,171.000 140.373 C 170.817 140.752,170.667 141.162,170.667 141.283 C 170.667 141.404,170.530 141.822,170.363 142.210 C 170.028 142.988,169.607 144.179,169.258 145.333 C 169.134 145.746,168.718 146.946,168.335 148.000 C 167.951 149.054,167.489 150.404,167.308 151.000 C 166.571 153.415,166.135 154.955,165.988 155.652 C 165.903 156.057,165.724 156.769,165.591 157.235 C 165.095 158.976,163.883 164.594,163.000 169.250 C 162.809 170.258,162.508 171.796,162.333 172.667 C 161.709 175.754,160.799 180.601,160.345 183.250 C 159.627 187.442,159.350 189.160,159.017 191.500 C 158.827 192.829,158.521 194.942,158.336 196.196 C 158.151 197.450,158.001 198.687,158.002 198.946 C 158.004 199.205,157.856 200.654,157.674 202.167 C 157.149 206.528,156.823 210.174,156.661 213.500 C 156.579 215.196,156.436 217.896,156.344 219.500 C 156.119 223.448,156.095 228.893,156.303 228.962 C 156.574 229.052,160.667 224.180,160.667 223.767 C 160.667 223.721,160.883 223.361,161.148 222.967 C 162.482 220.980,164.392 217.267,166.359 212.833 C 166.542 212.421,166.836 211.806,167.013 211.467 C 167.189 211.128,167.333 210.773,167.333 210.679 C 167.333 210.584,167.635 209.849,168.005 209.045 C 169.392 206.025,169.364 206.086,170.213 204.167 C 171.098 202.164,171.392 201.502,171.692 200.833 C 172.326 199.426,172.475 199.083,172.923 198.000 C 173.169 197.404,173.503 196.617,173.664 196.250 C 173.824 195.883,174.125 195.171,174.332 194.667 C 174.538 194.162,174.848 193.462,175.020 193.109 C 175.193 192.757,175.336 192.382,175.339 192.276 C 175.342 192.170,175.490 191.783,175.667 191.417 C 175.844 191.050,175.991 190.663,175.994 190.557 C 175.997 190.451,176.141 190.076,176.312 189.724 C 176.718 188.892,177.333 187.292,177.333 187.070 C 177.333 186.974,177.483 186.585,177.667 186.206 C 177.850 185.827,178.000 185.434,178.000 185.335 C 178.000 185.235,178.150 184.859,178.333 184.500 C 178.517 184.141,178.667 183.724,178.667 183.573 C 178.667 183.423,178.776 183.064,178.909 182.775 C 179.186 182.175,181.082 176.416,181.660 174.417 C 183.003 169.777,183.421 168.139,184.315 164.000 C 185.087 160.432,186.005 154.987,186.002 153.995 C 186.001 153.672,186.161 152.322,186.358 150.995 C 187.222 145.173,186.880 136.033,185.657 132.250 C 185.479 131.700,185.333 131.152,185.333 131.033 C 185.333 130.763,184.805 129.522,184.219 128.417 C 183.015 126.145,181.027 125.363,179.324 126.491 M244.572 126.482 C 243.709 126.874,242.853 127.626,242.236 128.535 C 241.969 128.928,241.668 129.337,241.568 129.444 C 241.468 129.551,241.290 129.870,241.173 130.152 C 241.055 130.435,240.894 130.667,240.813 130.667 C 240.733 130.667,240.667 130.786,240.667 130.933 C 240.667 131.079,240.528 131.398,240.358 131.641 C 240.087 132.031,238.515 135.227,237.682 137.083 C 237.518 137.450,237.222 138.096,237.025 138.518 C 236.828 138.941,236.667 139.370,236.667 139.472 C 236.667 139.573,236.517 139.924,236.333 140.250 C 236.150 140.576,236.000 140.933,236.000 141.044 C 236.000 141.154,235.847 141.638,235.660 142.119 C 234.972 143.893,234.176 146.172,233.663 147.833 C 233.450 148.521,233.146 149.496,232.987 150.000 C 232.567 151.325,232.101 152.891,231.671 154.417 C 230.496 158.590,230.051 160.269,229.464 162.750 C 229.377 163.117,229.162 163.909,228.986 164.512 C 228.811 165.114,228.667 165.777,228.667 165.985 C 228.667 166.192,228.524 166.899,228.349 167.556 C 227.521 170.674,225.966 178.646,224.996 184.750 C 224.807 185.942,224.505 187.779,224.325 188.833 C 224.146 189.887,223.999 190.962,223.999 191.221 C 224.000 191.479,223.855 192.679,223.677 193.887 C 223.171 197.331,222.658 201.526,222.665 202.167 C 222.671 202.750,222.273 206.033,221.664 210.417 C 220.535 218.546,220.666 227.333,221.916 227.333 C 222.345 227.333,226.000 223.330,226.000 222.860 C 226.000 222.769,226.064 222.669,226.142 222.639 C 226.278 222.586,226.984 221.541,227.476 220.667 C 227.874 219.958,228.084 219.605,228.466 219.000 C 228.853 218.386,231.148 213.788,231.918 212.083 C 232.166 211.533,232.589 210.596,232.856 210.000 C 233.124 209.404,233.486 208.617,233.661 208.250 C 233.835 207.883,234.216 207.058,234.508 206.417 C 234.799 205.775,235.226 204.838,235.456 204.333 C 235.685 203.829,236.057 203.004,236.281 202.500 C 236.505 201.996,236.840 201.246,237.026 200.833 C 237.664 199.416,237.809 199.081,238.255 198.000 C 238.500 197.404,238.843 196.628,239.017 196.276 C 239.191 195.924,239.333 195.557,239.333 195.461 C 239.333 195.365,239.473 194.978,239.644 194.602 C 240.477 192.767,240.667 192.311,240.667 192.146 C 240.667 192.047,240.776 191.731,240.909 191.442 C 241.043 191.153,241.268 190.598,241.409 190.208 C 241.903 188.850,242.194 188.080,242.400 187.583 C 242.643 186.999,242.811 186.508,244.250 182.167 C 245.577 178.163,245.857 177.274,246.329 175.583 C 246.534 174.850,246.843 173.795,247.017 173.238 C 247.191 172.682,247.333 172.082,247.333 171.905 C 247.333 171.728,247.483 171.189,247.667 170.707 C 247.850 170.224,248.000 169.630,248.000 169.385 C 248.000 169.140,248.145 168.447,248.322 167.845 C 248.622 166.827,248.799 166.016,249.657 161.708 C 250.246 158.754,251.231 152.193,251.402 150.083 C 251.447 149.533,251.598 148.258,251.738 147.250 C 252.330 142.999,252.011 137.305,250.986 133.833 C 249.730 129.578,249.303 128.316,248.996 127.949 C 248.904 127.839,248.674 127.543,248.484 127.290 C 247.716 126.265,245.883 125.887,244.572 126.482" class="color040404 svgShape"/><path fill="#fff" fill-rule="evenodd" class="colorFFF svgShape"/><path fill="#fff" fill-rule="evenodd" class="colorFFF svgShape"/><path fill="#fff" fill-rule="evenodd" class="colorFFF svgShape"/><path fill="#fff" fill-rule="evenodd" class="colorFFF svgShape"/></svg></g></svg>