<svg xmlns="http://www.w3.org/2000/svg" xmlns:svg="http://www.w3.org/2000/svg" xmlns:xlink="http://www.w3.org/1999/xlink" id="svg102" width="50" height="50" version="1.1"><metadata id="metadata106"/><defs id="defs56"><linearGradient id="g1" x1="1" x2="0" y1=".558" y2=".601"><stop id="stop2" offset="0" stop-color="#FF5C34"/><stop id="stop4" offset="1" stop-color="#EB0256"/></linearGradient><linearGradient id="g2" x1=".5" x2=".306" y1="1.119" y2="0"><stop id="stop7" offset="0" stop-color="#FFB000"/><stop id="stop9" offset="1" stop-color="#FF7725"/></linearGradient><filter id="filter-18-3" width="1.532" height="1.472" x="-.266" y="-.189" filterUnits="objectBoundingBox"><feOffset id="feOffset12" dx="0" dy="1" in="SourceAlpha" result="shadowOffsetOuter1"/><feGaussianBlur id="feGaussianBlur14" in="shadowOffsetOuter1" result="shadowBlurOuter1" stdDeviation="1.5"/><feColorMatrix id="feColorMatrix16" in="shadowBlurOuter1" type="matrix" values="0 0 0 0 0 0 0 0 0 0 0 0 0 0 0 0 0 0 0.298686594 0"/></filter><linearGradient id="g3" x1="38.66" x2="29.418" y1="42.314" y2="17.769" gradientTransform="scale(0.85441985,1.1703848)" gradientUnits="userSpaceOnUse" xlink:href="#g4"/><linearGradient id="g4" x1="38.66" x2="29.418" y1="42.314" y2="17.769" gradientTransform="scale(0.85441985,1.1703848)" gradientUnits="userSpaceOnUse"><stop id="stop20" offset="0%" stop-color="#21EFE3"/><stop id="stop22" offset="100%" stop-color="#2598FF"/></linearGradient><linearGradient id="g5" x1="32.778" x2="-5.737" y1="31.292" y2="34.564" gradientTransform="scale(0.85441985,1.1703848)" gradientUnits="userSpaceOnUse"><stop id="stop25" offset="0%" stop-color="#A63FDB"/><stop id="stop27" offset="100%" stop-color="#FF257E"/></linearGradient><linearGradient id="g6" x1="26.799" x2="6.491" y1="19.64" y2="20.515" gradientTransform="scale(0.85441985,1.1703848)" gradientUnits="userSpaceOnUse" xlink:href="#g1"/><linearGradient id="g7" x1="26.799" x2="6.491" y1="19.64" y2="20.515" gradientTransform="matrix(0.73238181,-0.44005875,0.60279359,1.0032156,-5.4387332,4.178016)" gradientUnits="userSpaceOnUse" xlink:href="#g1"/><linearGradient id="g8" x1="15.185" x2="9.592" y1="33.22" y2="1.019" gradientTransform="matrix(0.87275201,0.73232484,-0.56419841,0.67238452,20.873061,-10.319713)" gradientUnits="userSpaceOnUse" xlink:href="#g2"/><linearGradient id="g9" x1="16.691" x2="57.873" y1="19.196" y2="21.721" gradientTransform="scale(0.85441984,1.1703848)" gradientUnits="userSpaceOnUse" xlink:href="#g10"/><linearGradient id="g10" x1="16.691" x2="57.873" y1="19.196" y2="21.721" gradientTransform="scale(0.85441984,1.1703848)" gradientUnits="userSpaceOnUse"><stop id="stop34" offset="0%" stop-color="#9EE85D"/><stop id="stop36" offset="100%" stop-color="#0ED061"/></linearGradient><linearGradient id="g11" x1="40.014" x2="21.611" y1="3.05" y2="22.693" gradientTransform="matrix(0.8028135,0.67363955,-0.61334952,0.73096044,20.873061,-10.319713)" gradientUnits="userSpaceOnUse"><stop id="stop39" offset="0" stop-color="#17C934"/><stop id="stop41" offset="1" stop-color="#03FF6E"/></linearGradient><linearGradient id="g12" x1="31.906" x2="56.143" y1="22.861" y2="28.198" gradientTransform="matrix(0.67306192,0.5647652,-0.7315899,0.87187364,20.873061,-10.319713)" gradientUnits="userSpaceOnUse"><stop id="stop44" offset="0" stop-color="#00FFF0"/><stop id="stop46" offset="1" stop-color="#0087FF"/></linearGradient><linearGradient id="g13" x1="18.604" x2="29.552" y1="60.089" y2="34.263" gradientTransform="matrix(0.93316856,0.78302028,-0.52767025,0.62885203,20.873061,-10.319713)" gradientUnits="userSpaceOnUse"><stop id="stop49" offset="0" stop-color="#A63FDB"/><stop id="stop51" offset="1" stop-color="#FF257E"/></linearGradient><linearGradient id="g14" x1="30.973" x2="1.109" y1="27.509" y2="28.797" gradientTransform="matrix(0.64006516,0.53707767,-0.76930493,0.9168206,20.873061,-10.319713)" gradientUnits="userSpaceOnUse" xlink:href="#g1"/><linearGradient id="g15" x1="15.185" x2="9.592" y1="33.22" y2="1.019" gradientTransform="matrix(0.87275201,0.73232484,-0.56419841,0.67238452,20.873061,-10.319713)" gradientUnits="userSpaceOnUse" xlink:href="#g2"/></defs><path id="path58" d="M 24.844501,25.208859 C 20.77843,19.646166 13.002814,18.371306 7.4771766,22.36138 1.9515387,26.351453 0.76832601,34.0955 4.8343958,39.658194 l 0.3076235,0.420851 C -1.4888222,31.406438 -1.8150576,19.240724 4.7952638,10.325752 l 0.1176971,-0.1564 c 4.095389,-5.4421 11.8771861,-6.487086 17.3811281,-2.33404 5.503943,4.153045 6.6458,11.931447 2.550412,17.373547 z" style="fill:url(#g14)"/><path id="path60" d="m 24.844501,25.208859 c -6.472999,2.189353 -9.877881,9.222288 -7.605018,15.708503 2.272862,6.486214 9.362782,9.969509 15.835779,7.780157 L 33.50409,48.552478 C 25.454263,51.432746 16.076124,50.047472 8.9909709,44.102332 7.5339337,42.879734 6.2499668,41.528152 5.1420193,40.079045 L 4.8343958,39.658194 C 0.76832601,34.0955 1.9515387,26.351453 7.4771766,22.36138 13.002814,18.371306 20.77843,19.646166 24.844501,25.208859 Z" style="fill:url(#g13)"/><path id="path62" d="m 24.844501,25.208859 c 0.04163,6.84562 5.636761,12.42884 12.497071,12.470471 6.860311,0.04163 12.387942,-5.47409 12.346311,-12.319709 l -9.53e-4,-0.156747 c 0.07327,5.679151 -1.798009,11.388946 -5.714387,16.056296 -2.883411,3.436311 -6.515801,5.879029 -10.468453,7.293308 l -0.428828,0.145041 C 26.602265,50.886871 19.512345,47.403576 17.239483,40.917362 14.96662,34.431147 18.371502,27.398212 24.844501,25.208859 Z" style="fill:url(#g12)"/><path id="path64" d="M 24.844501,25.208859 C 31.381909,27.363866 38.367988,23.843413 40.448347,17.345706 42.528706,10.848 38.915553,3.83359 32.378144,1.678584 L 31.842952,1.502162 c 3.149862,0.958982 6.167442,2.558035 8.855077,4.813224 5.838829,4.899353 8.898368,11.870026 8.988901,18.887488 l 9.53e-4,0.156747 c 0.04163,6.845619 -5.486,12.361341 -12.346311,12.319709 -6.86031,-0.04163 -12.45544,-5.624851 -12.497071,-12.470471 z" style="fill:url(#g11)"/><path id="path66" style="fill:url(#g15)" d="M 24.844501,25.208859 C 28.939889,19.766759 27.798032,11.988357 22.294089,7.835312 16.790147,3.682266 9.0083499,4.727252 4.9129609,10.169352 L 4.7952628,10.325753 C 5.0886452,9.930085 5.3956916,9.54082 5.7164561,9.158548 12.244579,1.378645 22.61183,-1.308273 31.842952,1.502162 l 0.535192,0.176422 c 6.537409,2.155006 10.150562,9.169416 8.070203,15.667122 -2.080359,6.497707 -9.066438,10.01816 -15.603846,7.863153 z"/><g id="g72" style="opacity:.54425222;fill:none" transform="matrix(-0.37460713,0.92718385,-0.92718518,-0.37460659,68.842244,2.122857)"><path id="path68" d="m 28.379451,9.2701483 0.186983,-0.07462 c 6.393149,-2.551328 13.669757,0.4995351 16.252757,6.8142937 2.583,6.314759 -0.505736,13.502142 -6.898886,16.05347 -0.05343,-1.007011 -0.227732,-1.979458 -0.50829,-2.904343 3.429966,-1.856689 5.75552,-5.45605 5.75552,-9.591913 0,-6.036745 -4.954499,-10.9304939 -11.066184,-10.9304939 -1.305803,0 -2.558782,0.223396 -3.7219,0.6336062 z" style="fill:url(#g9)"/><path id="path70" d="m 28.379451,9.2701483 0.186983,-0.07462 c 6.393149,-2.551328 13.669757,0.4995351 16.252757,6.8142937 2.583,6.314759 -0.505736,13.502142 -6.898886,16.05347 -0.05343,-1.007011 -0.227732,-1.979458 -0.50829,-2.904343 3.429966,-1.856689 5.75552,-5.45605 5.75552,-9.591913 0,-6.036745 -4.954499,-10.9304939 -11.066184,-10.9304939 -1.305803,0 -2.558782,0.223396 -3.7219,0.6336062 z" style="mix-blend-mode:overlay;fill:#000;fill-opacity:.49988679"/></g><path id="path74" style="opacity:.1;fill:url(#g8)" d="M 24.844501,25.208859 C 28.939889,19.766759 27.798032,11.988357 22.294089,7.835312 16.790147,3.682266 9.0083499,4.727252 4.9129609,10.169352 L 4.7952628,10.325753 C 5.0886452,9.930085 5.3956916,9.54082 5.7164561,9.158548 12.244579,1.378645 22.61183,-1.308273 31.842952,1.502162 l 0.535192,0.176422 c 6.537409,2.155006 10.150562,9.169416 8.070203,15.667122 -2.080359,6.497707 -9.066438,10.01816 -15.603846,7.863153 z"/><path id="path76" style="opacity:.18013395;fill:url(#g7)" d="M 4.8244748,10.490984 4.946318,10.330719 C 9.112291,4.851089 16.920883,3.718459 22.387296,7.80092 27.853707,11.883381 28.907921,19.634987 24.741947,25.114618 24.177499,24.278959 23.527245,23.535182 22.810409,22.8869 24.7942,19.528843 24.933782,15.24584 22.803609,11.700712 19.69445,6.526212 12.927139,4.883207 7.6883949,8.030957 6.5691013,8.703496 5.6101449,9.540315 4.8244318,10.490984 Z"/><g id="g82" style="opacity:.18013395;fill:none" transform="matrix(0.85716853,-0.51503807,0.51503881,0.8571673,-5.2722905,4.334214)"><path id="path78" d="m 5.5458544,10.697205 0.1869826,-0.07462 c 6.39315,-2.5513278 13.669757,0.499535 16.252757,6.814294 2.583,6.314758 -0.505736,13.502141 -6.898886,16.053469 -0.05343,-1.007011 -0.227732,-1.979458 -0.50829,-2.904342 3.429966,-1.856689 5.755521,-5.45605 5.755521,-9.591914 0,-6.036745 -4.9545,-10.930493 -11.0661847,-10.930493 -1.3058034,0 -2.5587821,0.223396 -3.7218999,0.633606 z" style="fill:url(#g6)"/><path id="path80" d="m 5.5458544,10.697205 0.1869826,-0.07462 c 6.39315,-2.5513278 13.669757,0.499535 16.252757,6.814294 2.583,6.314758 -0.505736,13.502141 -6.898886,16.053469 -0.05343,-1.007011 -0.227732,-1.979458 -0.50829,-2.904342 3.429966,-1.856689 5.755521,-5.45605 5.755521,-9.591914 0,-6.036745 -4.9545,-10.930493 -11.0661847,-10.930493 -1.3058034,0 -2.5587821,0.223396 -3.7218999,0.633606 z" style="mix-blend-mode:multiply;fill:#000;fill-opacity:.77284307"/></g><g id="g88" style="opacity:.5841518;fill:none" transform="matrix(-0.22495138,-0.97437006,0.97437146,-0.22495105,-15.913458,55.421439)"><path id="path84" d="m 10.654093,23.764822 0.186983,-0.07462 c 6.393149,-2.551328 13.669757,0.499535 16.252757,6.814293 2.583,6.314759 -0.505736,13.502142 -6.898886,16.05347 -0.05343,-1.007011 -0.227732,-1.979458 -0.50829,-2.904343 3.429966,-1.856689 5.75552,-5.45605 5.75552,-9.591913 0,-6.036745 -4.954499,-10.930493 -11.066184,-10.930493 -1.305803,0 -2.558782,0.223396 -3.7219,0.633606 z" style="fill:url(#g5)"/><path id="path86" d="m 10.654093,23.764822 0.186983,-0.07462 c 6.393149,-2.551328 13.669757,0.499535 16.252757,6.814293 2.583,6.314759 -0.505736,13.502142 -6.898886,16.05347 -0.05343,-1.007011 -0.227732,-1.979458 -0.50829,-2.904343 3.429966,-1.856689 5.75552,-5.45605 5.75552,-9.591913 0,-6.036745 -4.954499,-10.930493 -11.066184,-10.930493 -1.305803,0 -2.558782,0.223396 -3.7219,0.633606 z" style="mix-blend-mode:overlay;fill:#000;fill-opacity:.50308539"/></g><g id="g94" style="opacity:.56222097;fill:none" transform="matrix(-0.99863096,-0.05233596,0.05233603,-0.99862953,57.15441,72.548735)"><path id="path90" d="m 25.135241,22.73235 0.186983,-0.07462 c 6.39315,-2.551328 13.669757,0.499535 16.252757,6.814293 2.583001,6.314759 -0.505736,13.502142 -6.898886,16.05347 -0.05343,-1.007011 -0.227731,-1.979458 -0.50829,-2.904343 3.429966,-1.856689 5.755521,-5.45605 5.755521,-9.591913 0,-6.036745 -4.9545,-10.930494 -11.066185,-10.930494 -1.305803,0 -2.558782,0.223396 -3.7219,0.633607 z" style="fill:url(#g3)"/><path id="path92" d="m 25.135241,22.73235 0.186983,-0.07462 c 6.39315,-2.551328 13.669757,0.499535 16.252757,6.814293 2.583001,6.314759 -0.505736,13.502142 -6.898886,16.05347 -0.05343,-1.007011 -0.227731,-1.979458 -0.50829,-2.904343 3.429966,-1.856689 5.755521,-5.45605 5.755521,-9.591913 0,-6.036745 -4.9545,-10.930494 -11.066185,-10.930494 -1.305803,0 -2.558782,0.223396 -3.7219,0.633607 z" style="mix-blend-mode:overlay;fill:#000"/></g><path id="path96" d="m 32.186954,1.615568 0.191202,0.06303 c 6.537408,2.155006 10.150561,9.169416 8.070202,15.667122 -2.080359,6.497706 -9.066438,10.01816 -15.603846,7.863153 0.606364,-0.805759 1.097919,-1.662736 1.477505,-2.551578 3.820968,0.782433 7.916076,-0.48 10.574561,-3.648255 C 40.776928,14.384625 40.127202,7.451106 35.445374,3.522591 34.445068,2.683237 33.341634,2.048968 32.186954,1.61557 Z" style="mix-blend-mode:overlay;fill:#000;fill-opacity:.49617866"/><path id="path98" d="m 24.100846,55.523071 h 4.544831 c 4.281413,0 7.752184,-3.36365 7.752184,-7.512922 0,-4.149273 -3.470771,-7.512923 -7.752184,-7.512923 h -6.55954 c -2.470046,0 -4.472413,1.940568 -4.472413,4.334379 v 16.869977 z" style="fill:#000;filter:url(#filter-18-3)" transform="matrix(1.0000014,0,0,1,-1.2150017,-25)"/><path id="path100" d="m 22.885879,30.523071 h 4.544837 c 4.281419,0 7.752195,-3.36365 7.752195,-7.512922 0,-4.149273 -3.470776,-7.512923 -7.752195,-7.512923 h -6.559549 c -2.47005,0 -4.47242,1.940568 -4.47242,4.334379 v 16.869977 z" style="fill:#fff"/></svg>