<svg xmlns="http://www.w3.org/2000/svg" width="24" height="24" fill="none" viewBox="0 0 24 24"><path fill="#EA4335" d="M11.295 11.4632L1.35336 22.0116C1.66141 23.1598 2.70692 24 3.94846 24C4.44321 24 4.90996 23.8693 5.31136 23.6266L5.33936 23.6079L16.5226 17.1575L11.2857 11.4539L11.295 11.4632Z"/><path fill="#FBBC04" d="M21.3487 9.67095H21.3394L16.5132 6.86115L11.071 11.706L16.5319 17.1669L21.3394 14.3944C22.1795 13.937 22.7489 13.0502 22.7489 12.0327C22.7489 11.0152 22.1888 10.1284 21.3487 9.68028V9.67095Z"/><path fill="#4285F4" d="M1.35336 1.99768C1.29735 2.22172 1.26001 2.44576 1.26001 2.68846V21.3209C1.26001 21.5636 1.28801 21.7876 1.35336 22.0117L11.6311 11.734L1.35336 1.99768Z"/><path fill="#34A853" d="M11.3697 12.0047L16.5132 6.86114L5.33936 0.382731C4.93796 0.140024 4.46188 0 3.94846 0C2.70692 0 1.66141 0.849475 1.35336 1.98833L11.3697 11.9953V12.0047Z"/></svg>