<?xml version="1.0" encoding="UTF-8" standalone="no"?>
<!DOCTYPE svg PUBLIC "-//W3C//DTD SVG 1.1//EN" "http://www.w3.org/Graphics/SVG/1.1/DTD/svg11.dtd">
<svg width="100%" height="100%" viewBox="0 0 800 800" version="1.1" xmlns="http://www.w3.org/2000/svg" xmlns:xlink="http://www.w3.org/1999/xlink" xml:space="preserve" xmlns:serif="http://www.serif.com/" style="fill-rule:evenodd;clip-rule:evenodd;stroke-linejoin:round;stroke-miterlimit:2;">
    <g>
        <path d="M489.699,388.556C512.621,365.49 544.289,353.288 576.762,355.009C617.892,353.659 657.318,371.483 683.474,403.253C710.525,435.416 724.051,480.145 724.051,537.442C724.051,616.464 699.183,678.394 649.448,723.23C597.265,767.868 531.488,793.492 462.861,795.916C450.241,797.676 437.301,797.676 423.882,797.676L420.324,797.676C302.938,797.237 189.709,753.912 101.988,675.785L75.949,652.461L178.348,531.212L238.414,577.539L181.543,643.995C251.835,696.181 337.136,724.203 424.681,723.869C529.157,723.869 601.523,684.251 629.639,615.24C631.24,608.217 632.043,601.036 632.035,593.833C632.035,573.385 623.569,563.162 606.635,563.162C598.899,563.855 591.248,565.3 583.791,567.475C574.403,569.632 564.825,570.862 555.196,571.149C530.288,570.653 506.513,560.651 488.741,543.193C467.88,524.069 456.536,496.704 457.749,468.43C457.322,438.61 468.824,409.855 489.699,388.556ZM387.779,0.047C490.805,-1.588 591.143,32.95 671.333,97.653L698.81,119.219L613.504,240.948L550.563,199.413L595.932,134.236C534.333,93.728 461.973,72.688 388.258,73.851C351.751,73.25 315.535,80.439 282.025,94.938C271.294,100.446 260.988,106.747 251.194,113.788C216.901,138.496 199.755,168.049 199.755,202.449C199.755,222.896 208.221,233.12 225.155,233.12C232.891,232.426 240.542,230.981 247.999,228.807C257.388,226.654 266.965,225.424 276.594,225.133C301.136,225.658 324.579,235.412 342.251,252.45C363.184,271.713 374.48,299.279 373.082,327.692C373.51,357.512 362.007,386.267 341.133,407.566C318.21,430.632 286.543,442.834 254.069,441.113C212.993,442.541 173.577,424.84 147.357,393.189C120.2,361.079 105.663,315.711 105.503,258.361L105.503,247.977C105.503,101.967 221.64,0.047 387.779,0.047Z" style="fill:rgb(30,123,133);fill-rule:nonzero;"/>
    </g>
</svg>
