<svg xmlns="http://www.w3.org/2000/svg" width="1024" height="1024">
   <path fill="#fff" d="m397 46.7 10.7 43.6a435.2 435.2 0 0 0-120.4 49.9l-23-38.6A473.3 473.3 0 0 1 397 46.7zm230 0-10.7 43.6a435.2 435.2 0 0 1 120.4 49.9l23.2-38.6a476.7 476.7 0 0 0-132.8-54.9ZM101.7 264.2a475.9 475.9 0 0 0-54.9 132.7l43.6 10.8a435.2 435.2 0 0 1 49.9-120.4ZM77.6 512a433.7 433.7 0 0 1 5-65L38.2 440a479.3 479.3 0 0 0 0 143.7l44.4-6.7a435 435 0 0 1-5-65.1Zm682 410.2-23-38.4a432.7 432.7 0 0 1-120.2 49.9l10.8 43.6a477 477 0 0 0 132.5-55ZM946.4 512a435 435 0 0 1-4.9 65l44.4 6.8a479.3 479.3 0 0 0 0-143.7l-44.4 6.8a433.7 433.7 0 0 1 5 65.1zm31 115-43.6-10.8a434.3 434.3 0 0 1-49.9 120.5l38.6 23.1A475 475 0 0 0 977.3 627ZM577 941.3a434.5 434.5 0 0 1-130.2 0l-6.7 44.4a478.3 478.3 0 0 0 143.6 0zm284.6-171.8a433.1 433.1 0 0 1-92 92l26.6 36.1a483.5 483.5 0 0 0 101.6-101.1Zm-92-607.3a433.8 433.8 0 0 1 92 92l36.2-26.9a482.8 482.8 0 0 0-101.3-101.3Zm-607.4 92a433.8 433.8 0 0 1 92-92l-26.9-36.2a482.8 482.8 0 0 0-101.3 101.3Zm760 9.9-38.5 23.1a432.7 432.7 0 0 1 49.9 120.3l43.6-10.8a475 475 0 0 0-55-132.6ZM447 82.6a434.5 434.5 0 0 1 130.2 0l6.7-44.4a478.3 478.3 0 0 0-143.6 0zM185.4 909.7l-92.8 21.5 21.7-92.7-43.7-10.2L48.9 921a45 45 0 0 0 33.5 54 47 47 0 0 0 20.4 0l92.8-21.3ZM79.8 788.3l43.9 10 15-64.2a430.5 430.5 0 0 1-48.4-118L46.7 627A481 481 0 0 0 91 741zm209.7 97.2-64.2 15 10.2 43.8 47.2-11a475.2 475.2 0 0 0 114 44l10.7-43.5A431.2 431.2 0 0 1 290 885.2Zm222.5-763a389.5 389.5 0 0 0-389.3 389.6 390.4 390.4 0 0 0 59.8 207l-37.4 159.8 159.7-37.4a389.5 389.5 0 0 0 415.1-659 390.4 390.4 0 0 0-207.9-60" style="stroke-width:1.36157"/>
</svg>