<?xml version="1.0" encoding="UTF-8" standalone="no"?><!-- Generator: Gravit.io --><svg xmlns="http://www.w3.org/2000/svg" xmlns:xlink="http://www.w3.org/1999/xlink" style="isolation:isolate" viewBox="0 0 24 24" width="24pt" height="24pt"><path d=" M 20.758 16.357 C 20.758 16.997 20.294 17.747 19.721 18.034 L 12 21.895 L 4.278 18.034 C 3.706 17.747 3.242 16.997 3.242 16.357 L 3.242 14.597 L 10.964 18.457 C 11.536 18.744 12 19.494 12 20.134 C 12 19.494 12.464 18.744 13.036 18.457 L 20.758 14.597 L 20.758 16.357 Z  M 4.014 8.758 C 4.014 6.769 5.633 5.151 7.621 5.151 C 9.609 5.151 11.226 6.768 11.228 8.756 L 11.228 8.758 L 11.228 8.761 C 11.226 10.748 9.609 12.365 7.621 12.365 C 5.633 12.365 4.014 10.747 4.014 8.758 Z  M 12 10.217 C 12.538 10.217 12.973 10.654 12.973 11.191 C 12.973 11.728 12 13.138 12 13.138 C 12 13.138 11.027 11.728 11.027 11.191 C 11.027 10.654 11.462 10.217 12 10.217 Z  M 12.772 8.756 C 12.774 6.768 14.391 5.151 16.379 5.151 C 18.368 5.151 19.986 6.769 19.986 8.758 C 19.986 10.747 18.368 12.365 16.379 12.365 C 14.391 12.365 12.774 10.748 12.772 8.761 L 12.772 8.756 Z  M 19.298 14.175 L 19.298 12.998 C 20.646 12.068 21.531 10.515 21.531 8.758 C 21.531 7.209 20.841 5.822 19.756 4.877 C 20.312 4.577 20.758 3.847 20.758 3.22 L 20.758 0 L 13.036 3.861 C 12.464 4.147 12 4.898 12 5.538 C 12 4.898 11.536 4.147 10.964 3.861 L 3.242 0 L 3.242 3.22 C 3.242 3.847 3.688 4.578 4.245 4.877 C 3.159 5.822 2.469 7.209 2.469 8.758 C 2.469 10.515 3.355 12.068 4.702 12.998 L 4.702 14.175 L 3.703 13.675 L 2.212 12.931 L 2.212 16.357 C 2.212 17.38 2.902 18.496 3.817 18.955 L 4.745 19.419 C 4.893 20.387 5.577 22.625 8.756 22.625 C 10.446 22.625 11.425 23.26 12 24 C 12.575 23.26 13.554 22.625 15.244 22.625 C 18.423 22.625 19.107 20.387 19.256 19.419 L 20.182 18.955 C 21.098 18.496 21.788 17.38 21.788 16.357 L 21.788 12.931 L 19.298 14.175 Z " fill="rgb(254,254,254)"/><path d=" M 7.121 11.536 C 7.928 11.536 8.581 10.882 8.581 10.076 C 8.581 9.269 7.928 8.616 7.121 8.616 C 6.314 8.616 5.661 9.269 5.661 10.076 C 5.661 10.882 6.314 11.536 7.121 11.536 Z " fill="rgb(254,254,254)"/><path d=" M 15.879 11.536 C 16.686 11.536 17.339 10.882 17.339 10.076 C 17.339 9.269 16.686 8.616 15.879 8.616 C 15.073 8.616 14.419 9.269 14.419 10.076 C 14.419 10.882 15.073 11.536 15.879 11.536 Z " fill="rgb(254,254,254)"/></svg>