<?xml version="1.0" encoding="utf-8"?>
<!-- Generator: Adobe Illustrator 26.2.1, SVG Export Plug-In . SVG Version: 6.00 Build 0)  -->
<svg version="1.1" id="Logo" xmlns="http://www.w3.org/2000/svg" xmlns:xlink="http://www.w3.org/1999/xlink" x="0px" y="0px"
	 viewBox="0 0 85.5 96.7" style="enable-background:new 0 0 85.5 96.7;" xml:space="preserve">
<style type="text/css">
	.st0{fill:#4C4C4C;}
	.st1{fill:#808080;}
</style>
<g>
	<path class="st0" d="M85.6,67.6V22.5L46.5,0v17.3l15.3,8.8c0.4,0.2,0.5,0.8,0.3,1.2c-0.1,0.1-0.2,0.2-0.3,0.3L43.6,38.1
		c-0.5,0.3-1.2,0.3-1.7,0L23.7,27.6c-0.4-0.2-0.5-0.8-0.3-1.2c0.1-0.1,0.2-0.2,0.3-0.3L39,17.3V0L0,22.5v45.1L15,59V41.3
		c0-0.5,0.4-0.9,0.9-0.8c0.1,0,0.3,0,0.4,0.1l18.2,10.5c0.5,0.3,0.9,0.9,0.8,1.5v21c0,0.5-0.4,0.9-0.9,0.9c-0.1,0-0.3,0-0.4-0.1
		l-15.3-8.8l-15,8.7l39,22.5l39-22.5l-15-8.7l-15.3,8.8c-0.4,0.2-1,0.1-1.2-0.4c-0.1-0.1-0.1-0.3-0.1-0.4v-21c0-0.6,0.3-1.2,0.9-1.5
		l18.2-10.5c0.4-0.2,0.9-0.1,1.2,0.3c0.1,0.1,0.1,0.3,0.1,0.4V59L85.6,67.6z"/>
	<path d="M42.8,96.6l39-22.5l-15-8.7l-15.3,8.8c-0.4,0.2-1,0.1-1.2-0.4c-0.1-0.1-0.1-0.3-0.1-0.4v-21c0-0.6,0.3-1.2,0.9-1.5
		l18.2-10.5c0.4-0.2,0.9-0.1,1.2,0.3c0.1,0.1,0.1,0.3,0.1,0.4V59l15,8.7V22.5L42.8,47.2V96.6z"/>
	<path class="st1" d="M46.5,0v17.3l15.3,8.8c0.4,0.2,0.5,0.8,0.3,1.2c-0.1,0.1-0.2,0.2-0.3,0.3L43.6,38.1c-0.5,0.3-1.2,0.3-1.7,0
		L23.7,27.6c-0.4-0.2-0.5-0.8-0.3-1.2c0.1-0.1,0.2-0.2,0.3-0.3L39,17.3V0L0,22.5l42.8,24.7l42.8-24.7L46.5,0z"/>
	<path class="st0" d="M34,74.3l-15.3-8.8l-15,8.7l39,22.5V47.2L0,22.5v45.1L15,59V41.3c0-0.5,0.4-0.9,0.9-0.8c0.1,0,0.3,0,0.4,0.1
		l18.2,10.5c0.5,0.3,0.9,0.9,0.8,1.5v21c0,0.5-0.4,0.9-0.8,0.9C34.3,74.4,34.1,74.4,34,74.3z"/>
</g>
</svg>
