<svg xmlns="http://www.w3.org/2000/svg" viewBox="0 0 508.66 510.9"><g id="Layer_2" data-name="Layer 2"><g id="VRChat"><path id="Bubble" d="M419.74,510.85c-13.09-3.46-22.14-12.19-30.14-22.53-26.61-34.32-53.37-68.57-80-102.93-2.24-2.9-4.66-3.55-8.06-3.55q-118.54.12-237.1.05c-31,0-55.61-18.65-62.29-47.46A80,80,0,0,1,.12,316.66q-.18-126-.09-252C0,26.83,27,0,65,0H444.66c37.35,0,64,26.53,64,63.83V317.88c0,33.82-20.79,58.1-54.31,63.51a10.6,10.6,0,0,0-1.68.69v5.44q.06,45.17.09,90.34c0,10.21-2.57,19.67-10.86,26.27-3.78,3-8.72,4.56-13.13,6.77Zm10.74-151.19h13.77c25.72-.14,42.11-16.57,42.12-42.28v-253c0-25.77-16.41-42.16-42.14-42.16H107.13c-15,0-30-.15-45,0-22.29.29-39.36,17.18-39.38,39.34q-.15,129.29,0,258.53a38,38,0,0,0,6.45,21.68c8.68,12.89,21.12,18,36.35,17.94q123.54-.15,247.08-.13a9.33,9.33,0,0,1,8.33,4q42.48,54.89,85.24,109.55A72.24,72.24,0,0,0,417,484.85c2.39,1.94,6.93,3.71,9.17,2.68s3-5.61,4.41-8.66a3.74,3.74,0,0,0,.06-1.49q-.06-39.67-.1-79.34C430.47,385.45,430.48,372.85,430.48,359.66Z"/><path id="R" d="M361.26,203.26c12.17,22.54,24,44.48,35.87,66.4,3.54,6.55,3.56,11-1.64,16.25a37.58,37.58,0,0,1-12.16,8.3c-8.55,3.52-15.31.57-19.58-7.66-12.63-24.36-25.25-48.7-37.65-73.19-1.77-3.49-3.68-4.89-7.6-4.65-5.81.36-11.65.1-18.16.1-.1,2.11-.27,4-.27,5.92v64.38c0,8.68-2.89,12.42-11.48,14.17a35.94,35.94,0,0,1-10.4.65c-11.27-1.07-15.13-5.51-15.13-16.68V103.08c0-11.82,3.69-15.53,15.52-15.52,19.17,0,38.35-.16,57.51.25a100.75,100.75,0,0,1,21.24,2.82c22.27,5.39,36.05,19.22,39.76,42.12a80.5,80.5,0,0,1-1.68,35.6C390.41,185.76,379.12,197.34,361.26,203.26Zm-60.94-23.41h31c21.14-.11,31.54-11.42,29.92-32.5-.09-1.15-.24-2.31-.37-3.46-1.57-14-9.35-22.42-23.35-23.39-12.08-.84-24.26-.35-36.39-.41-.24,0-.49.39-.86.7Z"/><path id="V" d="M162.24,247.33c3-10.63,5.67-20,8.32-29.45q17-60.24,33.88-120.47c2.07-7.33,5.26-10.1,12.86-9.69a39.3,39.3,0,0,1,13,3c9.82,4.13,11.83,9.17,8.71,19.35q-26.1,85.34-52.12,170.7c-2.29,7.57-6.89,12.44-14.31,13.55a71.27,71.27,0,0,1-20.21.16c-7.78-1.11-12.67-6.13-15.09-14.07q-26.16-86.09-52.8-172.06c-2.35-7.64-1.11-12.37,6-15.83a48.44,48.44,0,0,1,17-4.63c7.12-.6,10.12,2.38,12.12,9.31l40.89,144.34C160.87,243.07,161.38,244.58,162.24,247.33Z"/></g></g></svg>
