<svg xmlns="http://www.w3.org/2000/svg" viewBox="0 0 36 36" xml:space="preserve" width="36" height="36">
  <path d="M17.985 16.236c-1.6-3.1-5.94-8.89-9.98-11.74-3.87-2.73-5.35-2.26-6.31-1.82-1.12.51-1.32 2.23-1.32 3.24 0 1.01.55 8.3.92 9.51 1.2 4.02 5.45 5.38 9.37 4.94.2-.03.4-.06.61-.08-.2.03-.41.06-.61.08-5.74.85-10.85 2.94-4.15 10.39 7.36 7.62 10.09-1.63 11.49-6.33 1.4 4.69 3.01 13.61 11.35 6.33 6.27-6.33 1.72-9.54-4.02-10.39-.2-.02-.41-.05-.61-.08.21.03.41.05.61.08 3.92.44 8.18-.92 9.37-4.94.36-1.22.92-8.5.92-9.51 0-1.01-.2-2.73-1.32-3.24-.97-.44-2.44-.91-6.31 1.82-4.07 2.86-8.41 8.64-10.01 11.74z" style="fill:#1185fe"/>
</svg>
