<svg version="1.1" id="Layer_1" xmlns="http://www.w3.org/2000/svg" xmlns:xlink="http://www.w3.org/1999/xlink" x="0px" y="0px"
	 width="100%" viewBox="0 0 512 512" enable-background="new 0 0 512 512" xml:space="preserve">
<path fill="#FC4D50" opacity="1.000000" stroke="none" 
	d="
M331.000000,513.000000 
	C220.693466,513.000000 110.886925,513.000000 1.040193,513.000000 
	C1.040193,342.401764 1.040193,171.803528 1.040193,1.102647 
	C171.556549,1.102647 342.113159,1.102647 512.834900,1.102647 
	C512.834900,171.666534 512.834900,342.333252 512.834900,513.000000 
	C452.470184,513.000000 391.985077,513.000000 331.000000,513.000000 
M164.077911,135.500183 
	C164.077911,128.741058 164.077911,121.981941 164.077911,115.216721 
	C151.075256,115.216721 138.811829,115.216721 125.985519,115.216721 
	C125.985519,118.850647 125.985519,122.254028 125.985519,126.173241 
	C116.032837,126.173241 106.634239,126.173241 97.411339,126.173241 
	C97.411339,139.279526 97.411339,151.831467 97.411339,164.850937 
	C107.072472,164.850937 116.329651,164.850937 126.045311,164.850937 
	C126.045311,167.273239 126.045280,169.239258 126.045326,171.205276 
	C126.046143,205.702988 126.016594,240.200760 126.064400,274.698395 
	C126.080940,286.637238 133.481293,293.954712 145.412018,294.030487 
	C151.177628,294.067108 156.943680,294.036804 163.093292,294.036804 
	C163.093292,335.326813 163.093292,375.920715 163.093292,416.618805 
	C176.204880,416.618805 188.905762,416.618805 201.909821,416.618805 
	C201.909821,398.592834 201.879044,380.947327 201.916916,363.301971 
	C201.975967,335.796295 219.946564,313.230591 246.801727,307.079041 
	C263.568756,303.238281 279.942627,305.607849 295.950104,311.035065 
	C329.198730,322.307922 360.631683,353.701141 359.638092,400.205231 
	C359.521851,405.645844 359.622314,411.091034 359.622314,416.738190 
	C369.310028,416.738190 378.384644,416.738190 387.989380,416.738190 
	C387.989380,380.080780 387.989380,343.681305 387.989380,306.679565 
	C397.903809,306.679565 407.301086,306.679565 416.504272,306.679565 
	C416.769135,305.756683 416.938446,305.440857 416.939178,305.124634 
	C416.969238,292.126007 417.020508,279.127228 416.986115,266.128693 
	C416.968079,259.308533 418.696045,251.646103 416.151245,245.909821 
	C413.690277,240.362686 407.211090,236.103607 401.695129,232.509155 
	C390.145538,224.982880 385.507416,215.025177 387.824249,201.453979 
	C388.261719,198.891266 387.765228,195.571808 386.419495,193.391815 
	C367.089020,162.077728 347.560608,130.885559 327.964417,99.736656 
	C327.161469,98.460312 325.258179,97.192093 323.810913,97.124077 
	C317.669495,96.835449 311.506714,97.001587 305.130646,97.001587 
	C294.007202,123.684265 282.941833,150.227676 271.593475,177.449921 
	C270.466278,175.174774 269.649200,173.578018 268.877411,171.959686 
	C260.639740,154.686432 251.652573,137.716599 244.474335,120.013405 
	C240.479080,110.160095 235.162125,106.497978 224.916321,107.921768 
	C221.280319,108.427032 219.456985,109.304718 218.044495,112.668037 
	C201.165817,152.858414 184.147781,192.990265 167.157654,233.133804 
	C166.478027,234.739624 165.713745,236.309631 164.988907,237.896317 
	C164.685242,237.829391 164.381577,237.762466 164.077911,237.695526 
	C164.077911,203.963730 164.077911,170.231934 164.077911,135.500183 
z"/>
<path fill="#FFFFFF" opacity="1.000000" stroke="none" 
	d="
M164.077911,136.000153 
	C164.077911,170.231934 164.077911,203.963730 164.077911,237.695526 
	C164.381577,237.762466 164.685242,237.829391 164.988907,237.896317 
	C165.713745,236.309631 166.478027,234.739624 167.157654,233.133804 
	C184.147781,192.990265 201.165817,152.858414 218.044495,112.668037 
	C219.456985,109.304718 221.280319,108.427032 224.916321,107.921768 
	C235.162125,106.497978 240.479080,110.160095 244.474335,120.013405 
	C251.652573,137.716599 260.639740,154.686432 268.877411,171.959686 
	C269.649200,173.578018 270.466278,175.174774 271.593475,177.449921 
	C282.941833,150.227676 294.007202,123.684265 305.130646,97.001587 
	C311.506714,97.001587 317.669495,96.835449 323.810913,97.124077 
	C325.258179,97.192093 327.161469,98.460312 327.964417,99.736656 
	C347.560608,130.885559 367.089020,162.077728 386.419495,193.391815 
	C387.765228,195.571808 388.261719,198.891266 387.824249,201.453979 
	C385.507416,215.025177 390.145538,224.982880 401.695129,232.509155 
	C407.211090,236.103607 413.690277,240.362686 416.151245,245.909821 
	C418.696045,251.646103 416.968079,259.308533 416.986115,266.128693 
	C417.020508,279.127228 416.969238,292.126007 416.939178,305.124634 
	C416.938446,305.440857 416.769135,305.756683 416.504272,306.679565 
	C407.301086,306.679565 397.903809,306.679565 387.989380,306.679565 
	C387.989380,343.681305 387.989380,380.080780 387.989380,416.738190 
	C378.384644,416.738190 369.310028,416.738190 359.622314,416.738190 
	C359.622314,411.091034 359.521851,405.645844 359.638092,400.205231 
	C360.631683,353.701141 329.198730,322.307922 295.950104,311.035065 
	C279.942627,305.607849 263.568756,303.238281 246.801727,307.079041 
	C219.946564,313.230591 201.975967,335.796295 201.916916,363.301971 
	C201.879044,380.947327 201.909821,398.592834 201.909821,416.618805 
	C188.905762,416.618805 176.204880,416.618805 163.093292,416.618805 
	C163.093292,375.920715 163.093292,335.326813 163.093292,294.036804 
	C156.943680,294.036804 151.177628,294.067108 145.412018,294.030487 
	C133.481293,293.954712 126.080940,286.637238 126.064400,274.698395 
	C126.016594,240.200760 126.046143,205.702988 126.045326,171.205276 
	C126.045280,169.239258 126.045311,167.273239 126.045311,164.850937 
	C116.329651,164.850937 107.072472,164.850937 97.411339,164.850937 
	C97.411339,151.831467 97.411339,139.279526 97.411339,126.173241 
	C106.634239,126.173241 116.032837,126.173241 125.985519,126.173241 
	C125.985519,122.254028 125.985519,118.850647 125.985519,115.216721 
	C138.811829,115.216721 151.075256,115.216721 164.077911,115.216721 
	C164.077911,121.981941 164.077911,128.741058 164.077911,136.000153 
z"/>
</svg>