<svg xmlns="http://www.w3.org/2000/svg" width="116" height="76" fill="none" viewBox="0 0 116 76"><path fill="#fff" d="M115.35 0.52002H90.5195V15.01H115.35V0.52002Z"/><path fill="#fff" d="M115.35 20.7H90.5195V35.19H115.35V20.7Z"/><path fill="#fff" d="M115.35 40.87H90.5195V55.36H115.35V40.87Z"/><path fill="#fff" d="M25.3398 61.05H0.509766V75.54H25.3398V61.05Z"/><path fill="#fff" d="M55.3398 61.05H30.5098V75.54H55.3398V61.05Z"/><path fill="#fff" d="M85.3495 61.05H60.5195V75.54H85.3495V61.05Z"/><path fill="#fff" d="M115.35 61.05H90.5195V75.54H115.35V61.05Z"/><path fill="#fff" d="M85.3495 40.87H60.5195V55.36H85.3495V40.87Z"/><path fill="#fff" d="M55.3398 40.87H30.5098V55.36H55.3398V40.87Z"/><path fill="#fff" d="M55.3398 20.7H30.5098V35.19H55.3398V20.7Z"/></svg>