<svg width="126" height="126" viewBox="0 0 126 126" fill="none" xmlns="http://www.w3.org/2000/svg">
<g clip-path="url(#clip0)">
<path fill-rule="evenodd" clip-rule="evenodd" d="M32 0H94C111.7 0 126 14.3 126 32V94C126 111.7 111.7 126 94 126H32C14.3 126 0 111.7 0 94V32C0 14.3 14.3 0 32 0Z" fill="#58CC02"/>
<path d="M50.1337 38.2001C52.0337 40.1001 51.4337 43.3001 49.0337 44.5001C41.0337 48.4001 31.3337 46.6001 25.0337 40.1001C18.7337 33.6001 17.3337 23.8001 21.4337 16.0001C22.6337 13.6001 25.4337 13.2001 27.2337 15.1001L50.1337 38.2001Z" fill="#89E219"/>
<path fill-rule="evenodd" clip-rule="evenodd" d="M47.5334 35.6001C55.5334 43.6001 69.5334 43.6001 78.4334 35.6001C87.3334 27.6001 77.1334 82.4001 77.1334 82.2001C77.1334 82.1001 72.4334 82.1001 62.9334 82.1001C60.4334 82.1001 55.8334 82.1001 49.2334 82.2001C42.7334 45.8001 42.2334 30.3001 47.5334 35.6001Z" fill="#89E219"/>
<path d="M15.1336 23.5998L36.6336 47.4998C38.4336 49.4998 37.7336 52.6998 35.3336 53.6998C27.2336 57.2998 17.6336 55.1998 11.5336 48.4998C5.43355 41.7998 4.43355 31.9998 8.83355 24.2998C10.1336 21.9998 13.3336 21.5998 15.1336 23.5998Z" fill="#89E219"/>
<path d="M75.8643 38.1908C73.9643 40.0908 74.5643 43.2908 76.9643 44.4908C84.9643 48.3908 94.6643 46.5908 100.964 40.0908C107.264 33.5908 108.664 23.7908 104.564 15.9908C103.364 13.5908 100.564 13.1908 98.7644 15.0908L75.8643 38.1908Z" fill="#89E219"/>
<path d="M110.865 23.691L89.3645 47.491C87.5645 49.491 88.2645 52.691 90.6645 53.691C98.7645 57.291 108.364 55.191 114.464 48.491C120.564 41.791 121.565 31.991 117.165 24.291C115.865 21.991 112.665 21.691 110.865 23.691Z" fill="#89E219"/>
<path fill-rule="evenodd" clip-rule="evenodd" d="M27.4336 27.1997H26.1336C14.4336 27.1997 4.33359 34.1997 -0.0664062 44.2997V81.9997C4.43359 92.0997 14.4336 99.0997 26.1336 99.0997H27.4336C43.2336 99.0997 56.0336 86.2997 56.0336 70.4997V55.7997C56.0336 39.9997 43.2336 27.1997 27.4336 27.1997Z" fill="#89E219"/>
<path fill-rule="evenodd" clip-rule="evenodd" d="M126.033 44.9998C121.733 34.5998 111.533 27.2998 99.6332 27.2998H98.6332C98.5332 27.2998 98.4332 27.2998 98.4332 27.2998C82.6332 27.3998 69.9332 40.2998 70.1332 56.0998L70.2332 70.7998C70.3332 86.4998 83.1332 99.0998 98.8332 99.0998H99.7332C111.633 99.0998 121.933 91.7998 126.133 81.3998V44.9998H126.033Z" fill="#89E219"/>
<path fill-rule="evenodd" clip-rule="evenodd" d="M27.9332 37.3999C38.9332 37.3999 47.8332 46.2999 47.8332 57.2999V69.0999C47.8332 80.0999 38.9332 88.9999 27.9332 88.9999C16.9332 88.9999 8.0332 80.0999 8.0332 69.0999V57.2999C8.0332 46.2999 16.9332 37.3999 27.9332 37.3999Z" fill="white"/>
<path fill-rule="evenodd" clip-rule="evenodd" d="M97.8336 37.3999C108.834 37.3999 117.734 46.2999 117.734 57.2999V69.0999C117.734 80.0999 108.834 88.9999 97.8336 88.9999C86.8336 88.9999 77.9336 80.0999 77.9336 69.0999V57.2999C77.9336 46.2999 86.8336 37.3999 97.8336 37.3999Z" fill="white"/>
<path fill-rule="evenodd" clip-rule="evenodd" d="M31.0335 48.7998C36.2335 48.7998 40.4335 52.9998 40.4335 58.1998V68.2998C40.4335 73.4998 36.2335 77.6998 31.0335 77.6998C25.8335 77.6998 21.6335 73.4998 21.6335 68.2998V58.1998C21.5335 53.0998 25.8335 48.7998 31.0335 48.7998Z" fill="#4B4B4B"/>
<path fill-rule="evenodd" clip-rule="evenodd" d="M63.0383 71.7222C69.0383 71.7222 73.8383 76.5222 73.8383 82.5222V86.3221C73.8383 92.3221 69.0383 97.1222 63.0383 97.1222C57.0383 97.1222 52.2383 92.3221 52.2383 86.3221V82.5222C52.2383 76.5222 57.0383 71.7222 63.0383 71.7222Z" fill="#F48000"/>
<path d="M48.1387 83.5221C49.4387 76.6221 55.8387 71.6221 63.4387 71.6221C70.4387 71.6221 76.6387 76.7221 77.9387 83.5221V84.1221C77.9387 84.5221 77.7387 84.7221 77.4387 84.7221L63.4387 87.2221C63.0387 87.2221 63.0387 87.2221 62.6387 87.2221L48.6387 84.7221C48.2387 84.8221 48.1387 84.6221 48.1387 84.1221V83.5221Z" fill="#FFC200"/>
<path fill-rule="evenodd" clip-rule="evenodd" d="M60.7384 74.0222C61.4384 73.8222 62.2384 73.7222 62.9384 73.7222C63.7384 73.7222 64.5384 73.8222 65.3384 74.0222C66.9384 74.4222 68.1383 75.9222 68.1383 77.6222C68.1383 78.9222 67.0384 80.0222 65.7384 80.0222H60.4384C59.1384 80.0222 58.0384 78.9222 58.0384 77.6222C57.8384 75.9222 59.0384 74.4222 60.7384 74.0222Z" fill="#FFDE00"/>
<path fill-rule="evenodd" clip-rule="evenodd" d="M94.734 48.7998C99.934 48.7998 104.134 52.9998 104.134 58.1998V68.2998C104.134 73.4998 99.934 77.6998 94.734 77.6998C89.534 77.6998 85.334 73.4998 85.334 68.2998V58.1998C85.334 53.0998 89.534 48.7998 94.734 48.7998Z" fill="#4B4B4B"/>
<path d="M23.0336 60.3001C26.4025 60.3001 29.1336 57.569 29.1336 54.2001C29.1336 50.8312 26.4025 48.1001 23.0336 48.1001C19.6647 48.1001 16.9336 50.8312 16.9336 54.2001C16.9336 57.569 19.6647 60.3001 23.0336 60.3001Z" fill="white"/>
<path d="M85.8334 60.3001C89.2023 60.3001 91.9334 57.569 91.9334 54.2001C91.9334 50.8312 89.2023 48.1001 85.8334 48.1001C82.4645 48.1001 79.7334 50.8312 79.7334 54.2001C79.7334 57.569 82.4645 60.3001 85.8334 60.3001Z" fill="white"/>
</g>
<defs>
<clipPath id="clip0">
<rect width="126" height="126" fill="white"/>
</clipPath>
</defs>
</svg>
