<?xml version="1.0" encoding="UTF-8"?>
<svg id="firefish" xmlns="http://www.w3.org/2000/svg" width="40" height="40"
  viewBox="0 0 40 40">
  <defs>
    <style>
      .fishy {
        fill: #fff;
      }
    </style>
  </defs>
  <path class="fishy"
    d="m20.71,17.14H2.14c-1.18,0-2.14.96-2.14,2.14v18.57c0,1.18.96,2.14,2.14,2.14h18.57c1.18,0,2.14-.96,2.14-2.14v-18.57c0-1.18-.96-2.14-2.14-2.14Zm-15,17.14c-1.58,0-2.86-1.28-2.86-2.86s1.28-2.86,2.86-2.86,2.86,1.28,2.86,2.86-1.28,2.86-2.86,2.86Zm7.14,0c-1.58,0-2.86-1.28-2.86-2.86s1.28-2.86,2.86-2.86,2.86,1.28,2.86,2.86-1.28,2.86-2.86,2.86Z" />
  <path class="fishy"
    d="m20.71,17.14H2.14c-1.18,0-2.14.96-2.14,2.14v18.57c0,1.18.96,2.14,2.14,2.14h18.57c1.18,0,2.14-.96,2.14-2.14v-18.57c0-1.18-.96-2.14-2.14-2.14Zm-15,17.14c-1.58,0-2.86-1.28-2.86-2.86s1.28-2.86,2.86-2.86,2.86,1.28,2.86,2.86-1.28,2.86-2.86,2.86Zm7.14,0c-1.58,0-2.86-1.28-2.86-2.86s1.28-2.86,2.86-2.86,2.86,1.28,2.86,2.86-1.28,2.86-2.86,2.86Z" />
  <path class="fishy"
    d="m20.71,14.28h-9.82c-1.18,0-2.14-.96-2.14-2.14V2.32c0-1.91,2.31-2.86,3.66-1.51l9.82,9.82c1.35,1.35.39,3.66-1.51,3.66h0Z" />
  <path class="fishy"
    d="m37.83,31.43h-9.94c-1.2,0-2.17-.97-2.17-2.17v-9.94c0-1.93,2.34-2.9,3.7-1.53l9.94,9.94c1.37,1.37.4,3.7-1.53,3.7h0Z" />
  <path class="fishy"
    d="m37.83,14.28h-9.94c-1.2,0-2.17-.97-2.17-2.17V2.17c0-1.93,2.34-2.9,3.7-1.53l9.94,9.94c1.37,1.37.4,3.7-1.53,3.7h0Z" />
</svg>