<svg version="1.1" id="furaffinity_logo" xmlns="http://www.w3.org/2000/svg"
	xmlns:xlink="http://www.w3.org/1999/xlink" x="0px" y="0px" viewBox="0 0 38.1 40"
	style="enable-background:new 0 0 38.1 40;" xml:space="preserve">
	<style type="text/css">
		.st0 {
			fill: #FAAF3A;
		}

		.st1 {
			fill: #FFFFFF;
		}
	</style>
	<polygon class="st0" points="10.3,12.7 17.3,8.2 20.8,6.2 24.4,6.9 26.5,8.8 32.3,17.8 29.9,26.2 25.3,29.9 22.2,31.3 18.1,30 
	11.1,28.3 9.1,22.8 8.3,14.5 " />
	<path class="st1" d="M16,40c-0.5-0.5-0.6-1-0.5-1.7c0.2-1.4,0.2-2.7,0.7-4.1c0.4-1.1-0.2-2.2-1.4-2.7c-0.2-0.1-0.4-0.1-0.4,0.2
	c0,0.4,0,0.9,0,1.2c-0.1,0.5-0.2,1.1-0.9,0.9c-0.6-0.1-0.6-0.6-0.5-1.1c0.1-0.5,0.1-0.9,0.2-1.4c0-0.4,0-0.9-0.4-1.1
	c-0.4-0.2-0.6,0-1,0.2c-0.5,0.4-0.9,0.2-1.1-0.2c-0.2-0.6-0.5-0.2-0.7,0c-0.9,0.9-2,1.6-3.1,2.2C5.9,33,5.2,33.9,4.7,35
	c-0.2,0.6-0.4,1.2-0.7,1.7c-0.5,0.5-1,0.6-1.6,0.4s-0.6-0.7-0.6-1.4c0-0.4,0.1-0.7,0.4-1c1.6-1.7,3-3.9,5.2-5
	c0.4-0.2,0.7-0.5,1.1-0.9c0.4-0.4,1-0.7,0-1.1c-0.2-0.1-0.1-0.4-0.1-0.5s0.1-0.1,0.1-0.2c-1.1,0.1-0.6-0.9-0.9-1.4
	c-0.2-0.4-0.7-0.4-1.1-0.4c-0.4,0-0.7,0.2-1.1,0.5c-0.2,0.2-0.6,0.5-0.9,0.6c-1,0.5-2.1,0.1-2.4-0.6c-0.2-0.7,0.5-1.7,1.4-2
	c0.4-0.1,0.9-0.1,1.2-0.1c0.4,0,0.7,0,1.1-0.1c0.6-0.1,1.2-0.4,1.2-1c0-0.5-0.6-0.7-1.1-0.9c-1.6-0.5-3.1-0.6-4.6-0.4
	c-0.4,0.1-0.7,0.1-1.1-0.2C0,20.8,0,20.6,0.1,20.2c0.2-0.5,0.7-0.6,1.1-0.5c1.6,0.6,3.1,0,4.6-0.2c1.2-0.1,1.5-0.7,1.1-1.9
	c-0.1-0.1-0.2-0.4-0.1-0.5c1-1.2,0-2.2-0.4-3.2c-0.2-0.6-0.1-1,0.5-1.1c0.4-0.1,0.6-0.1,1-0.1c0.5-0.1,1,0,1.1-0.5
	c0.1-0.5,0-0.9-0.4-1.2C7.6,9.7,6.5,8.7,5.1,8.1C4.7,7.9,4.2,7.6,3.9,7.2C3.5,7,3.2,6.6,3.4,6C3.6,5.5,4,5.2,4.6,5.1
	C5.1,5,5.5,5.1,6,5.4C7.4,6.1,8.7,7,9.6,8.2c0.1,0.2,0.2,0.5,0.6,0.6C11,9,11.3,9.3,11.6,10c0.1,0.5,0.5,0.7,1,0.6
	c0.4,0,0.2-0.5,0.2-0.9c0-0.5,0.1-0.7,0.6-0.9c0.7,0,0.6-0.4,0.4-1C13.5,7,13,6.1,12.5,5.2c-0.4-0.6-0.7-1.5-0.1-2.1
	c0.4-0.4,1.2,0.4,1.6,1.4c0.2,0.6,0.4,1.4,0.6,2c0.1,0.4,0.2,0.7,0.7,0.6c0.4-0.1,0.2-0.6,0.1-0.9c-0.5-1.4-1-2.6-1.6-4
	c-0.1-0.4-0.4-0.7-0.5-1.1c-0.1-0.2-0.1-0.6,0.2-0.7c0.4-0.1,0.5,0.1,0.6,0.4c0.1,0.4,0.4,0.7,0.4,1.2c0.7,2.1,2,3.6,3.2,5.1
	c0.2,0.2,0.5,0.5,0.7,0c0.1-0.1,0.1-0.2,0.2-0.2c1.5,0,1.1-1.1,1.1-1.9c0-1.2-0.1-2.6-0.2-3.9c0-0.5,0-1.1,0.7-1.1
	c0.6,0,0.6,0.6,0.6,1c0,1-0.2,2.1,0,3.1c0.2,1.4,0.9,1.6,2,0.9c0.6-0.4,1.4-0.7,2.1-0.9c0.9-0.1,1.2,0.1,1.1,1
	c0,0.2-0.1,0.4-0.2,0.6c-0.1,0.5-0.9,0.7-0.6,1.2c0.5,0.7,1.1,1.5,2,2c0.1,0,0.2,0.1,0.2,0.1c0.7-0.5,1.2-0.4,1.5,0.6
	c0.1,0.4,0.5,0.4,0.7,0c0.5-0.5,0.9-1,1.4-1.4c0.1-0.1,0.2-0.4,0.5-0.2c0.1,0.1,0,0.2-0.1,0.5c-0.2,0.7-0.6,1.4-1,2
	c-0.6,1-0.5,1.7,0.7,2.1c0.5,0.1,0.9,0.1,1.4,0.2c0.9,0.2,1,0.6,0.4,1.2c-0.7,0.6-0.7,1.1,0.2,1.5c0.4,0.1,0.6,0.2,0.5,0.7
	c-0.4,1,0.2,1.7,0.9,2.4c0.5,0.6,0.5,0.9,0,1.4c-0.1,0.1-0.2,0.2-0.5,0.4c-1.1,0.9-1.2,1.1-0.5,2.4c0.2,0.5,0,0.6-0.4,1
	c-0.7,0.9-0.7,1.1,0.4,1.6c0.2,0.1,0.5,0.2,0.6,0.5c0.2,0.2,0.6,0.6,0.4,1c-0.2,0.5-0.7,0.2-1.1,0.2c-0.4-0.1-0.6-0.2-1-0.4
	c-0.2-0.1-0.5-0.2-0.6,0.1c-0.1,0.2,0,0.5,0.1,0.6c0.2,0.2,0.5,0.4,0.7,0.6s0.2,0.5,0.1,0.7c-0.2,0.2-0.4,0.1-0.6,0
	c-0.1,0-0.1-0.1-0.2-0.1c-0.4-0.2-0.9-0.7-1-0.6c-0.2,0.4,0.2,0.7,0.4,1.2c0.1,0.4,0.4,0.7,0.5,1.1s0.4,0.9-0.1,1
	c-0.4,0.1-0.7-0.2-1-0.5c-0.2-0.5-0.5-0.9-0.9-1.4c-0.2-0.4-0.5-0.9-0.9-0.7c-0.5,0.1-0.2,0.6-0.4,1c0,0.4,0,0.7-0.6,0.7
	c-0.5,0-0.4,0.4-0.4,0.6c-0.1,1.2,0.2,2.5,1,3.5c0.4,0.5,0.7,1.1,1.1,1.6c0.2,0.4,0.4,0.9,0.5,1.4c0,0.5,0,1-0.5,1.1
	c-0.6,0.2-1-0.1-1.2-0.6c-0.2-0.4-0.4-0.7-0.5-1.2c-0.4-1.5-1-3-1.7-4.4c-0.1-0.1-0.2-0.4-0.4-0.5c-0.6-0.6-1.2-1.2-2.1-0.9
	c-0.9,0.4-0.6,1.2-0.5,2c0.1,0.5,0.2,1.1,0.4,1.6c0.1,0.6,0.2,1.4-0.7,1.4c-0.9,0-0.9-0.6-0.9-1.2c0-0.5,0-0.9,0-1.4
	c0-1-0.9-2-1.9-2.2c-0.9-0.2-2.1,0.5-2.5,1.4c-0.6,1.5-0.6,3.1-0.9,4.7c-0.1,0.9-0.2,1.7-0.7,2.4C16.3,40,16.1,40,16,40L16,40z
	 M11.1,25.2c0,1.9,0.9,2.7,2.7,2.9c0.7,0,1.6,0,2.4,0c1.1,0,2.1,0.2,2.9,1.1c0.6,0.6,1.4,1,2.2,1.2c0.9,0.1,1.7,0.2,2.4-0.5
	c1.7-2.1,1.9-3.7,0.2-5.7c-0.6-0.7-1-1.5-1.2-2.4c-0.5-2.1-2-3.4-3.9-3c-1.1,0.2-2.1,0.6-2.9,1.5c-0.5,0.5-1,0.9-1.6,1
	C12.3,21.6,11.1,23.2,11.1,25.2L11.1,25.2z M21.7,11.3c0-1.1-0.1-2.1-1.1-2.7c-0.7-0.4-1.5-0.1-2.1,0.2c-1.5,1.1-2.6,2.5-3.2,4.4
	c-0.4,1.4,0.4,2.9,1.6,3.5c1.2,0.6,2.4,0.2,3.2-1C21.2,14.5,21.7,13,21.7,11.3L21.7,11.3z M27.5,14.7c0-1.2-0.2-2.4-0.9-3.5
	c-0.9-1.5-2.1-1.7-3.2-0.4c-1.4,1.6-2,3.6-1.6,5.7c0.1,1,0.7,1.9,1.7,2.2c1,0.4,2,0,2.9-0.9C27.3,17.1,27.4,15.8,27.5,14.7
	L27.5,14.7z M12.1,20.8c1.9,0,2.7-0.9,2.9-2.5c0-1-0.2-2-0.7-3c-0.4-0.6-0.9-0.7-1.5-0.5c-1.1,0.4-2,1-2.6,2c-0.6,1-0.5,2,0,2.9
	C10.6,20.7,11.5,20.8,12.1,20.8z M29.5,22.6c0-1-0.4-2-0.9-2.9c-0.4-0.7-1-0.9-1.7-0.5c-1,0.5-1.6,1.1-2.2,2.1s-0.5,2.1,0.1,2.9
	c0.7,0.9,2.2,1.4,3,1.1C28.9,24.8,29.5,23.8,29.5,22.6L29.5,22.6z M13.7,13c0-0.2-0.1-0.4-0.4-0.4c-0.4,0.1-0.5,0.4-0.5,0.7
	c0,0.2,0.1,0.4,0.4,0.4C13.5,13.6,13.6,13.3,13.7,13z M25.2,8.2c-0.4,0.1-0.2,0.5-0.2,0.7s0,0.5,0.4,0.5c0.2,0,0.4-0.4,0.4-0.6
	C25.5,8.6,25.5,8.2,25.2,8.2z M29.3,17.4c0-0.2,0-0.5-0.2-0.4c-0.4,0-0.5,0.4-0.4,0.6c0,0.2,0.1,0.5,0.4,0.4
	C29.3,18.1,29.3,17.7,29.3,17.4z M21.6,7.5c0-0.2-0.1-0.4-0.2-0.2c-0.4,0.1-0.6,0.4-0.6,0.7c0,0.1,0,0.4,0.2,0.2
	C21.2,8,21.4,7.7,21.6,7.5z" />
	<path class="st1"
		d="M0,31.8L0,31.8c0.4-0.1,0.7-0.2,1,0.1c0.1,0.1,0.1,0.4,0,0.5c-0.4,0.4-0.6,0-0.9-0.2C0,32,0,31.9,0,31.8z" />
	<path class="st1" d="M36,17.8c-0.5-0.1-1.4,0.2-1.5-0.4c-0.1-0.5,0.7-0.2,1.2-0.4c0.5-0.2,1.1-0.2,1.6-0.4c0.4,0,0.7,0,0.7,0.4
	c0,0.4-0.2,0.5-0.6,0.5C37.1,17.8,36.5,17.8,36,17.8L36,17.8z" />
	<path class="st1" d="M31.8,34.4c0.6,0,1.5,0.9,1.4,1.5c0,0.5-0.4,0.9-0.7,0.7c-0.7-0.2-0.7-1.1-1-1.9C31.3,34.5,31.5,34.4,31.8,34.4
	L31.8,34.4z" />
	<path class="st1" d="M3.1,12.5c0.6,0.1,0.9,0.6,1,1.1c0,0.5-0.4,0.6-0.7,0.6c-0.7,0-0.9-0.5-0.9-1C2.5,12.7,2.6,12.3,3.1,12.5
	L3.1,12.5z" />
	<path class="st1" d="M5.5,29.2C5.1,29,5,28.8,5,28.5c0.1-0.6,0.7-0.7,1.2-1.1c0.2-0.1,0.5,0.1,0.4,0.4C6.5,28.5,6.1,28.9,5.5,29.2
	L5.5,29.2z" />
	<path class="st1"
		d="M24.4,3.1c-0.1,0.5-0.6,0.6-1,0.6s-0.4-0.4-0.4-0.6c0-0.5,0.2-0.6,0.6-0.6C24.2,2.5,24.4,2.6,24.4,3.1z" />
	<path class="st1" d="M35.6,27.8c0.4,0.1,0.7,0.2,0.7,0.7c0,0.2-0.2,0.5-0.6,0.4c-0.4,0-0.6-0.2-0.7-0.7C35,27.9,35.3,27.8,35.6,27.8
	L35.6,27.8z" />
	<path class="st1" d="M32.5,7.5c-0.4,0-0.4-0.2-0.4-0.5c0-0.5,0.2-0.6,0.7-0.6c0.2,0,0.5,0.1,0.4,0.4C33.3,7.1,32.9,7.4,32.5,7.5
	L32.5,7.5z" />
	<path class="st1" d="M19.6,35.5c-0.2,0-0.4-0.1-0.2-0.4c0.1-0.4,0.2-0.7,0.6-0.7s0.2,0.4,0.2,0.5C20.1,35.1,19.9,35.4,19.6,35.5
	L19.6,35.5z" />
	<path class="st1"
		d="M34.3,12.2c0,0.2-0.2,0.4-0.5,0.4s-0.5-0.1-0.4-0.4c0-0.2,0.2-0.4,0.5-0.4C34,11.8,34.1,12,34.3,12.2z" />
	<path class="st1" d="M5,12.5c-0.1,0-0.2-0.1-0.2-0.4s0.1-0.5,0.4-0.5c0.1,0,0.2,0.1,0.2,0.4S5.2,12.5,5,12.5L5,12.5z" />
	<path class="st1"
		d="M35.5,12.2c0,0.2-0.1,0.4-0.4,0.4c-0.2,0-0.4-0.1-0.4-0.2c0-0.2,0.1-0.4,0.4-0.4C35.4,12,35.5,12.1,35.5,12.2z" />
</svg>