<?xml version="1.0" encoding="UTF-8"?><svg id="favicon" xmlns="http://www.w3.org/2000/svg" viewBox="0 0 182.09 148.4"><defs><style>.cls-1{fill:#fff;}</style></defs><g id="f"><path class="cls-1" d="M0,127.67L34.56,25.12C46.29-2.79,69.02,1.79,94.14,2.67c9.02.32,17.97.22,26.95.78l-5.53,17.9c-15.08,1.05-31.53-1.16-46.45.04-18.79,1.51-17.94,22.59-23.81,36.35l49.23,1.97-5.57,17.08-50.58.98-16.51,49.9H0Z"/></g><g id="paw"><path class="cls-1" d="M135.29,138.92c.49.69.53,2.56.87,3.41.58,1.47,2.37,2.67,1.1,4.47-.76,1.07-2.69,1.85-3.13,1.54-.85-.61-1.7-1.75-2.77-2.2-1.45-.6-3.04.49-4.19-.9-.33-.4-.6-1.96-.49-2.47.3-1.39,1.6-1.15,2.54-1.79,1.45-.99,2.94-3.12,4.93-2.73.4.08.94.39,1.14.67h0Z"/><path class="cls-1" d="M135.37,133.42c-.86-.43-.69,1.06-1.43,1.56-1.77,1.19-3.59-1.64-3.22-3.24.42-1.84,1.85-4.89,4.07-3.95s.62,3.52,1.12,3.72c.73-.41,1.03-1.96,1.88-2.31,2.52-1.02,3.22,2.38,2.69,4.18-1.08,3.69-6.11,4.96-5.12.04h0Z"/><path class="cls-1" d="M125.64,137.76c-.19-.41-.46-3-.27-3.45.27-.64,2.35-2.83,3.05-2.7.81.15,2.02,1.92,2.27,2.78,1.39,4.79-3.44,6.86-5.05,3.37Z"/><path class="cls-1" d="M140.93,136.39c4.81.87-.15,7.37-3.44,5.43-2.85-1.68.4-5.98,3.44-5.43Z"/><path class="cls-1" d="M129.06,129.12l.48.55c.15.17.18.33.11.46-.93,1.92-2.95-.09-1.06-1.09.16-.08.35-.05.46.08h0Z"/><path class="cls-1" d="M136.6,124.67l.35.64c.11.2.1.36.02.47-1.32,1.68-2.87-.71-.8-1.29.17-.05.35.02.44.18h-.01Z"/><path class="cls-1" d="M139.71,125.53l.31.66c.1.2.08.36-.02.47-1.42,1.59-2.82-.9-.72-1.34.17-.04.35.05.42.21h.01Z"/><path class="cls-1" d="M142.82,134.02l.11.72c.03.22-.03.37-.15.45-1.82,1.13-2.45-1.65-.31-1.49.17,0,.32.14.35.32h0Z"/><path class="cls-1" d="M118.87,110.8c.72.45,1.47,2.16,2.11,2.82,1.1,1.14,3.21,1.56,2.72,3.72-.29,1.28-1.78,2.74-2.3,2.61-1.01-.24-2.24-.97-3.4-.98-1.57,0-2.62,1.61-4.22.76-.46-.24-1.31-1.58-1.4-2.09-.25-1.4,1.04-1.68,1.67-2.62.97-1.47,1.53-4,3.52-4.4.4-.08,1.02,0,1.31.18h0Z"/><path class="cls-1" d="M116.84,105.68c-.96-.07-.24,1.24-.73,1.99-1.18,1.78-3.94-.15-4.21-1.77-.31-1.86-.16-5.22,2.26-5.21s1.92,3.02,2.45,3.02c.52-.66.2-2.2.86-2.85,1.94-1.9,3.88.97,4.08,2.84.41,3.82-3.76,6.92-4.71,1.99h0Z"/><path class="cls-1" d="M109.5,113.4c-.33-.31-1.57-2.59-1.57-3.08,0-.7,1.09-3.51,1.79-3.66.81-.17,2.6,1,3.16,1.7,3.11,3.89-.56,7.65-3.38,5.04Z"/><path class="cls-1" d="M123.11,106.3c4.78-1.03,2.67,6.87-1.12,6.33-3.27-.46-1.91-5.68,1.12-6.33Z"/><path class="cls-1" d="M109.37,104.11l.65.33c.2.1.29.23.28.38-.13,2.13-2.76,1.05-1.39-.6.11-.13.3-.18.46-.1h0Z"/><path class="cls-1" d="M114.65,97.12l.57.46c.18.14.23.29.19.43-.58,2.06-2.92.44-1.23-.88.14-.11.33-.11.47,0h0Z"/><path class="cls-1" d="M117.84,96.73l.54.49c.17.15.21.31.16.44-.71,2.02-2.94.24-1.17-.96.14-.1.34-.09.47.03Z"/><path class="cls-1" d="M123.96,103.39l.38.62c.12.19.12.35.03.47-1.25,1.73-2.89-.6-.85-1.26.17-.05.35.01.44.16h0Z"/><path class="cls-1" d="M148.87,97.15c.49.69.53,2.56.87,3.41.58,1.47,2.37,2.67,1.1,4.47-.76,1.07-2.69,1.85-3.13,1.54-.85-.61-1.7-1.75-2.77-2.2-1.45-.6-3.04.49-4.19-.9-.33-.4-.6-1.96-.49-2.47.3-1.39,1.6-1.15,2.54-1.79,1.45-.99,2.94-3.12,4.93-2.73.4.08.94.39,1.14.67h0Z"/><path class="cls-1" d="M148.95,91.64c-.86-.43-.69,1.06-1.43,1.56-1.77,1.19-3.59-1.64-3.22-3.24.42-1.84,1.85-4.89,4.07-3.95s.62,3.52,1.12,3.72c.73-.41,1.03-1.96,1.88-2.31,2.52-1.02,3.22,2.38,2.69,4.18-1.08,3.69-6.11,4.96-5.12.04h0Z"/><path class="cls-1" d="M139.22,95.98c-.19-.41-.46-3-.27-3.45.27-.64,2.35-2.83,3.05-2.7.81.15,2.02,1.92,2.27,2.78,1.39,4.79-3.44,6.86-5.05,3.37Z"/><path class="cls-1" d="M154.51,94.61c4.81.87-.15,7.37-3.44,5.43-2.85-1.68.4-5.98,3.44-5.43Z"/><path class="cls-1" d="M142.63,87.34l.48.55c.15.17.18.33.11.46-.93,1.92-2.95-.09-1.06-1.09.16-.08.35-.05.46.08h0Z"/><path class="cls-1" d="M150.18,82.89l.35.64c.11.2.1.36.02.47-1.32,1.68-2.87-.71-.8-1.29.17-.05.35.02.44.18h-.01Z"/><path class="cls-1" d="M153.28,83.75l.31.66c.1.2.08.36-.02.47-1.42,1.59-2.82-.9-.72-1.34.17-.04.35.05.42.21h.01Z"/><path class="cls-1" d="M156.4,92.24l.11.72c.03.22-.03.37-.15.45-1.82,1.13-2.45-1.65-.31-1.49.17.01.32.14.35.32h0Z"/><path class="cls-1" d="M132.44,69.02c.72.45,1.47,2.16,2.11,2.82,1.1,1.14,3.21,1.56,2.72,3.72-.29,1.28-1.78,2.74-2.3,2.61-1.01-.24-2.24-.97-3.4-.98-1.57,0-2.62,1.61-4.22.76-.46-.24-1.31-1.58-1.4-2.09-.25-1.4,1.04-1.68,1.67-2.62.97-1.47,1.53-4,3.52-4.4.4-.08,1.02,0,1.31.18h0Z"/><path class="cls-1" d="M130.42,63.9c-.96-.07-.24,1.24-.73,1.99-1.18,1.78-3.94-.15-4.21-1.77-.31-1.86-.16-5.22,2.26-5.21,2.42.01,1.92,3.02,2.45,3.02.52-.66.2-2.2.86-2.85,1.94-1.9,3.88.97,4.08,2.84.41,3.82-3.76,6.92-4.71,1.99h0Z"/><path class="cls-1" d="M123.08,71.62c-.33-.31-1.57-2.59-1.57-3.08,0-.7,1.09-3.51,1.79-3.66.81-.17,2.6,1,3.16,1.7,3.11,3.89-.56,7.65-3.38,5.04Z"/><path class="cls-1" d="M136.69,64.53c4.78-1.03,2.67,6.87-1.12,6.33-3.27-.46-1.91-5.68,1.12-6.33Z"/><path class="cls-1" d="M122.94,62.33l.65.33c.2.1.29.23.28.38-.13,2.13-2.76,1.05-1.39-.6.11-.13.3-.18.46-.1h0Z"/><path class="cls-1" d="M128.22,55.34l.57.46c.18.14.23.29.19.43-.58,2.06-2.92.44-1.23-.88.14-.11.33-.11.47,0h0Z"/><path class="cls-1" d="M131.42,54.96l.54.49c.17.15.21.31.16.44-.71,2.02-2.94.24-1.17-.96.14-.1.34-.09.47.03Z"/><path class="cls-1" d="M137.53,61.61l.38.62c.12.19.12.35.03.47-1.25,1.73-2.89-.6-.85-1.26.17-.05.35,0,.44.16h0Z"/><path class="cls-1" d="M162.17,56.66c.49.69.53,2.56.87,3.41.58,1.47,2.37,2.67,1.1,4.47-.76,1.07-2.69,1.85-3.13,1.54-.85-.61-1.7-1.75-2.77-2.2-1.45-.6-3.04.49-4.19-.9-.33-.4-.6-1.96-.49-2.47.3-1.39,1.6-1.15,2.54-1.79,1.45-.99,2.94-3.12,4.93-2.73.4.08.94.39,1.14.67h0Z"/><path class="cls-1" d="M162.24,51.16c-.86-.43-.69,1.06-1.43,1.56-1.77,1.19-3.59-1.64-3.22-3.24.42-1.84,1.85-4.89,4.07-3.95s.62,3.52,1.12,3.72c.73-.41,1.03-1.96,1.88-2.31,2.52-1.02,3.22,2.38,2.69,4.18-1.08,3.69-6.11,4.96-5.12.04h0Z"/><path class="cls-1" d="M152.52,55.5c-.19-.41-.46-3-.27-3.45.27-.64,2.35-2.83,3.05-2.7.81.15,2.02,1.92,2.27,2.78,1.39,4.79-3.44,6.86-5.05,3.37Z"/><path class="cls-1" d="M167.81,54.12c4.81.87-.15,7.37-3.44,5.43-2.85-1.68.4-5.98,3.44-5.43Z"/><path class="cls-1" d="M155.93,46.86l.48.55c.15.17.18.33.11.46-.93,1.92-2.95-.09-1.06-1.09.16-.08.35-.05.46.08h0Z"/><path class="cls-1" d="M163.48,42.41l.35.64c.11.2.1.36.02.47-1.32,1.68-2.87-.71-.8-1.29.17-.05.35.02.44.18h-.01Z"/><path class="cls-1" d="M166.58,43.27l.31.66c.1.2.08.36-.02.47-1.42,1.59-2.82-.9-.72-1.34.17-.04.35.05.42.21h.01Z"/><path class="cls-1" d="M169.7,51.76l.11.72c.03.22-.03.37-.15.45-1.82,1.13-2.45-1.65-.31-1.49.17,0,.32.14.35.32h0Z"/><path class="cls-1" d="M145.74,28.54c.72.45,1.47,2.16,2.11,2.82,1.1,1.14,3.21,1.56,2.72,3.72-.29,1.28-1.78,2.74-2.3,2.61-1.01-.24-2.24-.97-3.4-.98-1.57,0-2.62,1.61-4.22.76-.46-.24-1.31-1.58-1.4-2.09-.25-1.4,1.04-1.68,1.67-2.62.97-1.47,1.53-4,3.52-4.4.4-.08,1.02,0,1.31.18h-.01Z"/><path class="cls-1" d="M143.72,23.42c-.96-.07-.24,1.24-.73,1.99-1.18,1.78-3.94-.15-4.21-1.77-.31-1.86-.16-5.22,2.26-5.21s1.92,3.02,2.45,3.02c.52-.66.2-2.2.86-2.85,1.94-1.9,3.88.97,4.08,2.84.41,3.82-3.76,6.92-4.71,1.99h0Z"/><path class="cls-1" d="M136.37,31.14c-.33-.31-1.57-2.59-1.57-3.08,0-.7,1.09-3.51,1.79-3.66.81-.17,2.6,1,3.16,1.7,3.11,3.89-.56,7.65-3.38,5.04h0Z"/><path class="cls-1" d="M149.99,24.04c4.78-1.03,2.67,6.87-1.12,6.33-3.27-.46-1.91-5.68,1.12-6.33Z"/><path class="cls-1" d="M136.24,21.85l.65.33c.2.1.29.23.28.38-.13,2.13-2.76,1.05-1.39-.6.11-.13.3-.18.46-.1h0Z"/><path class="cls-1" d="M141.52,14.86l.57.46c.18.14.23.29.19.43-.58,2.06-2.92.44-1.23-.88.14-.11.33-.11.47,0h0Z"/><path class="cls-1" d="M144.72,14.47l.54.49c.17.15.21.31.16.44-.71,2.02-2.94.24-1.17-.96.14-.1.34-.09.47.03Z"/><path class="cls-1" d="M150.83,21.13l.38.62c.12.19.12.35.03.47-1.25,1.73-2.89-.6-.85-1.26.17-.05.35.01.44.16h0Z"/><path class="cls-1" d="M174.44,14.46c.49.69.53,2.56.87,3.41.58,1.47,2.37,2.67,1.1,4.47-.76,1.07-2.69,1.85-3.13,1.54-.85-.61-1.7-1.75-2.77-2.2-1.45-.6-3.04.49-4.19-.9-.33-.4-.6-1.96-.49-2.47.3-1.39,1.6-1.15,2.54-1.79,1.45-.99,2.94-3.12,4.93-2.73.4.08.94.39,1.14.67h0Z"/><path class="cls-1" d="M174.52,8.96c-.86-.43-.69,1.06-1.43,1.56-1.77,1.19-3.59-1.64-3.22-3.24.42-1.84,1.85-4.89,4.07-3.95s.62,3.52,1.12,3.72c.73-.41,1.03-1.96,1.88-2.31,2.52-1.02,3.22,2.38,2.69,4.18-1.08,3.69-6.11,4.96-5.12.04h0Z"/><path class="cls-1" d="M164.79,13.29c-.19-.41-.46-3-.27-3.45.27-.64,2.35-2.83,3.05-2.7.81.15,2.02,1.92,2.27,2.78,1.39,4.79-3.44,6.86-5.05,3.37Z"/><path class="cls-1" d="M180.08,11.92c4.81.87-.15,7.37-3.44,5.43-2.85-1.68.4-5.98,3.44-5.43Z"/><path class="cls-1" d="M168.2,4.65l.48.55c.15.17.18.33.11.46-.93,1.92-2.95-.09-1.06-1.09.16-.08.35-.05.46.08h0Z"/><path class="cls-1" d="M175.75.2l.35.64c.11.2.1.36.02.47-1.32,1.68-2.87-.71-.8-1.29.17-.05.35.02.44.18h-.01Z"/><path class="cls-1" d="M178.85,1.06l.31.66c.1.2.08.36-.02.47-1.42,1.59-2.82-.9-.72-1.34.17-.04.35.05.42.21h.01Z"/><path class="cls-1" d="M181.97,9.55l.11.72c.03.22-.03.37-.15.45-1.82,1.13-2.45-1.65-.31-1.49.17.01.32.14.35.32h0Z"/></g></svg>