<svg version="1.1" id="Layer_1" xmlns="http://www.w3.org/2000/svg" xmlns:xlink="http://www.w3.org/1999/xlink" x="0px" y="0px"
	 width="100%" viewBox="0 0 600 600" xml:space="preserve">
<path fill="#FFFFFF" opacity="1.000000" stroke="none" 
	d="
M265.709991,1.245926 
	C289.020905,1.000000 312.041779,1.000000 335.531342,1.000000 
	C339.509674,2.930090 343.443237,1.874887 347.150177,2.557898 
	C354.158020,3.849102 361.179108,5.068915 368.566650,6.524605 
	C370.583832,6.583189 372.195709,6.623587 374.156403,7.091784 
	C378.140350,9.441412 382.297089,10.102967 386.267548,11.297052 
	C428.011475,23.851265 465.725311,43.951954 498.621857,72.569923 
	C545.702026,113.526794 577.034851,164.484955 593.169922,224.720108 
	C596.740417,238.049194 599.271606,251.642029 600.754883,265.714844 
	C601.000000,289.020905 601.000000,312.041779 601.000000,335.531342 
	C599.066589,338.507751 600.192627,341.489441 599.807678,344.229279 
	C598.788025,351.486633 597.224792,358.646271 596.103699,366.293274 
	C595.368530,369.002594 595.462646,371.421387 594.909302,374.134705 
	C592.307251,378.556152 591.625000,383.233093 590.269897,387.671082 
	C580.410400,419.960754 565.940125,450.021667 546.163879,477.389465 
	C518.297852,515.952454 483.330994,546.399292 441.051147,568.413574 
	C422.060028,578.301758 402.280365,586.078552 381.718994,591.958313 
	C379.499512,592.592957 377.151428,592.989990 374.883545,594.621643 
	C373.002136,595.342712 371.397583,595.335876 369.399658,595.428345 
	C358.266754,597.476929 347.559845,599.648438 336.322937,600.747192 
	C312.979095,601.000000 289.958221,601.000000 266.468658,601.000000 
	C260.961517,599.171753 255.587570,599.471191 250.391617,598.584595 
	C196.606491,589.407471 148.762970,567.337708 106.985985,532.345459 
	C59.538212,492.603394 27.735514,442.606506 10.467727,383.256073 
	C9.682525,380.557251 9.224178,377.717133 7.410354,374.968933 
	C6.411951,372.333557 6.807782,369.863159 6.067619,367.154846 
	C4.334249,356.744934 2.247912,346.797424 1.253315,336.325195 
	C1.000000,312.979095 1.000000,289.958221 1.000000,266.468658 
	C2.857120,260.793427 2.568896,255.250229 3.490892,249.886627 
	C12.680282,196.428604 34.784103,148.967560 69.342621,107.259285 
	C95.754021,75.383713 127.646194,50.320381 164.514038,31.629311 
	C194.030487,16.665211 225.200928,6.780602 258.019562,2.198162 
	C260.484802,1.853940 263.035706,2.549706 265.709991,1.245926 
z"/>


<path fill="#000000" opacity="1.000000" stroke="none" 
	d="
M425.779968,254.228409 
	C446.102753,287.859650 458.759766,324.059082 466.945129,361.927795 
	C469.948181,375.821075 472.730957,389.735626 473.188995,404.082214 
	C473.426514,411.521637 474.645721,418.880035 473.125732,426.328339 
	C471.844696,432.605652 468.504089,436.973969 462.881592,440.181091 
	C455.386566,444.456238 447.408905,447.217163 438.959534,447.813934 
	C431.139252,448.366333 423.862183,444.336792 423.954041,434.563019 
	C424.189850,409.472931 419.030640,385.235138 411.964386,361.315704 
	C403.402405,332.333282 390.050903,305.705780 371.756958,281.726532 
	C354.379456,258.948517 333.268188,240.043365 308.860901,224.990417 
	C280.508453,207.504333 249.974045,195.231033 217.529312,187.721359 
	C202.366455,184.211731 187.116669,181.202194 171.472748,181.024368 
	C166.645004,180.969498 163.654938,178.216888 161.778183,174.335129 
	C156.949310,164.347351 161.968063,143.221954 170.381622,136.007828 
	C176.528854,130.736923 183.858490,130.466949 191.110107,131.133484 
	C201.788681,132.114975 212.503571,132.581985 223.102478,134.859756 
	C254.320450,141.568680 284.859375,150.331467 314.177155,163.087051 
	C334.625122,171.983521 354.281006,182.298889 372.293945,195.579956 
	C388.687408,207.666977 403.232300,221.589310 415.068451,238.216156 
	C418.720520,243.346420 422.065033,248.695633 425.779968,254.228409 
z"/>

<path fill="#000000" opacity="1.000000" stroke="none" 
	d="
M236.872955,249.091339 
	C261.832611,257.756256 285.255341,268.488556 305.800354,284.859619 
	C320.410126,296.501251 331.789490,310.790192 340.921143,326.915375 
	C355.041443,351.849762 363.222992,378.900085 368.822876,406.836609 
	C370.714233,416.272125 371.090698,425.875061 371.891266,435.412750 
	C372.657684,444.542816 367.638428,451.141571 358.765961,454.190369 
	C354.529266,455.646240 350.324646,457.271118 345.726379,456.986603 
	C339.961456,456.629944 337.111755,454.083130 337.026398,448.840454 
	C336.505310,416.833466 328.068237,386.932983 312.464355,359.141815 
	C302.312134,341.060333 288.929535,325.637177 272.560852,312.647217 
	C245.230438,290.958221 213.848221,278.888062 180.059204,272.235443 
	C174.079010,271.058044 167.949600,270.457520 161.858673,270.073700 
	C155.567627,269.677277 153.997360,268.742767 152.403656,262.742798 
	C150.328537,254.930435 154.652313,241.948608 160.484833,237.959732 
	C162.671814,236.464050 164.947906,236.108643 167.508575,235.946793 
	C181.774719,235.045105 195.571060,237.746811 209.252579,241.239609 
	C218.398315,243.574432 227.584824,245.798355 236.872955,249.091339 
z"/>
</svg>