<svg xmlns="http://www.w3.org/2000/svg" xmlns:xlink="http://www.w3.org/1999/xlink" width="40" height="46" version="1.1" viewBox="0 0 40 46"><title>Bindle_White</title><desc>Created with Sketch.</desc><g id="Page-1" fill="none" fill-rule="evenodd" stroke="none" stroke-width="1"><g id="Artboard" fill="#FFF" transform="translate(-191.000000, -171.000000)"><path id="Bindle_White" d="M202.421891,171 L211.16685,181.551204 L211.221427,185.302961 L212.063057,185.193201 L213.14984,185.38714 L215.262265,186.37111 L216.28433,186.884511 L216.696198,189.699593 L224.623982,196.475839 L229.097564,208.076452 L218.360967,217 L206.431414,217 L195.694816,208.076452 L200.168697,196.475839 L207.281394,190.592543 L210.600196,191.995027 L213.173699,190.780532 L210.307922,190.84032 L208.194303,189.619876 L208.37951,187.580845 L205.766938,186.275925 L200.819752,180.334329 L202.421891,171 Z M204.551972,188.128632 L206.081937,188.71015 L205.571949,190.526687 L198.067365,192.561256 L192.675804,194.594933 L191,193.942027 L191,191.253659 L195.694876,190.672141 L204.551972,188.128632 Z M228.523127,184.11839 L231,186.007802 L230.125862,188.128632 L226.409806,188.128632 L218.832452,188.987078 L219.415211,187.654792 L221.309624,186.794562 L223.495416,186.153256 L228.523127,184.11839 Z M227.138612,173.598716 L225.280883,182.88575 L218.527563,186.664575 L217.201593,186.794562 L216.555608,186.135706 L219.56096,184.035996 L221.414515,179.92105 L217.399624,182.083821 L215.432142,185.20855 L213.428275,184.752259 L215.183411,180.323799 L227.138612,173.598716 Z"/></g></g></svg>