<svg xmlns="http://www.w3.org/2000/svg" id="Layer_1" data-name="Layer 1" viewBox="0 0 462.64 297.11"><defs><style>.cls-1{fill:#fff;stroke:#323a47;stroke-miterlimit:10;stroke-width:7px}.cls-2{fill:#ff5e5b}</style></defs><g id="layer1"><g id="g40"><g id="g4184"><path id="path38" d="M364.15,166.32a148.77,148.77,0,0,1-31.91.55V59.07H353.9a49.33,49.33,0,0,1,37.47,16.81c6.57,7.64,11.84,18.39,11.84,33.24,0,36.3-18.71,50.6-39.06,57.2m92.73-75.68c-6.32-33.37-24.29-54.16-42.7-67A113.54,113.54,0,0,0,349.11,3.5H19.52C8.06,3.5,3.67,14.69,3.62,20.3c0,.73,0,3.66,0,3.66s-.54,145.81.49,223.69c3.11,46,49.17,46,49.17,46s150.41-.44,222.54-.89a42.42,42.42,0,0,0,10-1.2c41.07-10.28,45.32-48.43,44.88-69.7,82.55,4.59,140.79-53.66,126.12-131.18" class="cls-1"/><path id="path42" d="M165.06,233.15a5.09,5.09,0,0,0,5.88-.44S223.4,184.83,247,157.26c21-24.67,22.39-66.24-13.71-81.77s-65.79,18.27-65.79,18.27C141.77,65.44,102.79,66.87,84.76,86S73,138.11,86.48,156.42c12.62,17.19,68.12,66.65,76.53,75a17.64,17.64,0,0,0,2.05,1.71" class="cls-2"/></g></g></g></svg>