<svg xmlns="http://www.w3.org/2000/svg" xmlns:xlink="http://www.w3.org/1999/xlink" style="fill-rule:nonzero;clip-rule:evenodd;stroke-linecap:round;stroke-linejoin:round" version="1.1" viewBox="0 0 63 24" xml:space="preserve"><g id="Layer 1"><g opacity="1"><path fill="#ff8000" d="M-1.1917e-06+12C-1.1917e-06+5.37258+5.37258-4.53979e-07+12-4.53979e-07C18.6274-4.53979e-07+24+5.37258+24+12C24+18.6274+18.6274+24+12+24C5.37258+24-1.1917e-06+18.6274-1.1917e-06+12Z" opacity="1"/><path fill="#00e054" d="M19.5+12C19.5+5.37258+24.8726-4.53979e-07+31.5-4.53979e-07C38.1274-4.53979e-07+43.5+5.37258+43.5+12C43.5+18.6274+38.1274+24+31.5+24C24.8726+24+19.5+18.6274+19.5+12Z" opacity="1"/><path fill="#fff" d="M21.75+18.997C23.1661+17.0274+24+14.6111+24+12C24+9.38894+23.1661+6.97265+21.75+5.00295C20.3339+6.97265+19.5+9.38894+19.5+12C19.5+14.6111+20.3339+17.0274+21.75+18.997L21.75+18.997Z" opacity="1"/><path fill="#40bcf4" d="M39+12C39+5.37258+44.3726-4.53979e-07+51-4.53979e-07C57.6274-4.53979e-07+63+5.37258+63+12C63+18.6274+57.6274+24+51+24C44.3726+24+39+18.6274+39+12Z" opacity="1"/><path fill="#fff" d="M41.25+18.997C42.6661+17.0274+43.5+14.6111+43.5+12C43.5+9.38894+42.6661+6.97265+41.25+5.00295C39.8339+6.97265+39+9.38894+39+12C39+14.6111+39.8339+17.0274+41.25+18.997L41.25+18.997Z" opacity="1"/></g></g></svg>