<svg xmlns="http://www.w3.org/2000/svg" xmlns:xlink="http://www.w3.org/1999/xlink" id="Layer_1" x="0" y="0" version="1.1" viewBox="0 0 103.4 103.4" style="enable-background:new 0 0 103.4 103.4" xml:space="preserve"><style type="text/css">.st0{fill:url(#SVGID_1_)}.st1{fill:#fff}.st2{fill:none}.st3{fill:#f9f9f9}</style><linearGradient id="SVGID_1_" x1="28.943" x2="101.883" y1="955.222" y2="1129.832" gradientTransform="matrix(1 0 0 1 0 -958)" gradientUnits="userSpaceOnUse"><stop offset="0" style="stop-color:#ef1970"/><stop offset=".14" style="stop-color:#f23b5c"/><stop offset=".44" style="stop-color:#f77d35"/><stop offset=".7" style="stop-color:#fcad18"/><stop offset=".89" style="stop-color:#fecb07"/><stop offset="1" style="stop-color:#ffd600"/></linearGradient><circle cx="51.7" cy="51.7" r="51.7" class="st0"/><path d="M11.9,38.3c-0.3-0.4-0.9-0.6-1.3-0.3s-0.6,0.9-0.3,1.3c0.3,0.4,0.9,0.6,1.3,0.3C12.1,39.3,12.2,38.7,11.9,38.3	L11.9,38.3" class="st1"/><path d="M67.4,13.4c-0.3-0.4-0.9-0.6-1.3-0.3s-0.6,0.9-0.3,1.3c0.3,0.4,0.9,0.6,1.3,0.3C67.6,14.5,67.7,13.9,67.4,13.4	L67.4,13.4" class="st1"/><path d="M78.9,50.7c-0.1,0.6,0.2,1.2,0.8,1.3c0.6,0.1,1.2-0.2,1.3-0.8c0.1-0.6-0.2-1.2-0.8-1.3	C79.6,49.7,79,50.1,78.9,50.7L78.9,50.7" class="st1"/><path d="M62.3,87.7c-0.1,0.5,0.2,0.9,0.6,1c0.5,0.1,0.9-0.2,1-0.6c0.1-0.4-0.2-0.9-0.6-1l0,0	C62.9,87,62.5,87.2,62.3,87.7" class="st1"/><path d="M19.2,21.2c-0.1,0.3,0.1,0.6,0.4,0.6c0.3,0.1,0.6-0.1,0.6-0.4c0.1-0.3-0.1-0.6-0.4-0.6	C19.5,20.8,19.2,20.9,19.2,21.2L19.2,21.2" class="st1"/><path d="M21.9,70c-0.1-0.4-0.5-0.7-0.8-0.6c-0.4,0.1-0.7,0.5-0.6,0.8c0.1,0.4,0.5,0.7,0.8,0.6	C21.7,70.8,21.9,70.4,21.9,70L21.9,70" class="st1"/><path d="M43.8,10.2c0,0-8.2,2.2-7.5,10.9c0.6,7.7,4.7,11.9,13.1,8.6s9.9-5.5,7.8-11.9S52.7,7.1,43.8,10.2z" class="st2"/><path d="M91.4,83.7c-0.3-0.6-6.4-10-7.2-17.9c-0.6-5.5-7.7-11.5-12-14.7c-1.4-1-1.6-3-0.6-4.4c0.1-0.1,0.2-0.3,0.4-0.4	c4.2-4,11.7-11.8,14.1-15.9c2.2-4.3,3.4-9.1,3.4-13.9c-2.9-3.1-6.2-5.9-9.8-8.2c-3.5,1.7-4.4,7.1-5.9,13.3c-2.1,8.5-7,7.5-9,7.5	s-0.8-3-5.4-16.3s-16.7-10-25.9-4.5c-11.7,7-6.5,21.9-3.6,31.5c-1.6,1.6-7.8,2.8-13.4,5.8C9.6,49.3,2.4,55.4,0.6,58.1	c0.5,3.8,1.3,7.4,2.6,11c0.4,0.4,0.9,0.7,1.4,0.9c3.3,1.5,8.1-1.1,12.7-5.8c1.4-1.4,2.9-2.5,4.6-3.5c3.7-2.4,7.6-4.2,11.8-5.5	c0,0,4.5,6.9,8.7,15.1s-4.5,10.9-5.5,10.9s-14.6-1.3-11.6,10.3s19.7,7.4,28.2,1.8c8.5-5.6,6.4-23.9,6.4-23.9	c8.3-1.3,10.9,7.5,11.7,12s-1,12.3,7.4,12.5c1.2,0,2.4-0.2,3.5-0.5c3.2-2.4,6.2-5.1,8.7-8.2C91.3,84.7,91.4,84.2,91.4,83.7z M49.4,29.7c-8.5,3.2-12.6-1-13.1-8.6c-0.6-8.6,7.5-10.9,7.5-10.9c9-3,11.4,1.3,13.5,7.7S57.8,26.5,49.4,29.7z" class="st1"/><polygon points="91.3 38.4 89 39.5 88.4 42.1 87.3 39.8 84.7 39.2 87 38.1 87.6 35.5 88.7 37.8" class="st1"/><path d="M54.2,19.4c0.5,1.1,0.7,2.4,0.4,3.6" class="st3"/><path d="M54.6,24.1h-0.2c-0.6-0.1-1-0.7-0.9-1.3c0.3-1,0.1-2.1-0.3-3c-0.2-0.6,0.1-1.2,0.7-1.4c0.5-0.2,1,0.1,1.3,0.5	c0.6,1.3,0.8,2.8,0.4,4.2C55.6,23.7,55.1,24.1,54.6,24.1z" class="st1"/><path d="M51.6,13.4c0.3,0.4,0.6,0.8,0.8,1.2" class="st3"/><path d="M52.4,15.7c-0.4,0-0.8-0.2-1-0.6s-0.4-0.7-0.6-1c-0.4-0.4-0.4-1.1,0-1.5s1.1-0.4,1.5,0c0.4,0.5,0.7,1,1,1.5	s0.1,1.2-0.5,1.5C52.6,15.6,52.5,15.7,52.4,15.7z" class="st1"/></svg>