<svg
  id="picarto_logo"
  xmlns="http://www.w3.org/2000/svg"
  width="35"
  height="40"
  fill="#fff"
  viewBox="0 0 35 40"
>
  <path
  fill="inherit"
    d="M1.1,0L1.1,0h7.1c0.6,0,1,0.6,1,1.2v37.6c0,0.7-0.5,1.2-1,1.2H1.1C0.5,40,0,39.5,0,38.8V1.2C0,0.6,0.5,0,1.1,0 M13,0L13,0 c0.2,0,0.6,0.1,0.8,0.2c0.9,0.5,19,11.3,20.5,12.2c1,0.6,1,2,0,2.7C33.2,15.8,15,26.6,13.8,27.4c-1,0.6-2.3-0.1-2.3-1.3v-4.6 c0-4.4,7.6-5.6,8.7-6.3c1-0.6,1-2.1,0-2.7c-1.5-0.9-8.7-1.9-8.7-6.2V1.5C11.5,0.7,12.2,0,13,0"
  />
</svg>