<svg xmlns="http://www.w3.org/2000/svg" width="24" height="24" fill="none" viewBox="0 0 24 24"><g clip-path="url(#clip0)"><path fill="#DA552F" d="M24.0032 12C24.0032 18.6298 18.633 24 12.0032 24C5.3734 24 0.00228119 18.6307 0.00228119 12C0.00228119 5.36929 5.37248 0 12.0023 0C18.6321 0 24.0023 5.3702 24.0023 12"/><path fill="#fff" d="M13.6028 12H10.2025V8.40952H13.6028C14.5928 8.40952 15.4036 9.2194 15.4036 10.2103C15.4036 11.2011 14.5937 12.011 13.6028 12.011V12ZM13.6028 6.01099H7.80211V18.011H10.2025V14.4114H13.6028C15.9228 14.4114 17.803 12.5311 17.803 10.2112C17.803 7.89124 15.9228 6.01099 13.6028 6.01099"/></g><defs><clipPath id="clip0"><rect width="24" height="24" fill="#fff"/></clipPath></defs></svg>