<svg fill="none" height="24" viewBox="0 0 24 24" width="24" xmlns="http://www.w3.org/2000/svg"><path d="m17.6921 11.1235c-.1033-.0495-.2084-.0972-.3147-.1429-.1853-3.41332-2.0504-5.36748-5.1822-5.38748-.0142-.00008-.0283-.00008-.0424-.00008-1.8733 0-3.43116.79957-4.39005 2.25455l1.72237 1.18151c.71628-1.08681 1.84048-1.3185 2.66848-1.3185.0095 0 .0191 0 .0286.00009 1.0312.00657 1.8093.30639 2.3129.89106.3665.42566.6116 1.01388.733 1.75625-.9142-.1554-1.903-.2032-2.96-.1426-2.97751.1715-4.89171 1.9081-4.76315 4.3211.06524 1.224.67501 2.277 1.71693 2.9649.88092.5815 2.01552.8659 3.19462.8015 1.5572-.0854 2.7789-.6795 3.6311-1.7659.6473-.825 1.0566-1.8941 1.2374-3.2413.7421.4479 1.2921 1.0373 1.5959 1.7458.5165 1.2044.5466 3.1835-1.0683 4.797-1.4148 1.4135-3.1156 2.025-5.6859 2.0439-2.85118-.0211-5.00748-.9355-6.40944-2.7178-1.31282-1.6688-1.9913-4.0794-2.01661-7.1646.02531-3.08527.70379-5.4958 2.01661-7.16466 1.40196-1.78223 3.55823-2.69659 6.40934-2.71778 2.8719.02135 5.0658.94011 6.5214 2.73094.7138.8782 1.2519 1.9826 1.6066 3.27029l2.0184-.53851c-.43-1.585-1.1066-2.95082-2.0274-4.08353-1.8661-2.29591-4.5953-3.4723565-8.1119-3.49675h-.0141c-3.5094.0243088-6.20809 1.20522-8.02106 3.50991-1.6133 2.05089-2.44549 4.90455-2.47345 8.48169l-.00009.0084.00009.0084c.02796 3.5771.86015 6.4309 2.47345 8.4817 1.81297 2.3047 4.51166 3.4856 8.02106 3.5099h.0141c3.1201-.0216 5.3193-.8385 7.131-2.6486 2.3704-2.3681 2.299-5.3365 1.5178-7.1588-.5605-1.3067-1.6291-2.3681-3.0904-3.0691zm-5.387 5.0649c-1.305.0735-2.6608-.5123-2.72765-1.7669-.04955-.9302.66205-1.9682 2.80765-2.0919.2458-.0142.4869-.0211.7238-.0211.7794 0 1.5085.0757 2.1713.2206-.2472 3.0878-1.6975 3.5892-2.9751 3.6593z" fill="#fff"/></svg>