<svg width="67" height="58" viewBox="0 0 67 58" fill="none" xmlns="http://www.w3.org/2000/svg">
<path d="M47.2478 30.4608C47.0183 30.9252 46.7163 31.345 46.3534 31.7132L34.349 44.0168C34.1406 44.3077 33.7824 44.4906 33.389 44.4906C32.9957 44.4906 32.6351 44.3077 32.4033 43.9864L20.42 31.7109C20.3615 31.6546 20.2983 31.5866 20.2397 31.5186C18.9847 30.109 18.7436 28.0733 19.6286 26.3377L32.2956 1.47247C32.5414 1.09018 32.9442 0.874405 33.389 0.874405C33.8339 0.874405 34.2343 1.08783 34.4684 1.44667L40.8171 13.911L47.1658 26.3752C47.8331 27.6816 47.8636 29.2107 47.2478 30.4608ZM33.773 52.0144L2.1454 19.8013L2.04472 19.6981C1.81058 19.5104 1.54132 19.4143 1.25098 19.4143C0.827189 19.4307 0.454906 19.616 0.225449 19.9209C0.0100404 20.207 -0.0531774 20.5776 0.0451614 20.9716L9.2492 52.7016C9.4693 53.4592 9.82519 54.1628 10.3145 54.7866C10.3731 54.8664 10.4386 54.9438 10.5019 55.0188C11.5953 56.2876 13.2436 56.9842 14.9529 56.9842C15.6155 56.9842 16.2874 56.881 16.9384 56.6605C21.6774 55.0892 26.6388 54.2073 31.6962 54.0455C32.1247 54.0127 32.5508 53.9869 32.9746 53.9658C33.3258 53.947 33.6513 53.7781 33.862 53.5037C34.0704 53.2364 34.15 52.8986 34.0868 52.5726C34.047 52.378 33.9416 52.1903 33.7754 52.0168L33.773 52.0144ZM66.2201 19.6136C65.8198 19.3392 65.3093 19.3556 64.7755 19.6746L64.6444 19.7544L37.449 47.502C36.9971 47.9617 36.9948 48.6841 37.4443 49.1437L42.1833 53.9986C42.7453 54.5755 43.4664 54.9696 44.2742 55.1408C46.4236 55.5934 48.5566 56.1891 50.6171 56.9091C51.0947 57.0757 51.5934 57.1578 52.0945 57.1578C52.7149 57.1578 53.3354 57.0311 53.9278 56.7778C54.9486 56.3603 55.8314 55.7013 56.4799 54.8687C56.9646 54.2472 57.3252 53.5436 57.5476 52.779L66.754 21.0349C66.7914 20.8871 66.8055 20.7394 66.7938 20.6127C66.7938 20.2093 66.5784 19.8341 66.2201 19.6089V19.6136Z" fill="url(#paint0_linear_2_340)"/>
<defs>
<linearGradient id="paint0_linear_2_340" x1="9.8121" y1="57.1578" x2="53.995" y2="12.6782" gradientUnits="userSpaceOnUse">
<stop stop-color="#4CA6FF"/>
<stop offset="0.276959" stop-color="#4D4DFF"/>
<stop offset="0.491704" stop-color="#990AFF"/>
<stop offset="0.642891" stop-color="#D21EB4"/>
<stop offset="1" stop-color="#FFC400"/>
</linearGradient>
</defs>
</svg>
