<?xml version="1.0" encoding="UTF-8"?>
<svg id="trakt" xmlns="http://www.w3.org/2000/svg" width="40" height="40" fill="#fff" viewBox="0 0 40 40">
  <g>
    <path fill="inherit"
      d="m25.13,25.17l-1.22-1.22,15.96-15.97c-.04-.32-.11-.64-.19-.96l-16.92,16.93,1.8,1.8-1.22,1.22-3.02-3.02L39.02,5.24c-.12-.25-.26-.5-.42-.73l-19.43,19.45,3.59,3.59-1.22,1.22-11.99-11.99,1.22-1.22,7.18,7.18L37.57,3.1c-1.72-1.91-4.21-3.1-6.97-3.1H9.39C4.21,0,0,4.21,0,9.39v21.22c0,5.18,4.21,9.38,9.39,9.38h21.22c5.18,0,9.39-4.2,9.39-9.38V10.31l-14.85,14.86h0Zm-7.19-3.59l-6.59-6.61,1.22-1.22,6.59,6.6-1.22,1.22Zm1.79-1.81l-6.59-6.6,1.22-1.22,6.6,6.6s-1.22,1.22-1.22,1.22Zm16.42,9.48c0,3.81-3.09,6.9-6.9,6.9H10.73c-3.8,0-6.9-3.09-6.9-6.9V10.73c0-3.81,3.09-6.9,6.9-6.9h17.31v1.73H10.73c-2.85,0-5.16,2.32-5.16,5.16v18.52c0,2.85,2.32,5.17,5.16,5.17h18.52c2.85,0,5.16-2.32,5.16-5.17v-2.92h1.73v2.92h0Z" />
  </g>
</svg>
