<?xml version="1.0"?><svg width="16" height="16" version="1.1" viewBox="0 0 16 16" xmlns="http://www.w3.org/2000/svg"><path d="m5.63 5.6c-1.43-2.26-1.47-3.8-1.47-3.8l-1.37 0.833s-0.0414 2.14 2.04 3.62c-6.65 1.19-6.27 8.02 0.157 7.75 0.737-0.0317-0.806 0.981 1.29 0.582 3.8-0.73 6.2-2.08 8.25-4.3 0.947-1.02-0.521-0.589 0.0764-1.37 5.4-7.07-6.42-11.2-8.97-3.31z" fill="#970000"/><path d="m2.58 7.5 1.75-0.673 2.82 4.45 0.0521-6.88 1.07-0.331 3.74 5.82 0.0342-6.77 1.91-0.563-0.279 7.6-2.38 1.88-2.66-4.18-0.0109 5.47-1.94 0.623z" fill="#fff"/></svg>
