<svg xmlns="http://www.w3.org/2000/svg" id="Ebene_1" x="0" y="0" version="1.1" viewBox="0 0 24 24" xml:space="preserve"><style>.st0{fill:#fff}</style><g id="layer1" transform="translate(-194.87 -324.335)"><path id="path19359" d="M198.7 329.2c-.2 0-.4.1-.5.2-.1.1-.1.3 0 .5l2.3 4-3.6 6.4c-.1.2-.1.4 0 .5.1.1.2.2.4.2h3.4c.5 0 .8-.3.9-.7 0 0 3.5-6.2 3.7-6.5l-2.3-4.1c-.2-.3-.4-.6-.9-.6h-3.4z" class="st0"/><path id="path19375" d="M212.9 324.6c-.5 0-.7.3-.9.6 0 0-7.3 13-7.6 13.4l4.8 8.9c.2.3.4.6.9.6h3.4c.2 0 .4-.1.5-.2.1-.1.1-.3 0-.5l-4.8-8.8 7.5-13.3c.1-.2.1-.4 0-.5-.1-.1-.2-.2-.5-.2h-3.3z" class="st0"/></g></svg>