<svg width="24" height="24" viewBox="0 0 24 24" fill="#FFFFFF" xmlns="http://www.w3.org/2000/svg">
<path d="M20 6C20 6 17.7075 4.206 15 4L14.756 4.488C17.204 5.087 18.327 5.9455 19.5 7C17.4775 5.9675 15.4805 5 12 5C8.5195 5 6.5225 5.9675 4.5 7C5.673 5.9455 7.009 4.9925 9.244 4.488L9 4C6.1595 4.2685 4 6 4 6C4 6 1.4395 9.7125 1 17C3.581 19.9765 7.5 20 7.5 20L8.3195 18.9075C6.9285 18.424 5.3575 17.5605 4 16C5.619 17.225 8.0625 18.5 12 18.5C15.9375 18.5 18.381 17.225 20 16C18.6425 17.5605 17.0715 18.424 15.6805 18.9075L16.5 20C16.5 20 20.419 19.9765 23 17C22.5605 9.7125 20 6 20 6ZM8.75 15C7.7835 15 7 14.1045 7 13C7 11.8955 7.7835 11 8.75 11C9.7165 11 10.5 11.8955 10.5 13C10.5 14.1045 9.7165 15 8.75 15ZM15.25 15C14.2835 15 13.5 14.1045 13.5 13C13.5 11.8955 14.2835 11 15.25 11C16.2165 11 17 11.8955 17 13C17 14.1045 16.2165 15 15.25 15Z" fill="white"/>
</svg>
