<svg width="24" height="24" viewBox="0 0 24 24" fill="none" xmlns="http://www.w3.org/2000/svg">
<path d="M13.5374 12.0001C13.5374 15.8661 10.5069 19 6.76884 19C3.03073 19 0 15.8661 0 12.0001C0 8.13418 3.0305 5 6.76884 5C10.5072 5 13.5374 8.13418 13.5374 12.0001Z" fill="#FFFFFF"/>
<path d="M20.9628 12.0001C20.9628 15.6391 19.4476 18.5902 17.5784 18.5902C15.7092 18.5902 14.194 15.6391 14.194 12.0001C14.194 8.36116 15.709 5.41003 17.5782 5.41003C19.4473 5.41003 20.9626 8.36021 20.9626 12.0001" fill="#FFFFFF"/>
<path d="M24 12.0001C24 15.2597 23.4672 17.9038 22.8097 17.9038C22.1522 17.9038 21.6196 15.2604 21.6196 12.0001C21.6196 8.73979 22.1525 6.09644 22.8097 6.09644C23.467 6.09644 24 8.73955 24 12.0001Z" fill="#FFFFFF"/>
</svg>
