<svg width="24" height="24" viewBox="0 0 24 24" fill="none" xmlns="http://www.w3.org/2000/svg">
<g clip-path="url(#clip0)">
<path d="M24.1776 6.35832C24.07 8.72157 22.4253 11.9576 19.2444 16.0647C15.9556 20.3551 13.1731 22.5 10.8969 22.5C9.48735 22.5 8.2936 21.194 7.31925 18.5809C6.66807 16.1857 6.01761 13.7907 5.36668 11.3955C4.64268 8.78384 3.86644 7.47634 3.0365 7.47634C2.85557 7.47634 2.22229 7.85846 1.13811 8.6198L0 7.14825C1.19375 6.09542 2.37154 5.04283 3.53021 3.98878C5.12236 2.60786 6.31756 1.88166 7.11412 1.80824C8.99679 1.62675 10.1555 2.91826 10.5904 5.68301C11.0604 8.66584 11.3855 10.5212 11.5684 11.2474C12.1109 13.7221 12.7079 14.9579 13.3603 14.9579C13.8666 14.9579 14.6271 14.1554 15.6412 12.5503C16.6542 10.9448 17.1968 9.72327 17.2701 8.88416C17.4142 7.49863 16.8714 6.80417 15.6412 6.80417C15.0621 6.80417 14.4651 6.93793 13.8509 7.20229C15.0396 3.29408 17.311 1.39607 20.6636 1.50439C23.1491 1.57756 24.3208 3.19546 24.1776 6.35832Z" fill="white"/>
</g>
<defs>
<clipPath id="clip0">
<rect width="24" height="24" fill="white"/>
</clipPath>
</defs>
</svg>
